<?xml version="1.0" standalone="no"?>
<!DOCTYPE svg PUBLIC "-//W3C//DTD SVG 20010904//EN"
 "http://www.w3.org/TR/2001/REC-SVG-20010904/DTD/svg10.dtd">
<svg version="1.0" xmlns="http://www.w3.org/2000/svg"
 width="700.000000pt" height="700.000000pt" viewBox="0 0 700.000000 700.000000"
 preserveAspectRatio="xMidYMid meet">
<metadata>
Created by potrace 1.11, written by Peter Selinger 2001-2013
</metadata>
<g transform="translate(0.000000,700.000000) scale(0.100000,-0.100000)"
fill="#000000" stroke="none">
<path d="M4830 6833 c-198 -21 -468 -127 -675 -266 -256 -172 -481 -468 -585
-772 -51 -147 -64 -228 -65 -390 l0 -150 55 -3 c118 -7 291 29 434 89 237 100
491 324 667 587 142 213 216 412 240 652 14 143 5 261 -19 258 -10 0 -33 -3
-52 -5z"/>
<path d="M4595 5245 c-150 -21 -295 -61 -639 -177 -223 -75 -349 -112 -390
-115 -79 -7 -179 20 -478 126 -376 133 -545 169 -757 158 -540 -27 -1050 -342
-1346 -832 -135 -223 -224 -479 -272 -778 -25 -158 -25 -627 0 -807 58 -418
176 -816 362 -1220 106 -230 209 -407 359 -618 291 -408 506 -625 731 -737
221 -110 400 -110 711 -1 55 19 164 57 244 85 207 72 321 93 505 95 207 1 328
-24 612 -128 278 -102 418 -132 573 -123 339 21 599 222 988 765 195 272 343
548 463 865 27 71 49 133 49 138 0 5 -42 29 -92 55 -333 165 -617 475 -737
802 -115 313 -119 710 -11 1017 43 121 110 246 186 347 80 108 235 256 353
338 51 36 100 70 109 76 14 10 11 18 -26 68 -254 336 -637 539 -1134 600 -147
19 -238 19 -363 1z"/>
</g>
</svg>
