<svg width="32" height="32" viewBox="0 0 32 32" fill="none" xmlns="http://www.w3.org/2000/svg">
<path d="M27.3333 7.33325H23.3333C23.0466 7.33325 22.792 7.15056 22.7013 6.87725L22.28 5.61325C21.8253 4.24925 20.5547 3.33325 19.1173 3.33325H12.8826C11.4453 3.33325 10.1746 4.24925 9.72131 5.61194L9.3 6.87725C9.208 7.15056 8.95331 7.33325 8.66669 7.33325H4.66669C2.09331 7.33325 0 9.42663 0 11.9999V23.9999C0 26.5733 2.09331 28.6666 4.66669 28.6666H27.3334C29.9067 28.6666 32 26.5733 32 23.9999V11.9999C32 9.42663 29.9067 7.33325 27.3333 7.33325ZM30.6667 23.9999C30.6667 25.8373 29.1707 27.3333 27.3334 27.3333H4.66669C2.82938 27.3333 1.33337 25.8373 1.33337 23.9999V11.9999C1.33337 10.1626 2.82938 8.66663 4.66669 8.66663H8.66669C9.528 8.66663 10.2907 8.11731 10.564 7.29994L10.9867 6.03325C11.2587 5.21594 12.0214 4.66656 12.8827 4.66656H19.1174C19.9787 4.66656 20.7414 5.21588 21.0147 6.03456L21.436 7.29988C21.7093 8.11719 22.472 8.66656 23.3333 8.66656H27.3333C29.1706 8.66656 30.6666 10.1626 30.6666 11.9999V23.9999H30.6667Z" fill="#0C0C0D"/>
<path d="M16 10C11.588 10 8 13.588 8 18C8 22.412 11.588 26 16 26C20.412 26 24 22.412 24 18C24 13.588 20.412 10 16 10ZM16 24.6667C12.324 24.6667 9.33331 21.676 9.33331 18C9.33331 14.324 12.324 11.3333 16 11.3333C19.676 11.3333 22.6667 14.324 22.6667 18C22.6667 21.676 19.676 24.6667 16 24.6667Z" fill="#0C0C0D"/>
</svg>
