<svg width="32" height="32" viewBox="0 0 32 32" fill="none" xmlns="http://www.w3.org/2000/svg">
<path d="M30.855 2.675L29.355 1.15C29.3087 1.10276 29.2535 1.06517 29.1925 1.03942C29.1316 1.01368 29.0662 1.00028 29 1H3.015C2.94997 0.999842 2.88556 1.01257 2.82548 1.03746C2.76541 1.06235 2.71086 1.0989 2.665 1.145L1.15 2.645C1.10276 2.69131 1.06517 2.74653 1.03942 2.80747C1.01367 2.86841 1.00027 2.93385 1 3V29C1.00099 29.1326 1.0529 29.2597 1.145 29.355L2.645 30.855C2.74034 30.9471 2.86744 30.999 3 31H28.985C29.0669 31.0001 29.1476 30.9801 29.2199 30.9418C29.2923 30.9034 29.3541 30.8479 29.4 30.78L30.915 29.28C30.9706 29.1972 31.0002 29.0997 31 29V3.025C31.0006 2.95991 30.9881 2.89535 30.9632 2.83521C30.9383 2.77507 30.9015 2.72057 30.855 2.675ZM2 3.21L3.22 2H3.415L6.85 5.44L5.44 6.855L2 3.415V3.21ZM7.705 6H23.795L26 8.205V24.235L24.3 26H7.705L6 24.295V7.705L7.705 6ZM30 28.845L28.72 30H3.205L2 28.795V4.825L5 7.825V24.5C5.00099 24.6326 5.0529 24.7597 5.145 24.855L7.145 26.855C7.24034 26.9471 7.36744 26.999 7.5 27H24.515C24.5824 27 24.6491 26.9862 24.711 26.9596C24.7729 26.9329 24.8287 26.8939 24.875 26.845L26.86 24.78C26.9504 24.688 27.0008 24.564 27 24.435V8C26.999 7.86744 26.9471 7.74034 26.855 7.645L24.355 5.145C24.2597 5.0529 24.1326 5.00099 24 5H7.825L4.825 2H28.79L30 3.23V28.845Z" fill="black"/>
</svg>
