<?xml version="1.0" standalone="no"?><!DOCTYPE svg PUBLIC "-//W3C//DTD SVG 1.1//EN" "http://www.w3.org/Graphics/SVG/1.1/DTD/svg11.dtd" ><svg xmlns="http://www.w3.org/2000/svg"><metadata>Generated by Glyphter</metadata><defs><font id="Glyphter" horiz-adv-x="0"><font-face units-per-em="1024" ascent="1024" descent="0" font-family="Glyphter" font-weight="normal" /><missing-glyph horiz-adv-x="0" /><glyph unicode="&#x0041;" d="M1015.407,52.224C1015.407,52.224,766.575,301.056,766.575,301.056C833.299,377.815,873.726,477.962,873.726,587.407C873.726,828.293,677.774,1024,437.093,1024C196.207,1024,0.5,828.047,0.5,587.407C0.5,346.726,196.453,150.774,437.093,150.774C546.538,150.774,646.685,191.201,723.403,257.925C723.403,257.925,972.276,9.093,972.276,9.093C978.174,3.195,986.12,0,993.821,0C1001.562,0,1009.509,2.949,1015.407,9.093C1027.203,20.89,1027.203,40.428,1015.407,52.224C1015.407,52.224,1015.407,52.224,1015.407,52.224M61.571,587.407C61.571,794.46,230.04,962.683,436.888,962.683C643.941,962.683,812.204,794.214,812.204,587.407C812.204,380.559,643.941,211.845,436.888,211.845C230.04,211.845,61.571,380.314,61.571,587.366C61.571,587.407,61.571,587.407,61.571,587.407" class="icon-search"/><glyph unicode="&#x0042;" d="M783.531,676.393C775.217,684.708,761.7,684.708,753.386,676.393C753.386,676.393,469.828,392.836,469.828,392.836C469.828,392.836,314.226,548.397,314.226,548.397C305.911,556.712,292.354,556.712,284.039,548.397C275.724,540.082,275.724,526.566,284.039,518.251C284.039,518.251,454.714,347.576,454.714,347.576C458.892,343.439,464.34,341.35,469.828,341.35C475.276,341.35,480.723,343.439,484.86,347.576C484.86,347.576,783.531,646.247,783.531,646.247C791.846,654.562,791.846,668.079,783.531,676.393C783.531,676.393,783.531,676.393,783.531,676.393M945.236,895.113C945.236,895.113,518.569,1023.109,518.569,1023.109C514.555,1024.297,510.336,1024.297,506.322,1023.109C506.322,1023.109,79.696,895.113,79.696,895.113C70.685,892.41,64.5,884.095,64.5,874.675C64.5,874.675,64.5,405.328,64.5,405.328C64.5,216.672,352.153,48.864,506.158,0.942C508.206,0.328,510.336,0,512.466,0C514.596,0,516.767,0.328,518.815,0.942C672.82,48.905,960.473,216.672,960.473,405.328C960.473,405.328,960.473,874.675,960.473,874.675C960.473,884.095,954.288,892.369,945.236,895.113C945.236,895.113,945.236,895.113,945.236,895.113M917.794,405.328C917.794,255.542,680.438,98.014,512.466,43.703C344.494,98.014,107.138,255.542,107.138,405.328C107.138,405.328,107.138,858.783,107.138,858.783C107.138,858.783,512.466,980.389,512.466,980.389C512.466,980.389,917.794,858.783,917.794,858.783C917.794,858.783,917.794,405.328,917.794,405.328C917.794,405.328,917.794,405.328,917.794,405.328" class="icon-shield"/><glyph unicode="&#x0043;" d="M247.154,540.096C247.154,540.096,720.787,1012.413,720.787,1012.413C736.294,1027.871,761.455,1027.871,776.913,1012.364C792.42,996.809,792.371,971.696,776.864,956.189C776.864,956.189,331.416,512.009,331.416,512.009C331.416,512.009,776.864,67.78,776.864,67.78C792.371,52.322,792.42,27.161,776.962,11.654C769.16,3.901,759.017,0,748.826,0C738.683,0,728.54,3.852,720.787,11.557C720.787,11.557,247.154,483.873,247.154,483.873C239.694,491.334,235.5,501.428,235.5,512.009C235.5,522.542,239.694,532.636,247.154,540.096C247.154,540.096,247.154,540.096,247.154,540.096" class="icon-slide-left"/><glyph unicode="&#x0044;" d="M776.87,540.096C776.87,540.096,303.238,1012.413,303.238,1012.413C287.731,1027.871,262.57,1027.871,247.112,1012.364C231.605,996.809,231.654,971.696,247.16,956.189C247.16,956.189,692.608,512.009,692.608,512.009C692.608,512.009,247.16,67.78,247.16,67.78C231.654,52.322,231.605,27.161,247.063,11.654C254.865,3.901,265.008,0,275.199,0C285.342,0,295.484,3.852,303.238,11.557C303.238,11.557,776.87,483.873,776.87,483.873C784.331,491.334,788.525,501.428,788.525,512.009C788.525,522.542,784.331,532.636,776.87,540.096C776.87,540.096,776.87,540.096,776.87,540.096" class="icon-slide-right"/><glyph unicode="&#x0045;" d="M512,999.411C512,999.411,632.851,627.427,632.851,627.427C632.851,627.427,1024,627.427,1024,627.427C1024,627.427,707.575,397.527,707.575,397.527C707.575,397.527,828.425,25.5,828.425,25.5C828.425,25.5,512,255.4,512,255.4C512,255.4,195.575,25.5,195.575,25.5C195.575,25.5,316.425,397.527,316.425,397.527C316.425,397.527,0,627.427,0,627.427C0,627.427,391.149,627.427,391.149,627.427C391.149,627.427,512,999.411,512,999.411C512,999.411,512,999.411,512,999.411" class="icon-star"/><glyph unicode="&#x0046;" d="M512,999.433C512,999.433,627.322,644.511,627.322,644.511C627.322,644.511,632.863,627.443,632.863,627.443C632.863,627.443,650.822,627.443,650.822,627.443C650.822,627.443,1024,627.443,1024,627.443C1024,627.443,722.113,408.078,722.113,408.078C722.113,408.078,707.568,397.54,707.568,397.54C707.568,397.54,713.109,380.422,713.109,380.422C713.109,380.422,828.432,25.5,828.432,25.5C828.432,25.5,526.545,244.865,526.545,244.865C526.545,244.865,512,255.452,512,255.452C512,255.452,497.455,244.865,497.455,244.865C497.455,244.865,195.568,25.5,195.568,25.5C195.568,25.5,310.891,380.422,310.891,380.422C310.891,380.422,316.432,397.54,316.432,397.54C316.432,397.54,301.887,408.078,301.887,408.078C301.887,408.078,0,627.443,0,627.443C0,627.443,373.178,627.443,373.178,627.443C373.178,627.443,391.137,627.443,391.137,627.443C391.137,627.443,396.678,644.511,396.678,644.511C396.678,644.511,512,999.433,512,999.433C512,999.433,512,999.433,512,999.433" class="icon-star-empty"/><glyph unicode="&#x0047;" d="M506.776,592.384C625.97,592.384,722.601,689.015,722.601,808.209C722.601,927.369,625.97,1024,506.776,1024C387.582,1024,290.985,927.369,290.985,808.175C291.122,689.05,387.651,592.521,506.776,592.384C506.776,592.384,506.776,592.384,506.776,592.384M506.776,978.295C600.711,978.295,676.862,902.144,676.862,808.175C676.862,714.24,600.711,638.089,506.776,638.089C412.841,638.089,336.69,714.24,336.69,808.175C336.792,902.076,412.875,978.193,506.776,978.295C506.776,978.295,506.776,978.295,506.776,978.295M512.408,516.369C290.678,516.471,110.932,336.691,111,114.961C111,114.961,111,22.869,111,22.869C111,10.24,121.24,0,133.869,0C133.869,0,890.947,0,890.947,0C903.576,0,913.782,10.24,913.782,22.869C913.782,22.869,913.782,114.961,913.782,114.961C913.884,336.691,734.138,516.471,512.408,516.369C512.408,516.369,512.408,516.369,512.408,516.369M868.077,45.705C868.077,45.705,156.739,45.705,156.739,45.705C156.739,45.705,156.739,114.961,156.739,114.961C156.397,242.244,224.118,360.004,334.3,423.765C444.483,487.492,580.333,487.492,690.516,423.765C800.698,360.004,868.419,242.244,868.077,114.961C868.077,114.961,868.077,45.705,868.077,45.705C868.077,45.705,868.077,45.705,868.077,45.705" class="icon-user"/><glyph unicode="&#x0048;" d="M977.934,508.202C977.934,508.202,977.934,652.136,977.934,652.136C977.934,700.92,940.087,740.611,892.245,744.461C892.245,744.461,758.592,977.934,758.592,977.934C746.222,999.52,726.193,1014.921,702.272,1021.352C678.474,1027.701,653.57,1024.383,632.23,1011.972C632.23,1011.972,174.049,745.198,174.049,745.198C174.049,745.198,93.562,745.198,93.562,745.198C42.238,745.198,0.5,703.46,0.5,652.136C0.5,652.136,0.5,93.603,0.5,93.603C0.5,42.238,42.238,0.5,93.562,0.5C93.562,0.5,884.832,0.5,884.832,0.5C936.196,0.5,977.934,42.238,977.934,93.603C977.934,93.603,977.934,237.496,977.934,237.496C1004.968,247.163,1024.465,272.722,1024.465,303.032C1024.465,303.032,1024.465,442.666,1024.465,442.666C1024.465,472.976,1004.968,498.577,977.934,508.202C977.934,508.202,977.934,508.202,977.934,508.202M655.659,971.749C666.227,977.893,678.515,979.532,690.229,976.378C702.108,973.224,712.02,965.523,718.205,954.792C718.205,954.792,763.548,875.575,763.548,875.575C742.863,866.359,720.786,861.566,698.667,861.566C648.696,861.566,602.902,884.258,572.141,923.129C572.141,923.129,655.659,971.749,655.659,971.749C655.659,971.749,655.659,971.749,655.659,971.749M531.713,899.577C571.199,846.37,631.943,815.035,698.667,815.035C728.855,815.035,758.797,822.162,786.609,835.27C786.609,835.27,838.178,745.198,838.178,745.198C838.178,745.198,266.578,745.198,266.578,745.198C266.578,745.198,531.713,899.577,531.713,899.577C531.713,899.577,531.713,899.577,531.713,899.577M931.403,93.603C931.403,67.921,910.514,47.031,884.832,47.031C884.832,47.031,93.562,47.031,93.562,47.031C67.921,47.031,47.031,67.921,47.031,93.603C47.031,93.603,47.031,652.136,47.031,652.136C47.031,677.778,67.921,698.667,93.562,698.667C93.562,698.667,884.832,698.667,884.832,698.667C910.514,698.667,931.403,677.778,931.403,652.136C931.403,652.136,931.403,512.503,931.403,512.503C931.403,512.503,791.77,512.503,791.77,512.503C714.765,512.503,652.136,449.875,652.136,372.87C652.136,295.864,714.765,233.236,791.77,233.236C791.77,233.236,931.403,233.236,931.403,233.236C931.403,233.236,931.403,93.603,931.403,93.603C931.403,93.603,931.403,93.603,931.403,93.603C931.403,93.603,931.403,93.603,931.403,93.603M977.934,303.032C977.934,290.212,967.489,279.767,954.669,279.767C954.669,279.767,791.77,279.767,791.77,279.767C740.406,279.767,698.667,321.505,698.667,372.87C698.667,424.193,740.406,465.931,791.77,465.931C791.77,465.931,954.669,465.931,954.669,465.931C967.489,465.931,977.934,455.527,977.934,442.666C977.934,442.666,977.934,303.032,977.934,303.032C977.934,303.032,977.934,303.032,977.934,303.032C977.934,303.032,977.934,303.032,977.934,303.032M791.77,419.4C766.088,419.4,745.198,398.511,745.198,372.87C745.198,347.187,766.088,326.298,791.77,326.298C817.411,326.298,838.301,347.187,838.301,372.87C838.301,398.511,817.411,419.4,791.77,419.4C791.77,419.4,791.77,419.4,791.77,419.4" class="icon-wallet"/><glyph unicode="&#x0049;" d="M1013.76,729.304C1013.76,732.704,1003.52,807.947,971.039,843.828C931.717,886.59,888.955,891.71,866.755,893.431C866.755,893.431,859.914,893.431,859.914,893.431C721.428,903.671,514.58,905.391,511.181,905.391C509.46,905.391,300.892,903.671,164.127,889.99C164.127,889.99,159.007,889.99,159.007,889.99C135.086,888.27,92.324,883.15,54.723,840.428C20.521,804.507,10.281,727.584,10.281,724.184C10.281,724.184,0,636.98,0,549.817C0,549.817,0,469.454,0,469.454C0,383.97,10.281,296.807,10.281,295.087C10.281,291.646,20.521,216.444,53.002,180.563C88.924,139.521,131.645,134.401,159.007,130.96C164.127,130.96,167.567,130.96,172.687,129.281C251.331,122.441,500.9,119,511.181,119C512.86,119,721.428,119,859.914,134.401C859.914,134.401,865.034,134.401,865.034,134.401C888.955,136.08,931.717,141.241,969.318,183.963C1003.52,219.884,1013.76,296.807,1013.76,300.207C1013.76,300.207,1024,387.411,1024,474.574C1024,474.574,1024,554.937,1024,554.937C1024,640.421,1013.76,727.584,1013.76,729.304C1013.76,729.304,1013.76,729.304,1013.76,729.304M989.839,471.174C989.839,385.691,979.558,300.207,979.558,300.207C976.159,281.406,965.878,226.725,943.677,202.763C914.596,168.562,880.435,165.162,861.594,163.442C861.594,163.442,856.474,163.442,856.474,163.442C719.708,153.202,512.86,153.202,511.181,153.202C509.46,153.202,253.01,156.601,177.807,165.162C172.687,165.162,167.567,166.882,162.406,166.882C138.486,168.562,104.284,173.723,76.964,204.484C56.443,226.684,44.483,281.406,42.762,300.207C42.762,301.927,32.481,387.411,32.481,471.174C32.481,471.174,32.481,551.497,32.481,551.497C32.481,636.98,42.762,722.464,42.762,722.464C44.483,741.264,56.443,795.987,76.964,819.908C107.725,854.109,140.206,857.509,160.727,859.229C160.727,859.229,165.847,859.229,165.847,859.229C302.612,869.469,509.46,871.189,511.181,871.189C512.86,871.189,719.708,869.469,856.474,859.229C856.474,859.229,863.314,859.229,863.314,859.229C882.115,857.509,916.316,854.109,945.398,819.908C965.878,795.987,976.159,741.264,979.558,722.464C981.279,719.064,989.839,633.58,989.839,551.497C989.839,551.497,989.839,471.174,989.839,471.174C989.839,471.174,989.839,471.174,989.839,471.174C989.839,471.174,989.839,471.174,989.839,471.174M724.828,510.496C724.828,510.496,400.056,700.222,400.056,700.222C394.895,703.663,388.055,703.663,382.935,700.222C377.815,696.823,374.415,691.703,374.415,684.862C374.415,684.862,374.415,313.888,374.415,313.888C374.415,307.047,377.815,301.927,382.935,298.487C386.376,296.807,388.055,296.807,391.496,296.807C394.895,296.807,396.616,296.807,400.056,298.487C400.056,298.487,724.828,479.694,724.828,479.694C729.989,483.134,733.389,488.254,733.389,495.095C733.389,501.935,729.989,507.055,724.828,510.496C724.828,510.496,724.828,510.496,724.828,510.496M408.576,342.969C408.576,342.969,408.576,655.781,408.576,655.781C408.576,655.781,682.107,495.095,682.107,495.095C682.107,495.095,408.576,342.969,408.576,342.969C408.576,342.969,408.576,342.969,408.576,342.969" class="icon-youtube"/><glyph unicode="&#x004a;" d="M3.153,504.75C-1.051,508.953,-1.051,515.787,3.153,519.991C3.153,519.991,71.75,588.588,71.75,588.588C75.953,592.792,82.787,592.792,86.991,588.588C91.195,584.384,91.195,577.55,86.991,573.347C86.991,573.347,26.026,512.381,26.026,512.381C26.026,512.381,86.991,451.394,86.991,451.394C91.195,447.19,91.195,440.357,86.991,436.153C82.787,431.949,75.953,431.949,71.75,436.153C71.75,436.153,3.153,504.75,3.153,504.75C3.153,504.75,3.153,504.75,3.153,504.75M1024,501.602C1024,501.602,10.784,501.602,10.784,501.602C10.784,501.602,10.784,523.16,10.784,523.16C10.784,523.16,1024,523.16,1024,523.16C1024,523.16,1024,501.602,1024,501.602C1024,501.602,1024,501.602,1024,501.602" class="icon-arrow-left"/><glyph unicode="&#x004b;" d="M983.996,552.504C983.996,552.504,552.004,552.504,552.004,552.504C552.004,552.504,552.004,984.496,552.004,984.496C552.004,1006.614,534.118,1024.5,512,1024.5C489.882,1024.5,471.996,1006.614,471.996,984.496C471.996,984.496,471.996,552.504,471.996,552.504C471.996,552.504,40.004,552.504,40.004,552.504C17.886,552.504,0,534.618,0,512.5C0,490.382,17.886,472.496,40.004,472.496C40.004,472.496,471.996,472.496,471.996,472.496C471.996,472.496,471.996,40.504,471.996,40.504C471.996,18.386,489.882,0.5,512,0.5C534.118,0.5,552.004,18.386,552.004,40.504C552.004,40.504,552.004,472.496,552.004,472.496C552.004,472.496,983.996,472.496,983.996,472.496C1006.114,472.496,1024,490.382,1024,512.5C1024,534.618,1006.114,552.504,983.996,552.504C983.996,552.504,983.996,552.504,983.996,552.504" class="icon-plus"/><glyph unicode="&#x004c;" d="M1014.338,488.876C1027.221,501.758,1027.221,522.7,1014.338,535.583C1014.338,535.583,804.124,745.796,804.124,745.796C791.242,758.679,770.3,758.679,757.417,745.796C744.535,732.914,744.535,711.972,757.417,699.09C757.417,699.09,944.245,512.262,944.245,512.262C944.245,512.262,757.417,325.369,757.417,325.369C744.535,312.486,744.535,291.544,757.417,278.662C770.3,265.779,791.242,265.779,804.124,278.662C804.124,278.662,1014.338,488.876,1014.338,488.876C1014.338,488.876,1014.338,488.876,1014.338,488.876M0,479.23C0,479.23,990.952,479.23,990.952,479.23C990.952,479.23,990.952,545.294,990.952,545.294C990.952,545.294,0,545.294,0,545.294C0,545.294,0,479.23,0,479.23C0,479.23,0,479.23,0,479.23" class="icon-arrow-right"/><glyph unicode="&#x004d;" d="M823.656,245.123C762.317,245.123,712.345,195.184,712.345,133.811C712.345,72.472,762.283,22.5,823.656,22.5C884.995,22.5,934.967,72.472,934.967,133.811C934.967,195.184,884.995,245.123,823.656,245.123C823.656,245.123,823.656,245.123,823.656,245.123M823.656,67.045C786.825,67.045,756.856,96.981,756.856,133.811C756.856,170.642,786.825,200.612,823.656,200.612C860.487,200.612,890.422,170.642,890.422,133.811C890.422,96.981,860.487,67.045,823.656,67.045C823.656,67.045,823.656,67.045,823.656,67.045M378.411,245.123C317.072,245.123,267.134,195.184,267.134,133.811C267.134,72.472,317.072,22.5,378.411,22.5C439.784,22.5,489.722,72.472,489.722,133.811C489.722,195.15,439.784,245.123,378.411,245.123C378.411,245.123,378.411,245.123,378.411,245.123M378.411,67.045C341.614,67.045,311.644,96.981,311.644,133.811C311.644,170.642,341.614,200.612,378.411,200.612C415.241,200.612,445.211,170.642,445.211,133.811C445.211,96.981,415.241,67.045,378.411,67.045C378.411,67.045,378.411,67.045,378.411,67.045M912.712,334.179C912.712,334.179,398.857,334.179,398.857,334.179C346.017,334.179,300.107,371.794,289.73,423.644C289.73,423.644,177.634,984.126,177.634,984.126C175.552,994.537,166.404,1002.012,155.822,1002.012C155.822,1002.012,22.255,1002.012,22.255,1002.012C9.967,1002.012,0,992.045,0,979.757C0,967.469,9.967,957.501,22.255,957.501C22.255,957.501,137.56,957.501,137.56,957.501C137.56,957.501,246.073,414.906,246.073,414.906C260.58,342.302,324.854,289.634,398.857,289.634C398.857,289.634,912.712,289.634,912.712,289.634C925,289.634,934.967,299.635,934.967,311.923C934.967,324.211,925,334.179,912.712,334.179C912.712,334.179,912.712,334.179,912.712,334.179M1018.425,860.902C1014.227,865.681,1008.151,868.446,1001.734,868.446C1001.734,868.446,200.333,868.446,200.333,868.446C188.045,868.446,178.078,858.478,178.078,846.19C178.078,833.902,188.045,823.935,200.333,823.935C200.333,823.935,976.543,823.935,976.543,823.935C976.543,823.935,944.9,570.762,944.9,570.762C940.702,537.413,912.2,512.256,878.578,512.256C878.578,512.256,267.134,512.256,267.134,512.256C254.845,512.256,244.844,502.289,244.844,490.001C244.844,477.712,254.845,467.745,267.134,467.745C267.134,467.745,878.578,467.745,878.578,467.745C934.592,467.745,982.107,509.628,989.07,565.232C989.07,565.232,1023.818,843.425,1023.818,843.425C1024.638,849.74,1022.658,856.157,1018.425,860.902C1018.425,860.902,1018.425,860.902,1018.425,860.902" class="icon-cart"/><glyph unicode="&#x004e;" d="M587.034,511.777C587.034,511.777,1007.898,930.798,1007.898,930.798C1028.071,950.791,1028.071,983.15,1007.873,1003.092C987.751,1023.111,955.06,1023.111,934.938,1003.092C934.938,1003.092,514.458,584.455,514.458,584.455C514.458,584.455,90.087,1009.338,90.087,1009.338C69.94,1029.537,37.249,1029.537,17.127,1009.338C-2.994,989.089,-2.994,956.321,17.127,936.122C17.127,936.122,441.191,511.521,441.191,511.521C441.191,511.521,15.591,87.79,15.591,87.79C-4.53,67.796,-4.53,35.438,15.591,15.495C35.738,-4.498,68.43,-4.498,88.551,15.495C88.551,15.495,513.793,438.842,513.793,438.842C513.793,438.842,936.474,15.649,936.474,15.649C956.596,-4.55,989.287,-4.55,1009.409,15.649C1029.53,35.898,1029.53,68.666,1009.409,88.865C1009.409,88.865,587.034,511.777,587.034,511.777C587.034,511.777,587.034,511.777,587.034,511.777" class="icon-close"/><glyph unicode="&#x004f;" d="M735.661,269.172C735.661,269.172,53.403,269.172,53.403,269.172C39.258,269.172,25.691,274.765,15.696,284.76C5.701,294.719,0.036,308.286,0,322.394C0,322.394,0,827.521,0,827.521C0.036,841.701,5.665,855.268,15.66,865.263C25.691,875.258,39.258,880.887,53.403,880.923C53.403,880.923,853.58,880.923,853.58,880.923C867.724,880.887,881.292,875.258,891.287,865.263C901.318,855.268,906.947,841.701,906.947,827.521C906.947,827.521,906.947,431.546,906.947,431.546C906.947,427.649,905.431,423.932,902.689,421.19C899.947,418.447,896.194,416.896,892.333,416.896C888.436,416.896,884.72,418.447,881.977,421.19C879.235,423.932,877.683,427.649,877.683,431.546C877.683,431.546,877.683,827.521,877.683,827.521C877.683,833.943,875.158,840.078,870.611,844.588C866.101,849.098,859.967,851.66,853.58,851.66C853.58,851.66,53.403,851.66,53.403,851.66C47.016,851.66,40.882,849.098,36.336,844.588C31.825,840.078,29.263,833.943,29.263,827.521C29.263,827.521,29.263,322.394,29.263,322.394C29.299,316.044,31.861,309.91,36.372,305.435C40.882,300.925,47.016,298.399,53.403,298.435C53.403,298.435,735.661,298.435,735.661,298.435C739.558,298.435,743.274,296.884,746.016,294.141C748.759,291.399,750.274,287.683,750.274,283.786C750.274,279.925,748.759,276.208,746.016,273.466C743.274,270.724,739.558,269.172,735.661,269.172C735.661,269.172,735.661,269.172,735.661,269.172M892.333,643.425C892.333,643.425,14.65,643.425,14.65,643.425C10.753,643.425,7.036,644.977,4.294,647.683C1.552,650.425,0,654.178,0,658.039C0,658.039,0,756.581,0,756.581C0,760.442,1.552,764.195,4.294,766.937C7.036,769.68,10.753,771.195,14.65,771.195C14.65,771.195,892.333,771.195,892.333,771.195C896.194,771.195,899.947,769.68,902.689,766.937C905.431,764.195,906.947,760.442,906.947,756.581C906.947,756.581,906.947,658.039,906.947,658.039C906.947,654.178,905.431,650.425,902.689,647.683C899.947,644.977,896.194,643.425,892.333,643.425C892.333,643.425,892.333,643.425,892.333,643.425M29.263,672.688C29.263,672.688,877.719,672.688,877.719,672.688C877.719,672.688,877.719,741.968,877.719,741.968C877.719,741.968,29.263,741.968,29.263,741.968C29.263,741.968,29.263,672.688,29.263,672.688C29.263,672.688,29.263,672.688,29.263,672.688M292.597,391.71C292.597,391.71,106.625,391.71,106.625,391.71C102.764,391.71,99.048,393.261,96.306,396.004C93.563,398.746,92.012,402.463,92.012,406.36C92.012,406.36,92.012,494.474,92.012,494.474C92.012,498.371,93.563,502.088,96.306,504.83C99.048,507.573,102.764,509.124,106.625,509.124C106.625,509.124,292.597,509.124,292.597,509.124C296.458,509.124,300.211,507.573,302.953,504.83C305.695,502.088,307.211,498.371,307.211,494.474C307.211,494.474,307.211,406.36,307.211,406.36C307.211,402.463,305.695,398.746,302.953,396.004C300.211,393.261,296.458,391.71,292.597,391.71C292.597,391.71,292.597,391.71,292.597,391.71M121.275,420.973C121.275,420.973,277.947,420.973,277.947,420.973C277.947,420.973,277.947,479.861,277.947,479.861C277.947,479.861,121.275,479.861,121.275,479.861C121.275,479.861,121.275,420.973,121.275,420.973C121.275,420.973,121.275,420.973,121.275,420.973M872.235,144C842.214,144,812.878,152.913,787.909,169.583C762.975,186.253,743.527,209.96,732.016,237.708C720.542,265.419,717.547,295.946,723.392,325.389C729.238,354.833,743.707,381.859,764.924,403.076C786.141,424.329,813.167,438.762,842.611,444.608C872.054,450.489,902.581,447.494,930.292,435.984C958.04,424.509,981.747,405.061,998.417,380.091C1015.087,355.158,1024,325.822,1024,295.801C1023.964,255.533,1007.943,216.96,979.51,188.526C951.04,160.057,912.467,144.036,872.235,144C872.235,144,872.235,144,872.235,144C872.235,144,872.235,144,872.235,144M872.235,418.303C848.023,418.303,824.317,411.087,804.182,397.628C784.012,384.169,768.316,365.045,759.042,342.637C749.769,320.266,747.351,295.621,752.078,271.878C756.805,248.1,768.496,226.269,785.599,209.13C802.739,192.026,824.569,180.336,848.348,175.609C872.127,170.882,896.735,173.335,919.143,182.609C941.514,191.882,960.638,207.578,974.097,227.713C987.556,247.883,994.737,271.553,994.737,295.801C994.701,328.276,981.783,359.416,958.834,382.364C935.849,405.349,904.71,418.267,872.235,418.303C872.235,418.303,872.235,418.303,872.235,418.303C872.235,418.303,872.235,418.303,872.235,418.303M844.848,238.213C840.951,238.213,837.234,239.728,834.492,242.471C834.492,242.471,803.352,273.61,803.352,273.61C800.718,276.389,799.239,280.069,799.275,283.894C799.311,287.755,800.827,291.399,803.533,294.105C806.239,296.848,809.919,298.363,813.744,298.399C817.605,298.435,821.286,296.956,824.064,294.286C824.064,294.286,844.848,273.538,844.848,273.538C844.848,273.538,920.406,349.096,920.406,349.096C923.148,351.73,926.828,353.209,930.689,353.173C934.514,353.137,938.195,351.622,940.901,348.915C943.607,346.173,945.159,342.529,945.195,338.668C945.231,334.843,943.751,331.163,941.081,328.384C941.081,328.384,855.168,242.471,855.168,242.471C852.425,239.728,848.709,238.213,844.848,238.213C844.848,238.213,844.848,238.213,844.848,238.213C844.848,238.213,844.848,238.213,844.848,238.213" class="icon-credit-card"/><glyph unicode="&#x0050;" d="M939.18,1024C939.18,1024,85.861,1024,85.861,1024C38.06,1024,0.5,986.44,0.5,938.68C0.5,938.68,0.5,85.32,0.5,85.32C0.5,37.56,38.06,0,85.861,0C85.861,0,478.38,0,478.38,0C478.38,0,683.18,0,683.18,0C683.18,0,939.18,0,939.18,0C986.981,0,1024.5,37.56,1024.5,85.32C1024.5,85.32,1024.5,938.68,1024.5,938.68C1024.5,986.44,986.981,1024,939.18,1024C939.18,1024,939.18,1024,939.18,1024M512.5,34.12C512.5,34.12,512.5,375.48,512.5,375.48C512.5,375.48,375.98,375.48,375.98,375.48C375.98,375.48,375.98,512,375.98,512C375.98,512,512.5,512,512.5,512C512.5,512,512.5,631.48,512.5,631.48C512.5,728.76,587.621,810.68,683.18,819.2C683.18,819.2,836.78,819.2,836.78,819.2C836.78,819.2,836.78,682.68,836.78,682.68C836.78,682.68,700.261,682.68,700.261,682.68C671.22,682.68,649.061,660.48,649.061,631.48C649.061,631.48,649.061,512,649.061,512C649.061,512,819.7,512,819.7,512C819.7,512,819.7,375.48,819.7,375.48C819.7,375.48,649.061,375.48,649.061,375.48C649.061,375.48,649.061,34.12,649.061,34.12C649.061,34.12,512.5,34.12,512.5,34.12C512.5,34.12,512.5,34.12,512.5,34.12C512.5,34.12,512.5,34.12,512.5,34.12M990.38,85.32C990.38,56.32,968.18,34.12,939.18,34.12C939.18,34.12,683.18,34.12,683.18,34.12C683.18,34.12,683.18,341.32,683.18,341.32C683.18,341.32,853.861,341.32,853.861,341.32C853.861,341.32,853.861,546.12,853.861,546.12C853.861,546.12,683.18,546.12,683.18,546.12C683.18,546.12,683.18,631.48,683.18,631.48C683.18,641.72,690.021,648.52,700.261,648.52C700.261,648.52,870.9,648.52,870.9,648.52C870.9,648.52,870.9,853.32,870.9,853.32C870.9,853.32,681.46,853.32,681.46,853.32C567.141,843.08,478.38,745.8,478.38,631.48C478.38,631.48,478.38,546.12,478.38,546.12C478.38,546.12,341.861,546.12,341.861,546.12C341.861,546.12,341.861,341.32,341.861,341.32C341.861,341.32,478.38,341.32,478.38,341.32C478.38,341.32,478.38,34.12,478.38,34.12C478.38,34.12,85.861,34.12,85.861,34.12C56.82,34.12,34.661,56.32,34.661,85.32C34.661,85.32,34.661,938.68,34.661,938.68C34.661,967.68,56.82,989.88,85.861,989.88C85.861,989.88,939.18,989.88,939.18,989.88C968.18,989.88,990.38,967.68,990.38,938.68C990.38,938.68,990.38,85.32,990.38,85.32C990.38,85.32,990.38,85.32,990.38,85.32C990.38,85.32,990.38,85.32,990.38,85.32" class="icon-facebook"/><glyph unicode="&#x0051;" d="M32,704C32,704,992,704,992,704C1009.664,704,1024,718.336,1024,736C1024,753.664,1009.664,768,992,768C992,768,32,768,32,768C14.336,768,0,753.664,0,736C0,718.336,14.336,704,32,704C32,704,32,704,32,704M992,544C992,544,32,544,32,544C14.336,544,0,529.664,0,512C0,494.336,14.336,480,32,480C32,480,992,480,992,480C1009.664,480,1024,494.336,1024,512C1024,529.664,1009.664,544,992,544C992,544,992,544,992,544M992,320C992,320,352,320,352,320C334.336,320,320,305.664,320,288C320,270.336,334.336,256,352,256C352,256,992,256,992,256C1009.664,256,1024,270.336,1024,288C1024,305.664,1009.664,320,992,320C992,320,992,320,992,320" class="icon-hamburg"/><glyph unicode="&#x0052;" d="M732.16,1024C732.16,1024,291.84,1024,291.84,1024C131.4,1024,0,892.6,0,732.16C0,732.16,0,291.84,0,291.84C0,131.4,131.4,0,291.84,0C291.84,0,732.16,0,732.16,0C892.6,0,1024,131.4,1024,291.84C1024,291.84,1024,732.16,1024,732.16C1024,892.6,892.6,1024,732.16,1024C732.16,1024,732.16,1024,732.16,1024M989.88,291.84C989.88,150.2,873.8,34.12,732.16,34.12C732.16,34.12,291.84,34.12,291.84,34.12C150.2,34.12,34.12,150.2,34.12,291.84C34.12,291.84,34.12,732.16,34.12,732.16C34.12,873.8,150.2,989.88,291.84,989.88C291.84,989.88,732.16,989.88,732.16,989.88C873.8,989.88,989.88,873.8,989.88,732.16C989.88,732.16,989.88,291.84,989.88,291.84C989.88,291.84,989.88,291.84,989.88,291.84M512,785.039C361.8,785.039,238.92,662.159,238.92,512C238.92,361.8,361.8,238.92,512,238.92C662.2,238.92,785.08,361.8,785.08,512C785.08,662.2,662.2,785.08,512,785.08C512,785.08,512,785.08,512,785.08M512,273.08C380.6,273.08,273.08,380.6,273.08,512C273.08,643.4,380.6,750.92,512,750.92C643.4,750.92,750.92,643.4,750.92,512C750.92,380.6,643.4,273.08,512,273.08C512,273.08,512,273.08,512,273.08M785.08,836.28C756.04,836.28,733.88,814.08,733.88,785.08C733.88,756.081,756.04,733.88,785.08,733.88C814.08,733.88,836.28,756.081,836.28,785.08C836.28,814.08,814.08,836.28,785.08,836.28C785.08,836.28,785.08,836.28,785.08,836.28" class="icon-instagram"/><glyph unicode="&#x0053;" d="M983.996,552.009C983.996,552.009,40.004,552.009,40.004,552.009C17.886,552.009,0,534.123,0,512.004C0,489.886,17.886,472,40.004,472C40.004,472,983.996,472,983.996,472C1006.114,472,1024,489.886,1024,512.004C1024,534.123,1006.114,552.009,983.996,552.009C983.996,552.009,983.996,552.009,983.996,552.009" class="icon-minus"/><glyph unicode="&#x0054;" d="M725.738,0.41C730.346,0.205,734.749,0,739.391,0C788.716,0,829.882,17.818,862.207,52.908C862.412,53.113,862.822,53.523,863.026,53.728C874.598,67.586,887.603,80.182,901.462,93.426C910.917,102.437,920.577,111.688,929.589,121.348C972.632,166.269,972.427,223.171,929.179,266.419C929.179,266.419,809.504,386.061,809.504,386.061C788.921,407.497,764.378,418.83,738.333,418.83C712.494,418.83,687.746,407.702,666.514,386.504C666.514,386.504,595.788,315.744,595.788,315.744C589.473,319.328,582.987,322.468,576.673,325.608C568.685,329.602,561.346,333.391,554.827,337.351C489.971,378.517,431.192,432.244,374.904,501.333C346.572,537.037,327.901,566.837,314.657,597.489C333.157,614.283,350.361,631.692,366.951,648.725C373.026,654.801,379.102,661.116,385.417,667.397C430.338,712.318,430.338,767.957,385.417,812.673C385.417,812.673,325.989,872.101,325.989,872.101C319.06,879.03,312.37,885.96,305.645,892.684C292.401,906.099,278.781,920.162,265.127,932.758C244.544,953.341,220.207,964.059,194.367,964.059C168.766,964.059,143.984,953.341,122.582,932.758C122.582,932.758,48.032,858.447,48.032,858.447C20.759,831.14,5.194,797.995,1.849,759.56C-1.94,711.703,6.9,660.877,29.566,599.572C64.622,504.917,117.325,416.918,195.425,322.878C290.524,209.517,404.737,119.88,535.302,56.663C585.07,32.94,651.632,5.223,725.738,0.41C725.738,0.41,725.738,0.41,725.738,0.41M235.089,355.852C160.778,445.284,111.01,528.401,78.071,617.424C57.692,672.21,50.149,714.844,53.289,755.361C55.61,781.611,65.68,803.457,84.556,822.128C84.556,822.128,158.662,896.234,158.662,896.234C170.029,907.157,182.386,912.823,194.572,912.823C206.553,912.823,218.295,907.157,229.628,896.029C242.872,883.638,255.672,870.633,269.121,856.979C275.812,850.05,282.741,842.916,289.909,835.987C289.909,835.987,349.303,776.559,349.303,776.559C373.675,752.221,373.675,728.293,349.303,703.921C343.022,697.64,336.707,691.325,330.631,685.044C312.131,666.338,294.927,648.725,275.812,631.692C275.402,631.282,275.197,631.078,274.788,630.668C257.789,613.635,260.28,597.285,264.479,585.099C264.684,584.484,264.923,584.04,265.127,583.426C280.454,546.458,302.061,511.402,335.24,469.417C395.077,395.721,458.055,338.409,527.758,294.102C536.36,288.675,545.405,284.033,554.212,279.629C562.2,275.636,569.538,271.847,576.058,267.887C576.877,267.443,577.526,267.034,578.345,266.624C585.07,263.245,591.589,261.572,598.314,261.572C614.869,261.572,625.382,272.086,628.728,275.636C628.728,275.636,703.277,350.185,703.277,350.185C714.61,361.518,726.796,367.389,738.743,367.389C753.455,367.389,765.402,358.139,773.185,350.185C773.185,350.185,893.27,230.1,893.27,230.1C922.659,200.676,909.21,174.256,892.655,156.814C884.258,147.802,875.417,139.405,866.201,130.359C852.138,116.91,837.63,102.847,824.42,87.111C801.721,62.773,774.857,51.406,739.801,51.406C736.456,51.406,732.872,51.645,729.527,51.85C664.227,56.049,603.741,81.445,558.206,103.086C433.922,162.89,325.375,247.918,235.089,355.852C235.089,355.852,235.089,355.852,235.089,355.852M563.224,836.567C549.16,838.888,535.95,829.433,533.629,815.574C531.342,801.511,540.763,788.301,554.622,785.98C612.377,776.115,664.842,748.807,706.827,707.027C748.608,665.246,775.915,612.577,785.78,554.821C787.862,542.226,798.785,533.419,811.176,533.419C812.644,533.419,814.112,533.624,815.58,533.829C829.643,536.15,839.098,549.565,836.572,563.423C825.035,631.658,792.709,694.022,743.351,743.346C693.617,792.909,631.458,825.03,563.224,836.567C563.224,836.567,563.224,836.567,563.224,836.567M998.028,542.26C999.496,542.26,1000.964,542.465,1002.431,542.669C1016.529,544.956,1025.95,558.405,1023.458,572.264C1004.343,685.215,951.025,787.891,869.341,869.541C787.453,951.225,684.81,1004.543,571.86,1023.658C557.796,1025.945,544.552,1016.524,542.265,1002.665C539.944,988.568,549.399,975.358,563.258,973.036C665.49,955.628,758.712,907.328,832.817,833.222C906.923,759.116,955.224,665.895,972.632,563.662C974.748,551.066,985.671,542.26,998.028,542.26C998.028,542.26,998.028,542.26,998.028,542.26" class="icon-phone"/></font>
</defs>
</svg>
