<svg width="30" height="30" viewBox="0 0 30 30" fill="none" xmlns="http://www.w3.org/2000/svg">
<path d="M24.1305 22.8261C22.3331 22.8261 20.8696 24.2896 20.8696 26.0869C20.8696 27.8843 22.333 29.3479 24.1305 29.3479C25.9279 29.3479 27.3913 27.8844 27.3913 26.0869C27.3913 24.2895 25.9279 22.8261 24.1305 22.8261ZM24.1305 28.0435C23.0518 28.0435 22.174 27.1657 22.174 26.0869C22.174 25.0082 23.0518 24.1304 24.1305 24.1304C25.2092 24.1304 26.087 25.0082 26.087 26.0869C26.087 27.1657 25.2091 28.0435 24.1305 28.0435Z" fill="white"/>
<path d="M11.087 22.8261C9.28965 22.8261 7.82617 24.2896 7.82617 26.0869C7.82617 27.8843 9.28965 29.3479 11.087 29.3479C12.8844 29.3479 14.3479 27.8844 14.3479 26.087C14.3479 24.2896 12.8845 22.8261 11.087 22.8261ZM11.087 28.0435C10.0083 28.0435 9.1305 27.1657 9.1305 26.0869C9.1305 25.0082 10.0083 24.1304 11.087 24.1304C12.1657 24.1304 13.0436 25.0082 13.0436 26.0869C13.0436 27.1657 12.1657 28.0435 11.087 28.0435Z" fill="white"/>
<path d="M26.7391 20.2174H11.6856C10.1374 20.2174 8.79262 19.1152 8.48869 17.5957L5.20436 1.17649C5.14303 0.871269 4.87566 0.652138 4.56524 0.652138H0.652195C0.292195 0.652138 0 0.944333 0 1.30433C0 1.66433 0.292195 1.95653 0.652195 1.95653H4.03044L7.20912 17.8526C7.63436 19.9787 9.51782 21.5218 11.6856 21.5218H26.7391C27.0991 21.5218 27.3913 21.2296 27.3913 20.8696C27.3913 20.5096 27.0991 20.2174 26.7391 20.2174Z" fill="white"/>
<path d="M29.8369 4.78566C29.713 4.64608 29.5356 4.56525 29.3478 4.56525H5.86948C5.50948 4.56525 5.21729 4.85744 5.21729 5.21744C5.21729 5.57744 5.50948 5.86958 5.86948 5.86958H28.6095L27.6821 13.2861C27.5595 14.2631 26.7247 15 25.7399 15H7.826C7.466 15 7.17381 15.2922 7.17381 15.6522C7.17381 16.0122 7.466 16.3044 7.826 16.3044H25.7399C27.3808 16.3044 28.7726 15.077 28.976 13.4479L29.9947 5.29827C30.0182 5.11301 29.9608 4.92519 29.8369 4.78566Z" fill="white"/>
</svg>
