<svg width="40" height="40" viewBox="0 0 40 40" fill="none" xmlns="http://www.w3.org/2000/svg">
<path d="M22.9112 20.028L39.3507 3.66009C40.1388 2.87902 40.1388 1.6146 39.3507 0.83553C38.5645 0.054462 37.2876 0.054462 36.5014 0.83553L20.076 17.1895L3.49876 0.591778C2.7126 -0.197259 1.43566 -0.197259 0.649498 0.591778C-0.136667 1.38281 -0.136667 2.66317 0.649498 3.45221L17.2147 20.0379L0.589623 36.5896C-0.196541 37.3707 -0.196541 38.6351 0.589623 39.4142C1.37579 40.1953 2.65272 40.1953 3.43889 39.4142L20.0498 22.8765L36.5611 39.4082C37.3473 40.1973 38.6242 40.1973 39.4104 39.4082C40.1965 38.6172 40.1965 37.3368 39.4104 36.5478L22.9112 20.028Z" fill="white"/>
</svg>
