<svg width="30" height="30" viewBox="0 0 30 30" fill="none" xmlns="http://www.w3.org/2000/svg">
<path d="M21.1984 21.7426H2.29028C1.89857 21.7427 1.5228 21.5875 1.24541 21.3109C0.968007 21.0344 0.81162 20.6591 0.810547 20.2674V6.2683C0.811083 5.87602 0.967155 5.49996 1.24454 5.22257C1.52193 4.94518 1.89799 4.78911 2.29028 4.78857H24.466C24.8582 4.78911 25.2343 4.94518 25.5117 5.22257C25.7891 5.49996 25.9451 5.87602 25.9457 6.2683V17.243C25.9457 17.3506 25.903 17.4537 25.8269 17.5297C25.7509 17.6057 25.6478 17.6484 25.5403 17.6484C25.4328 17.6484 25.3296 17.6057 25.2536 17.5297C25.1776 17.4537 25.1349 17.3506 25.1349 17.243V6.2683C25.1347 6.09096 25.0641 5.92094 24.9387 5.79554C24.8133 5.67014 24.6433 5.5996 24.466 5.59939H2.29028C2.11293 5.5996 1.94292 5.67014 1.81752 5.79554C1.69212 5.92094 1.62157 6.09096 1.62136 6.2683V20.2674C1.62211 20.4441 1.69297 20.6134 1.81838 20.7379C1.94379 20.8625 2.11351 20.9322 2.29028 20.9318H21.1984C21.3059 20.9318 21.409 20.9745 21.4851 21.0506C21.5611 21.1266 21.6038 21.2297 21.6038 21.3372C21.6038 21.4447 21.5611 21.5479 21.4851 21.6239C21.409 21.6999 21.3059 21.7426 21.1984 21.7426Z" fill="#0C0C0D"/>
<path d="M25.5403 11.3708H1.21595C1.10843 11.3708 1.00532 11.3281 0.929287 11.2521C0.853259 11.1761 0.810547 11.073 0.810547 10.9654V8.23463C0.810547 8.12711 0.853259 8.02399 0.929287 7.94796C1.00532 7.87194 1.10843 7.82922 1.21595 7.82922H25.5403C25.6478 7.82922 25.7509 7.87194 25.8269 7.94796C25.903 8.02399 25.9457 8.12711 25.9457 8.23463V10.9654C25.9457 11.073 25.903 11.1761 25.8269 11.2521C25.7509 11.3281 25.6478 11.3708 25.5403 11.3708ZM1.62136 10.56H25.1349V8.64003H1.62136V10.56Z" fill="#0C0C0D"/>
<path d="M8.91927 18.3461H3.76576C3.65824 18.3461 3.55512 18.3034 3.47909 18.2274C3.40306 18.1514 3.36035 18.0483 3.36035 17.9407V15.4982C3.36035 15.3907 3.40306 15.2875 3.47909 15.2115C3.55512 15.1355 3.65824 15.0928 3.76576 15.0928H8.91927C9.02679 15.0928 9.12991 15.1355 9.20594 15.2115C9.28196 15.2875 9.32468 15.3907 9.32468 15.4982V17.9407C9.32468 18.0483 9.28196 18.1514 9.20594 18.2274C9.12991 18.3034 9.02679 18.3461 8.91927 18.3461ZM4.17116 17.5353H8.51387V15.9036H4.17116V17.5353Z" fill="#0C0C0D"/>
<path d="M24.9834 25.2113C24.1516 25.2113 23.3384 24.9647 22.6467 24.5025C21.955 24.0404 21.4159 23.3835 21.0976 22.615C20.7792 21.8464 20.6959 21.0007 20.8581 20.1849C21.0204 19.369 21.4209 18.6195 22.0091 18.0313C22.5973 17.443 23.3467 17.0424 24.1626 16.8801C24.9785 16.7177 25.8242 16.801 26.5927 17.1192C27.3613 17.4375 28.0182 17.9766 28.4804 18.6682C28.9427 19.3598 29.1894 20.173 29.1895 21.0049C29.1883 22.1201 28.7448 23.1892 27.9563 23.9778C27.1678 24.7664 26.0986 25.2101 24.9834 25.2113V25.2113ZM24.9834 17.61C24.3119 17.61 23.6554 17.8091 23.0971 18.1822C22.5387 18.5553 22.1035 19.0856 21.8466 19.7061C21.5896 20.3265 21.5224 21.0092 21.6534 21.6678C21.7845 22.3264 22.1079 22.9314 22.5827 23.4062C23.0576 23.881 23.6626 24.2044 24.3213 24.3353C24.9799 24.4663 25.6626 24.399 26.283 24.142C26.9034 23.8849 27.4336 23.4497 27.8067 22.8913C28.1797 22.3329 28.3788 21.6764 28.3787 21.0049C28.3776 20.1047 28.0195 19.2418 27.383 18.6054C26.7465 17.9689 25.8835 17.611 24.9834 17.61V17.61Z" fill="#0C0C0D"/>
<path d="M24.2241 22.601C24.1166 22.6009 24.0135 22.5582 23.9374 22.4822L23.0747 21.6195C23.0009 21.543 22.96 21.4406 22.961 21.3343C22.9619 21.228 23.0045 21.1263 23.0797 21.0512C23.1548 20.976 23.2565 20.9334 23.3628 20.9324C23.4691 20.9315 23.5715 20.9724 23.648 21.0462L24.2241 21.6219L26.318 19.528C26.3944 19.4541 26.4968 19.4133 26.6031 19.4142C26.7094 19.4151 26.8111 19.4578 26.8863 19.5329C26.9614 19.6081 27.0041 19.7098 27.005 19.8161C27.0059 19.9224 26.9651 20.0248 26.8912 20.1012L24.5107 22.4822C24.4347 22.5582 24.3316 22.6009 24.2241 22.601V22.601Z" fill="#0C0C0D"/>
</svg>
