<svg width="30" height="30" viewBox="0 0 30 30" fill="none" xmlns="http://www.w3.org/2000/svg">
<path d="M21.2493 29.9873C21.3846 29.9935 21.5137 29.9996 21.649 29.9996C23.0944 29.9996 24.2999 29.4769 25.2471 28.4497C25.2532 28.4436 25.2655 28.4313 25.2717 28.4251C25.61 28.0192 25.9913 27.6502 26.3972 27.2627C26.674 26.9982 26.9569 26.7276 27.2214 26.4447C28.4822 25.1285 28.4761 23.4617 27.2091 22.1947L23.7033 18.6889C23.1006 18.0615 22.3809 17.7294 21.6183 17.7294C20.8618 17.7294 20.136 18.0554 19.5148 18.6766L17.4421 20.7493C17.2576 20.6447 17.0669 20.5525 16.8824 20.4602C16.6487 20.3434 16.4334 20.2327 16.2428 20.1158C14.3423 18.9103 12.6201 17.3358 10.9718 15.3123C10.1415 14.2667 9.59408 13.3933 9.2066 12.4953C9.74784 12.0033 10.2522 11.4928 10.7381 10.9946C10.9164 10.8163 11.0948 10.6317 11.2793 10.4472C12.5955 9.13103 12.5955 7.50115 11.2793 6.19109L9.53872 4.45051C9.33576 4.24754 9.13894 4.04457 8.94212 3.84776C8.55464 3.45413 8.15486 3.04204 7.75508 2.67301C7.15233 2.07027 6.43887 1.75659 5.68236 1.75659C4.932 1.75659 4.20625 2.07027 3.5789 2.67301L1.39547 4.85029C0.595909 5.64985 0.140772 6.62163 0.0423644 7.74717C-0.0683444 9.14948 0.189976 10.6379 0.854229 12.4338C1.88136 15.2077 3.42513 17.7848 5.71312 20.5402C8.49929 23.8615 11.8452 26.4877 15.6708 28.339C17.1284 29.034 19.0781 29.8459 21.2493 29.9873ZM6.87556 19.5746C4.69829 16.9545 3.24062 14.5189 2.27499 11.9111C1.67839 10.3058 1.45698 9.05722 1.54923 7.87018C1.61689 7.10137 1.91211 6.46172 2.46566 5.91432L4.63678 3.7432C4.96891 3.42337 5.33179 3.25731 5.68851 3.25731C6.03909 3.25731 6.38352 3.42337 6.71565 3.74935C7.10313 4.11223 7.47831 4.49356 7.87194 4.89334C8.06875 5.09631 8.27172 5.30542 8.48084 5.50839L10.2214 7.24898C10.9349 7.96244 10.9349 8.66359 10.2214 9.37705C10.0369 9.56156 9.8524 9.74608 9.67403 9.93059C9.13279 10.478 8.62845 10.9946 8.06875 11.4928C8.05645 11.5051 8.0503 11.5113 8.038 11.5236C7.53981 12.0218 7.61362 12.5015 7.73663 12.8582C7.74278 12.8767 7.74893 12.889 7.75508 12.9074C8.20407 13.9899 8.83757 15.017 9.80934 16.2471C11.5622 18.406 13.4074 20.0851 15.4493 21.3828C15.7015 21.5427 15.966 21.678 16.2243 21.8072C16.458 21.924 16.6733 22.0348 16.864 22.1516C16.8886 22.1639 16.907 22.1762 16.9316 22.1885C17.1284 22.2869 17.3191 22.3361 17.5159 22.3361C18.0018 22.3361 18.3093 22.0286 18.4077 21.924L20.5912 19.7406C20.9233 19.4085 21.28 19.2363 21.6306 19.2363C22.0611 19.2363 22.4117 19.5069 22.6393 19.7406L26.1573 23.2587C27.0184 24.1198 26.6248 24.8947 26.1389 25.4052C25.8929 25.6697 25.6346 25.9157 25.3639 26.1802C24.9519 26.5738 24.5275 26.9859 24.14 27.4472C23.4757 28.1606 22.6885 28.4928 21.6613 28.4928C21.5629 28.4928 21.4584 28.4866 21.36 28.4805C19.4472 28.3575 17.6758 27.6133 16.3412 26.9797C12.7001 25.2269 9.52027 22.7359 6.87556 19.5746Z" fill="white"/>
<path d="M16.4887 5.49114C16.0766 5.42348 15.6892 5.70025 15.6215 6.10619C15.5539 6.51827 15.8306 6.90575 16.2366 6.97341C17.9279 7.26248 19.4656 8.06204 20.6957 9.28599C21.9196 10.5099 22.7192 12.0537 23.0082 13.7451C23.0697 14.1141 23.3896 14.3724 23.7524 14.3724C23.7955 14.3724 23.8386 14.3663 23.8816 14.3601C24.2937 14.2925 24.5705 13.8989 24.4967 13.4929C24.1584 11.494 23.2112 9.66732 21.7658 8.22196C20.3082 6.77044 18.4876 5.82942 16.4887 5.49114Z" fill="white"/>
<path d="M29.2267 14.1137C29.2697 14.1137 29.3128 14.1076 29.3558 14.1014C29.7679 14.0338 30.0447 13.6402 29.9709 13.2342C29.4112 9.92526 27.8489 6.91767 25.4564 4.52513C23.0577 2.13259 20.0501 0.570364 16.7412 0.0106693C16.3291 -0.0569861 15.9416 0.219786 15.874 0.625718C15.8063 1.0378 16.0831 1.42528 16.489 1.49294C19.4843 2.00343 22.2151 3.41804 24.3862 5.58916C26.5573 7.76029 27.972 10.4911 28.4824 13.4864C28.5439 13.8554 28.8638 14.1137 29.2267 14.1137Z" fill="white"/>
</svg>
