<svg width="25" height="25" viewBox="0 0 25 25" fill="none" xmlns="http://www.w3.org/2000/svg">
<path d="M24.7817 23.7251L18.7063 17.6497C20.336 15.7761 21.3227 13.3315 21.3227 10.6596C21.3227 4.77827 16.5389 0 10.6631 0C4.78169 0 0.00341797 4.78381 0.00341797 10.6596C0.00341797 16.5355 4.78723 21.3193 10.6631 21.3193C13.3349 21.3193 15.7795 20.3326 17.6531 18.7029L23.7285 24.7783C23.8726 24.9224 24.0666 25 24.2551 25C24.4436 25 24.6376 24.9279 24.7817 24.7783C25.0699 24.49 25.0699 24.0133 24.7817 23.7251ZM1.49455 10.6596C1.49455 5.60421 5.60763 1.49667 10.6575 1.49667C15.713 1.49667 19.8205 5.60976 19.8205 10.6596C19.8205 15.7095 15.713 19.8282 10.6575 19.8282C5.60763 19.8282 1.49455 15.7151 1.49455 10.6596Z" fill="white"/>
</svg>
