<svg width="25" height="25" viewBox="0 0 25 25" fill="none" xmlns="http://www.w3.org/2000/svg">
<g clip-path="url(#clip0)">
<path d="M19.1177 8.48645C18.9146 8.28333 18.5843 8.28333 18.3812 8.48645L11.4583 15.4094L7.65933 11.6115C7.4562 11.4083 7.12598 11.4083 6.92285 11.6115C6.71973 11.8146 6.71973 12.1448 6.92285 12.3479L11.0895 16.5146C11.1916 16.6156 11.3249 16.6667 11.4583 16.6667C11.5916 16.6667 11.7249 16.6157 11.826 16.5146L19.1176 9.22293C19.3208 9.01975 19.3208 8.68958 19.1177 8.48645Z" fill="#0C0C0D"/>
<path d="M23.0656 3.14686L12.649 0.0218628C12.5511 -0.0072876 12.4479 -0.0072876 12.35 0.0218628L1.93335 3.14686C1.71353 3.21249 1.5625 3.41561 1.5625 3.64584V15.1042C1.5625 19.7104 8.5854 23.8073 12.3458 24.9771C12.3959 24.9927 12.4479 25 12.5 25C12.5521 25 12.6042 24.9927 12.6542 24.9771C16.4146 23.8062 23.4375 19.7104 23.4375 15.1041V3.64584C23.4375 3.41561 23.2865 3.21351 23.0656 3.14686ZM22.3958 15.1041C22.3958 18.7614 16.6011 22.6073 12.5 23.9333C8.39897 22.6073 2.60415 18.7614 2.60415 15.1041V4.03334L12.5 1.06459L22.3958 4.03334V15.1041Z" fill="#0C0C0D"/>
</g>
</svg>
