<svg width="25" height="25" viewBox="0 0 25 25" fill="none" xmlns="http://www.w3.org/2000/svg">
<g clip-path="url(#clip0)">
<path d="M23.8633 12.6049V9.09115C23.8633 7.89969 22.9391 6.93073 21.7715 6.83676L18.5084 1.13728C18.206 0.610161 17.7177 0.233409 17.1334 0.0769662C16.5519 -0.0784113 15.9438 0.00319251 15.4234 0.306117L4.23732 6.81844H2.27271C1.0193 6.81844 0 7.83769 0 9.09115V22.7273C0 23.9807 1.01925 25 2.27271 25H21.5906C22.844 25 23.8633 23.9807 23.8633 22.7273V19.2136C24.5232 18.9783 24.9996 18.3535 24.9996 17.6137V14.2047C24.9996 13.4649 24.5232 12.8402 23.8633 12.6049ZM15.9954 1.28819C16.2528 1.13782 16.5531 1.09787 16.8394 1.17446C17.1296 1.25212 17.3715 1.43967 17.5219 1.70212L18.629 3.63595C18.124 3.86041 17.5851 3.97759 17.0452 3.97759C15.825 3.97759 14.7068 3.42379 13.9562 2.47533L15.9954 1.28819ZM12.9692 3.04996C13.933 4.34929 15.4167 5.11398 17.0452 5.11398C17.7824 5.11398 18.5133 4.94017 19.1924 4.62009L20.4511 6.81849H6.49581L12.9692 3.04996ZM22.7269 22.7273C22.7269 23.3537 22.217 23.8636 21.5906 23.8636H2.27271C1.6463 23.8636 1.13638 23.3537 1.13638 22.7273V9.09115C1.13638 8.46474 1.6463 7.95482 2.27271 7.95482H21.5906C22.217 7.95482 22.7269 8.46474 22.7269 9.09115V12.5002H19.3179C17.438 12.5002 15.9088 14.0293 15.9088 15.9092C15.9088 17.7891 17.438 19.3183 19.3179 19.3183H22.7269V22.7273V22.7273ZM23.8633 17.6137C23.8633 17.9272 23.6086 18.1819 23.2951 18.1819H19.3179C18.0645 18.1819 17.0452 17.1627 17.0452 15.9092C17.0452 14.6558 18.0644 13.6365 19.3179 13.6365H23.2951C23.6086 13.6365 23.8633 13.8912 23.8633 14.2047V17.6137V17.6137Z" fill="#0C0C0D"/>
<path d="M19.318 14.7729C18.6916 14.7729 18.1816 15.2829 18.1816 15.9093C18.1816 16.5357 18.6916 17.0456 19.318 17.0456C19.9444 17.0456 20.4543 16.5357 20.4543 15.9093C20.4543 15.2829 19.9444 14.7729 19.318 14.7729Z" fill="#0C0C0D"/>
</g>
</svg>
