<svg width="20" height="32" viewBox="0 0 20 32" fill="none" xmlns="http://www.w3.org/2000/svg">
<path d="M14.5 5.49997H3.50002C1.57024 5.49997 0 7.07175 0 9.00387V22.9961C0 24.9282 1.57024 26.5 3.50002 26.5H14.5C16.4298 26.5 18.0001 24.9282 18.0001 22.9961V9.00387C18 7.07175 16.4297 5.49997 14.5 5.49997ZM17 22.9961C17 24.377 15.8784 25.5 14.5 25.5H3.50002C2.12168 25.5 1.00005 24.377 1.00005 22.9961V9.00387C1.00005 7.62297 2.12168 6.50002 3.50002 6.50002H14.5C15.8784 6.50002 17 7.62304 17 9.00387V22.9961Z" fill="#9E9EFF"/>
<path d="M15.4918 5.91064L14.7598 1.88474C14.568 0.827636 13.5763 0 12.503 0H5.49713C4.4234 0 3.43214 0.828149 3.23973 1.88474H3.24024L2.50841 5.91064C2.48153 6.05661 2.52101 6.20654 2.61629 6.32028C2.71107 6.43417 2.85155 6.50002 3.00008 6.50002H15.0001C15.1486 6.50002 15.2891 6.43417 15.3839 6.32028C15.479 6.20646 15.5186 6.05661 15.4918 5.91064ZM3.59913 5.49997L4.22352 2.06345H4.22403C4.32855 1.48682 4.91156 0.999975 5.49706 0.999975H12.503C13.0885 0.999975 13.6715 1.48733 13.7765 2.06345L14.401 5.49997H3.59913Z" fill="#9E9EFF"/>
<path d="M15.3838 25.6797C15.289 25.5658 15.1485 25.5 15 25.5H3.00001C2.85148 25.5 2.711 25.5658 2.616 25.6797C2.52086 25.7935 2.48124 25.9433 2.50812 26.0893L3.23959 30.1152C3.432 31.1718 4.42318 32 5.49698 32H12.5029C13.5761 32 14.5679 31.1723 14.7598 30.1152L15.4916 26.0893C15.5185 25.9434 15.479 25.7935 15.3838 25.6797ZM13.7765 29.9365C13.6715 30.5127 13.0885 30.9999 12.503 30.9999H5.49706C4.91156 30.9999 4.32855 30.5131 4.22404 29.9365H4.22352L3.59906 26.4999H14.4008L13.7765 29.9365Z" fill="#9E9EFF"/>
<path d="M18.5742 11H17.5C17.2236 11 16.9999 11.2236 16.9999 11.5V16C16.9999 16.2764 17.2235 16.5001 17.5 16.5001H18.5742C19.3603 16.5001 19.9999 15.8604 19.9999 15.0743V12.4258C20 11.6396 19.3604 11 18.5742 11ZM19 15.0742C19 15.3091 18.8091 15.5 18.5742 15.5H18V12H18.5742C18.8091 12 19 12.1908 19 12.4257V15.0742Z" fill="#9E9EFF"/>
<path d="M12.2744 14.3197C12.2749 14.3046 12.2749 14.29 12.2749 14.2748C12.2749 12.7446 11.0303 11.5 9.50004 11.5C8.31505 11.5 7.28029 12.2558 6.891 13.3334C6.65714 13.2778 6.41786 13.2499 6.17477 13.2499C4.45167 13.2499 3.04974 14.6518 3.04974 16.375C3.04974 17.98 4.27875 19.3252 5.86576 19.4818C5.90875 19.4935 5.95365 19.4999 6.00001 19.4999H11.9503C13.3838 19.4999 14.5498 18.3334 14.5498 16.8998C14.5498 15.5761 13.5556 14.4799 12.2744 14.3197ZM11.9503 18.5H6.09376C6.07377 18.4961 6.05377 18.4936 6.03261 18.4923C4.92086 18.419 4.04972 17.4888 4.04972 16.375C4.04972 15.2031 5.00282 14.25 6.1747 14.25C6.47404 14.25 6.76554 14.3125 7.04195 14.4365C7.18646 14.501 7.35243 14.4931 7.4902 14.4165C7.62848 14.3387 7.72172 14.2011 7.74171 14.0443C7.85648 13.164 8.6122 12.4999 9.49996 12.4999C10.4785 12.4999 11.2748 13.2963 11.2748 14.2748C11.2748 14.4121 11.2577 14.5502 11.2221 14.6972C11.1836 14.8559 11.2251 15.0239 11.3335 15.1465C11.4419 15.269 11.6001 15.332 11.7661 15.3115C11.8268 15.3046 11.8878 15.2998 11.9503 15.2998C12.8322 15.2998 13.5499 16.0175 13.5499 16.8999C13.5499 17.7822 12.8321 18.5 11.9503 18.5Z" fill="#9E9EFF"/>
</svg>
