<svg width="202" height="60" viewBox="0 0 202 60" fill="none" xmlns="http://www.w3.org/2000/svg">
<path d="M200.17 19.4761C197.087 15.6258 192.815 13.5082 188.737 13.5082C183.342 13.5082 181.126 15.9146 177.4 15.9146C173.547 15.9146 170.528 13.6365 165.871 13.6365C162.114 13.6365 158.324 15.4012 155.562 18.7702C158.067 16.46 161.118 15.2729 164.169 15.2729C168.697 15.2729 171.652 17.4868 175.377 17.4868C179.006 17.4868 181.19 15.1766 186.425 15.1766C190.375 15.1766 194.389 17.0376 197.376 20.7916C187.934 27.6258 190.021 40.8451 199.174 44.4386C198.146 47.5189 197.183 49.3477 195.545 52.1071C193.554 55.4761 190.792 58.7167 187.484 59.7755H187.549C191.948 59.7435 195.609 55.7007 198.114 51.4975C199.784 48.6739 200.748 46.7488 201.839 43.6044C192.462 39.9146 190.342 26.567 200.17 19.4761ZM188.191 0.0322266C185.108 0.256825 181.543 2.14987 179.327 4.68463C181.318 3.2087 183.727 2.21404 185.879 2.05362C186.392 5.61511 184.947 9.08036 183.053 11.5189C182.731 11.936 182.346 12.3531 181.961 12.7381C183.245 11.936 184.401 10.9092 185.301 9.75415C187.227 7.25148 188.737 3.6579 188.191 0.0322266Z" fill="white"/>
<path d="M24.5355 47.2297H19.5577L17.5345 41.9035H6.96884L4.94563 47.2297H0L9.44165 21.6575H15.0938L24.5355 47.2297ZM8.31765 37.8607H16.1536L12.2356 27.4329L8.31765 37.8607ZM30.7978 44.8553V54.6735H26.4302V28.9409H30.7978V31.3473C32.1787 29.5505 34.3946 28.4917 36.8032 28.4917C42.1342 28.4917 45.5383 32.9195 45.5383 38.0532C45.5383 43.3794 41.9415 47.743 36.6105 47.743C34.3304 47.7751 32.1145 46.62 30.7978 44.8553ZM30.7978 34.6842V41.4864C31.8575 42.866 33.4954 43.7644 35.2938 43.7644C38.3768 43.7644 40.8817 41.1976 40.8817 38.0853C40.8817 35.0051 38.3447 32.4703 35.2938 32.4703C33.4954 32.4382 31.8575 33.3366 30.7978 34.6842ZM52.6035 44.8553V54.6735H48.2359V28.9409H52.6035V31.3473C53.9844 29.5505 56.2003 28.4917 58.6089 28.4917C63.9399 28.4917 67.344 32.9195 67.344 38.0532C67.344 43.3794 63.7472 47.743 58.4162 47.743C56.1361 47.7751 53.9202 46.62 52.6035 44.8553ZM52.6035 34.6842V41.4864C53.6633 42.866 55.3011 43.7644 57.0995 43.7644C60.1825 43.7644 62.6874 41.1976 62.6874 38.0853C62.6874 35.0051 60.1504 32.4703 57.0995 32.4703C55.3011 32.4382 53.6633 33.3366 52.6035 34.6842ZM74.6019 21.2725V47.2297H70.2343V21.2725H74.6019ZM96.2792 38.9837H81.924C81.924 41.9356 84.0114 44.1815 87.8973 44.1815C89.8242 44.1815 92.0079 43.4757 93.421 42.3848L95.0909 45.0799C93.1641 46.8446 90.3701 47.743 87.3192 47.743C81.8598 47.743 77.428 43.7323 77.428 38.3099C77.428 32.8233 81.6671 28.3634 86.966 28.3634C92.8429 28.3634 96.3434 32.2778 96.3434 37.7003C96.3755 38.0853 96.3434 38.5987 96.2792 38.9837ZM87.0302 31.9569C84.4932 31.9569 82.5342 33.5612 81.924 36.1281H92.2649C91.7831 33.7537 89.9847 31.9569 87.0302 31.9569ZM108.29 30.3206C105.143 30.3206 102.991 32.2457 101.803 35.2938V47.1976H99.876V28.9088H101.803V32.5666C103.12 30.1281 105.432 28.3634 108.29 28.3634V30.3206ZM108.707 38.0853C108.707 32.7912 112.625 28.3955 118.727 28.3955C124.829 28.3955 128.747 32.7912 128.747 38.0853C128.747 43.3794 124.829 47.7751 118.727 47.7751C112.625 47.7751 108.707 43.3794 108.707 38.0853ZM126.82 38.0853C126.82 33.6575 123.384 29.9356 118.727 29.9356C114.038 29.9356 110.634 33.6575 110.634 38.0853C110.634 42.5773 114.038 46.235 118.727 46.235C123.384 46.235 126.82 42.5773 126.82 38.0853ZM130.674 38.0853C130.674 32.7912 134.592 28.3955 140.693 28.3955C146.795 28.3955 150.713 32.7912 150.713 38.0853C150.713 43.3794 146.795 47.7751 140.693 47.7751C134.592 47.7751 130.674 43.3794 130.674 38.0853ZM148.786 38.0853C148.786 33.6575 145.35 29.9356 140.693 29.9356C136.005 29.9356 132.601 33.6575 132.601 38.0853C132.601 42.5773 136.005 46.235 140.693 46.235C145.35 46.235 148.786 42.5773 148.786 38.0853ZM166.738 47.2297V35.711C166.738 31.6682 164.747 29.9997 162.467 29.9997C160.187 29.9997 157.586 31.5719 156.205 34.1709V47.2297H154.278V28.9409H156.205V31.9249C157.746 29.6147 160.187 28.3634 162.563 28.3634C164.94 28.3634 167.348 29.6147 168.28 32.342C169.821 29.7751 172.519 28.3634 175.056 28.3634C178.235 28.3634 181.158 30.2564 181.158 35.6789V47.1976H179.231V35.6789C179.231 31.6361 177.24 29.9676 174.96 29.9676C172.679 29.9676 170.078 31.5398 168.697 34.1388V47.1976H166.738V47.2297Z" fill="white"/>
</svg>
