<svg width="40" height="40" viewBox="0 0 40 40" fill="none" xmlns="http://www.w3.org/2000/svg">
<path d="M27.1333 20.0213V31.7422C27.1333 33.2352 26.1173 34.2484 24.6243 34.2484C21.5555 34.2484 18.4877 34.2484 15.4209 34.2484C14.3286 34.2484 13.4989 33.8025 13.0643 32.7667C12.9461 32.482 12.8829 32.1775 12.878 31.8692C12.8667 23.9669 12.8667 16.0645 12.878 8.16217C12.878 6.75104 13.9533 5.74631 15.3955 5.74631C18.2431 5.74631 21.0908 5.74631 23.9385 5.74631C24.4112 5.72732 24.8845 5.7614 25.3496 5.84791C25.8745 5.96452 26.3413 6.2631 26.6672 6.69078C26.9931 7.11847 27.1572 7.64769 27.1305 8.18475C27.1305 11.4416 27.1305 14.6976 27.1305 17.9526L27.1333 20.0213ZM25.9649 19.979C25.9649 16.0278 25.9649 12.0663 25.9649 8.09444C25.9649 7.33525 25.5415 6.91755 24.7739 6.91473C24.3872 6.91473 24.0006 6.91473 23.6167 6.91473C23.5252 6.90174 23.4321 6.92351 23.3558 6.97575C23.2796 7.02799 23.2256 7.10691 23.2047 7.19696C23.0269 7.73319 22.7475 7.91946 22.1746 7.91946H17.8057C17.2243 7.91946 16.959 7.73601 16.7897 7.18002C16.7744 7.09146 16.7251 7.01236 16.6524 6.95963C16.5796 6.9069 16.4891 6.88471 16.4002 6.8978C16.0242 6.92062 15.6472 6.92062 15.2713 6.8978C15.1014 6.88563 14.9308 6.91013 14.7712 6.96966C14.6116 7.02918 14.4667 7.12232 14.3462 7.24277C14.2258 7.36322 14.1326 7.50816 14.0731 7.66777C14.0136 7.82737 13.9891 7.99791 14.0013 8.16782C14.021 10.5526 14.0013 12.9346 14.0013 15.3194C14.0013 20.8229 14.0013 26.3282 14.0013 31.8354C14.0013 32.651 14.4359 33.0884 15.2402 33.0884C18.3842 33.0884 21.5283 33.0743 24.6723 33.0884C24.8439 33.1032 25.0167 33.0805 25.1787 33.022C25.3407 32.9635 25.4881 32.8705 25.6107 32.7495C25.7334 32.6285 25.8283 32.4824 25.8889 32.3211C25.9496 32.1599 25.9745 31.9874 25.962 31.8156C25.9649 27.8785 25.9649 23.9302 25.9649 19.979Z" fill="white"/>
</svg>
