<svg width="40" height="40" viewBox="0 0 40 40" fill="none" xmlns="http://www.w3.org/2000/svg">
<path d="M35.864 11.6918C35.412 11.1038 34.82 10.7278 34.072 10.7158C32.672 10.6878 31.276 10.7038 29.876 10.7038C27.508 10.7038 25.136 10.7038 22.768 10.7038C22.756 10.7038 22.748 10.7038 22.736 10.7038C22.596 10.6878 22.5 10.7958 22.372 11.0838C21.876 12.2358 21.38 13.3838 20.88 14.5358C18.988 18.9198 17.044 23.2518 15.148 27.6318C15.14 27.6438 15.132 27.6558 15.128 27.6678C15.028 27.9158 14.92 28.1598 14.812 28.4038C14.664 28.7438 14.516 29.0838 14.352 29.4478C14.424 29.4518 14.472 29.4558 14.52 29.4558C19.388 29.4558 24.256 29.4558 29.124 29.4558C30.708 29.4558 32.292 29.4518 33.872 29.4598C34.4 29.4638 34.876 29.3158 35.292 29.0118C36.008 28.4878 36.364 27.7798 36.36 26.8798C36.356 22.3598 36.356 17.8398 36.36 13.3198C36.376 12.7118 36.232 12.1678 35.864 11.6918ZM34.416 26.1518C34.416 26.4398 34.372 26.7118 34.196 26.9518C33.9 27.3638 33.488 27.5158 33 27.5158C30.64 27.5158 28.28 27.5158 25.92 27.5158C22.916 27.5158 19.912 27.5158 16.912 27.5118C17.984 25.0438 19.088 22.5798 20.152 20.1118C21.24 17.5958 22.324 15.0798 23.412 12.5598C23.812 12.5598 24.208 12.5598 24.608 12.5598C27.42 12.5598 30.232 12.5598 33.044 12.5558C33.292 12.5558 33.528 12.6038 33.744 12.7278C34.224 12.9958 34.42 13.4118 34.42 13.9598C34.408 16.2158 34.408 18.4678 34.408 20.7238C34.408 22.5358 34.412 24.3438 34.416 26.1518Z" fill="white"/>
<path d="M19.68 14.8711C19.68 14.5511 19.68 14.2351 19.68 13.9151C19.68 13.6871 19.612 13.6191 19.388 13.6191C18.668 13.6191 17.944 13.6191 17.224 13.6191C14.416 13.6191 11.608 13.6191 8.80402 13.6191C8.58402 13.6191 8.52802 13.6751 8.52802 13.8911C8.52802 14.2111 8.52802 14.5271 8.52802 14.8471C8.52802 15.1231 8.56402 15.1591 8.84802 15.1591C10.6 15.1591 12.352 15.1591 14.104 15.1591C15.864 15.1591 17.628 15.1591 19.388 15.1591C19.62 15.1591 19.68 15.0991 19.68 14.8711Z" fill="white"/>
<path d="M13.496 19.4435C13.424 19.4355 13.348 19.4395 13.272 19.4395C11.22 19.4395 9.172 19.4395 7.12 19.4395C5.972 19.4395 4.82 19.4395 3.672 19.4395C3.464 19.4395 3.392 19.5075 3.392 19.7115C3.392 20.0315 3.392 20.3475 3.392 20.6675C3.392 20.9195 3.452 20.9795 3.708 20.9795C5.316 20.9795 6.924 20.9795 8.528 20.9795C9.26 20.9795 9.992 20.9795 10.724 20.9795C11.624 20.9795 12.524 20.9795 13.428 20.9795C13.612 20.9795 13.696 20.9155 13.696 20.7555C13.7 20.3875 13.696 20.0195 13.696 19.6515C13.696 19.5155 13.62 19.4555 13.496 19.4435Z" fill="white"/>
<path d="M13.24 25.208C12.528 25.212 11.816 25.22 11.104 25.22C10.396 25.224 9.692 25.22 8.984 25.22C8.128 25.22 7.272 25.22 6.416 25.22C6.228 25.22 6.168 25.28 6.164 25.468C6.164 25.8 6.164 26.136 6.164 26.468C6.164 26.68 6.224 26.74 6.436 26.74C6.86 26.74 7.284 26.74 7.704 26.74C9.556 26.74 11.404 26.74 13.256 26.74C13.488 26.74 13.544 26.68 13.544 26.448C13.544 26.136 13.544 25.82 13.544 25.508C13.548 25.264 13.492 25.208 13.24 25.208Z" fill="white"/>
<path d="M28.212 19.4758C27.024 18.9718 26.52 18.6158 26.52 17.9198C26.52 17.3598 26.916 16.7318 27.968 16.7318C28.84 16.7318 29.4 17.0438 29.688 17.2078L30.028 16.3078C29.62 16.0758 29.06 15.8558 28.256 15.8318V14.5078H27.396V15.8718C26.156 16.0758 25.348 16.9358 25.348 18.0678C25.348 19.2558 26.208 19.8958 27.6 20.4438C28.608 20.8518 29.144 21.3158 29.144 22.0678C29.144 22.8438 28.488 23.4038 27.52 23.4038C26.756 23.4038 26.048 23.1318 25.568 22.8158L25.24 23.7318C25.716 24.0718 26.524 24.3198 27.312 24.3318V25.6958H28.172V24.2798C29.576 24.0598 30.328 23.0518 30.328 21.9598C30.328 20.7438 29.616 20.0478 28.212 19.4758Z" fill="white"/>
</svg>
