<svg width="40" height="40" viewBox="0 0 40 40" fill="none" xmlns="http://www.w3.org/2000/svg">
<path d="M26.2838 18.5425H26.9837C27.1164 18.4663 27.249 18.3901 27.3816 18.3111C27.424 18.2857 27.4578 18.2462 27.4945 18.2151C27.4889 18.201 27.4861 18.1897 27.4804 18.1756C27.2603 18.1756 27.0402 18.1785 26.8172 18.1728C26.7128 18.17 26.5773 18.218 26.5265 18.0881C26.4757 17.9611 26.5999 17.8906 26.6789 17.8257C26.8087 17.7213 26.9555 17.6394 27.091 17.5406C27.153 17.4955 27.2067 17.4418 27.2631 17.391C27.2575 17.3769 27.2518 17.3628 27.249 17.3487C27.1446 17.3487 27.0402 17.3431 26.9357 17.3515C26.7833 17.3628 26.6337 17.3882 26.4813 17.4023C26.3882 17.4108 26.2979 17.3939 26.2669 17.2866C26.233 17.1737 26.2753 17.0834 26.3713 17.0157C26.4926 16.9282 26.614 16.8435 26.7297 16.7532C26.7777 16.7165 26.8144 16.6657 26.8567 16.6206C26.8511 16.6036 26.8454 16.5895 26.8398 16.5726C26.7607 16.5782 26.6817 16.5811 26.6055 16.5923C26.408 16.6234 26.2076 16.6573 26.01 16.6883C25.9254 16.7024 25.883 16.6544 25.9028 16.5754C25.9282 16.4795 25.9564 16.375 26.0128 16.2988C26.1032 16.1803 26.2217 16.0872 26.3233 15.9799C26.3656 15.9348 26.3967 15.8811 26.4305 15.8303C26.4221 15.8162 26.4136 15.7993 26.4051 15.7852C26.3177 15.8106 26.2273 15.836 26.1398 15.8642C25.962 15.9206 25.7871 15.9827 25.6093 16.0335C25.5133 16.0589 25.4823 16.0025 25.4823 15.9065C25.4823 15.6751 25.6403 15.5312 25.7532 15.359C25.804 15.28 25.8548 15.1981 25.9056 15.1191C25.8943 15.105 25.883 15.0881 25.8717 15.074C25.804 15.0994 25.7306 15.1191 25.6657 15.153C25.5218 15.2292 25.3835 15.3167 25.2395 15.3929C25.0589 15.486 24.9601 15.4183 24.946 15.2151C24.9319 14.9695 25.1125 14.8228 25.2141 14.6337C25.2452 14.5744 25.2734 14.5152 25.3016 14.4559C25.2903 14.4418 25.2791 14.4305 25.2706 14.4164C25.2141 14.4446 25.1521 14.4672 25.1013 14.501C24.9432 14.6139 24.7936 14.7353 24.6356 14.8425C24.4719 14.9526 24.3336 14.8821 24.359 14.6901C24.3844 14.4954 24.4719 14.3063 24.5312 14.1172C24.5566 14.0325 24.5791 13.9451 24.6017 13.8604C24.5791 13.8491 24.5566 13.835 24.534 13.8237C24.3872 13.9676 24.2461 14.1229 24.0881 14.2527C24.0119 14.3148 23.899 14.3374 23.7974 14.3628C23.772 14.3684 23.7014 14.3035 23.7014 14.2753C23.7155 14.1116 23.7409 13.9479 23.7748 13.787C23.8002 13.6713 23.8453 13.5584 23.882 13.4427C23.8679 13.4342 23.8566 13.4229 23.8425 13.4145C23.803 13.4427 23.755 13.4653 23.7212 13.4991C23.6026 13.612 23.4869 13.7306 23.374 13.8463C23.2922 13.9281 23.1878 13.9987 23.0862 13.9281C23.0269 13.8858 22.9846 13.7701 22.9874 13.6911C22.9987 13.5048 23.0438 13.3213 23.0777 13.1379C23.0833 13.1012 23.0918 13.0645 23.1003 13.0306C23.089 13.0222 23.0777 13.0109 23.0664 13.0024C23.0015 13.056 22.9281 13.1012 22.8773 13.1633C22.7983 13.2592 22.7362 13.3665 22.6628 13.4653C22.5894 13.5669 22.5161 13.6826 22.3665 13.6346C22.2197 13.5895 22.2056 13.4653 22.2056 13.3326C22.2084 13.1294 22.2056 12.929 22.2056 12.7258C22.1915 12.7174 22.1774 12.7117 22.1661 12.7033C22.1351 12.7428 22.0955 12.7795 22.0701 12.8218C21.9883 12.9714 21.9121 13.1266 21.8302 13.279C21.7823 13.3693 21.7089 13.4286 21.6016 13.3975C21.4916 13.3665 21.438 13.2846 21.4351 13.1746C21.4295 13.0109 21.438 12.8472 21.4295 12.6835C21.4267 12.6327 21.39 12.5819 21.3674 12.5311C21.3222 12.5678 21.263 12.5988 21.2376 12.6468C21.1501 12.8162 21.0823 12.9996 20.9892 13.1661C20.9074 13.3129 20.7663 13.3129 20.6929 13.1633C20.6223 13.0194 20.5856 12.8585 20.5405 12.7033C20.5122 12.6101 20.501 12.5113 20.4784 12.4154C20.4727 12.39 20.4389 12.3702 20.4191 12.3477C20.4022 12.3731 20.374 12.3956 20.3683 12.4239C20.3232 12.5904 20.2893 12.7597 20.2413 12.9262C20.2046 13.0476 20.1708 13.183 20.0155 13.2056C19.9111 13.2197 19.8151 13.0984 19.7728 12.9262C19.7277 12.74 19.6825 12.5537 19.6345 12.3561C19.4934 12.3928 19.4934 12.5085 19.4765 12.6101C19.4511 12.771 19.4426 12.9347 19.4059 13.0927C19.3918 13.1548 19.3297 13.2423 19.2761 13.2508C19.214 13.2621 19.1152 13.2226 19.0757 13.1718C18.9939 13.0645 18.9346 12.9375 18.8782 12.8105C18.8161 12.6722 18.7737 12.5226 18.579 12.4662C18.579 12.6383 18.5875 12.7964 18.5762 12.9516C18.5705 13.0589 18.5508 13.1689 18.5141 13.2677C18.4943 13.3242 18.4266 13.3975 18.3786 13.3975C18.3165 13.3975 18.2319 13.3524 18.198 13.2988C18.102 13.1464 18.0258 12.977 17.9412 12.819C17.9186 12.7766 17.8819 12.7428 17.8509 12.7033C17.8367 12.7089 17.8198 12.7117 17.8057 12.7174C17.8057 12.8726 17.8057 13.0306 17.8057 13.1859L18.6919 14.724C19.0588 14.6309 19.437 14.5857 19.8236 14.597C20.2441 14.6083 20.6647 14.5829 21.0795 14.6704C21.5734 14.7748 22.0391 14.9583 22.4935 15.1756C23.1624 15.4945 23.7268 15.9489 24.2038 16.502C24.5481 16.9028 24.8444 17.3431 25.0363 17.8426C25.1267 18.0769 25.2311 18.3083 25.3016 18.551H25.454L26.2838 18.5425Z" fill="white"/>
<path d="M18.3363 26.0021L18.2544 26.1433L18.1528 26.3211C18.0343 26.5214 17.9186 26.7246 17.8029 26.9279C17.8029 27.0492 17.8029 27.1706 17.8029 27.2919C17.8029 27.3201 17.8114 27.3484 17.8198 27.4161C17.8734 27.3597 17.913 27.3286 17.9355 27.2891C18.0174 27.1395 18.0936 26.9843 18.1726 26.8319C18.2234 26.7359 18.294 26.6682 18.4097 26.7021C18.5254 26.7359 18.5734 26.8262 18.5762 26.9391C18.579 27.0915 18.5705 27.2468 18.5818 27.3992C18.5847 27.4556 18.6242 27.5092 18.6467 27.5657C18.6891 27.5262 18.7483 27.4951 18.7737 27.4471C18.8584 27.2806 18.9233 27.1057 19.0136 26.942C19.104 26.7783 19.2479 26.7783 19.3241 26.9476C19.3975 27.1141 19.42 27.306 19.4737 27.4838C19.4962 27.56 19.547 27.6955 19.5809 27.6927C19.7023 27.6899 19.6769 27.5629 19.7023 27.4782C19.7474 27.3145 19.7841 27.1423 19.8575 26.9899C19.9281 26.8404 20.0805 26.8432 20.151 26.9956C20.2244 27.148 20.2498 27.323 20.3062 27.4838C20.3316 27.56 20.3796 27.6927 20.4163 27.6927C20.5377 27.6899 20.5207 27.5657 20.5348 27.4782C20.5602 27.3173 20.5687 27.1536 20.6082 26.9984C20.6223 26.9363 20.6872 26.8573 20.7409 26.8432C20.7945 26.8291 20.8961 26.8714 20.9271 26.9194C21.0259 27.0661 21.1078 27.2242 21.1811 27.3822C21.2291 27.4895 21.2743 27.5883 21.4295 27.6306C21.4295 27.4613 21.421 27.306 21.4323 27.1508C21.438 27.0436 21.4577 26.9335 21.4944 26.8347C21.5142 26.7783 21.5819 26.6992 21.6242 26.6992C21.692 26.7021 21.7795 26.75 21.8162 26.8037C21.9121 26.9504 21.9827 27.1141 22.0673 27.2693C22.0899 27.3145 22.1266 27.3512 22.1548 27.3907C22.1689 27.3879 22.1802 27.3822 22.1943 27.3794C22.1972 27.323 22.2028 27.2665 22.2056 27.2129C22.2084 27.0182 22.2 26.8262 22.2113 26.6315C22.2141 26.5722 22.2592 26.4904 22.3044 26.4678C22.3524 26.4452 22.4483 26.4678 22.4879 26.5073C22.5951 26.6146 22.6826 26.7444 22.7785 26.8629C22.8435 26.9448 22.9112 27.0238 22.9789 27.1057C22.9959 27.1 23.0128 27.0915 23.0269 27.0859C23.0269 26.9928 23.0325 26.8968 23.0269 26.8037C23.0156 26.6118 22.993 26.4198 22.9874 26.2308C22.9874 26.2025 23.0495 26.1433 23.0721 26.1489C23.1511 26.1658 23.2386 26.1884 23.2978 26.2392C23.4333 26.3549 23.5518 26.4904 23.6817 26.6146C23.7296 26.6597 23.7861 26.6964 23.8397 26.7359C23.8538 26.7303 23.8651 26.7246 23.8792 26.7162C23.8736 26.64 23.8736 26.5638 23.8567 26.4932C23.8143 26.3267 23.755 26.163 23.7212 25.9937C23.7071 25.9259 23.7184 25.8187 23.7635 25.7792C23.8087 25.7369 23.9159 25.7312 23.9808 25.7538C24.074 25.7877 24.1586 25.8554 24.2377 25.9203C24.3336 25.9993 24.4183 26.0896 24.5142 26.1687C24.5425 26.1912 24.5933 26.1799 24.6356 26.1856C24.6356 26.1489 24.6441 26.1094 24.6328 26.0755C24.5792 25.9203 24.5142 25.7707 24.4663 25.6155C24.4352 25.5139 24.4296 25.4038 24.4155 25.2966C24.4042 25.195 24.4663 25.1696 24.5453 25.2034C24.6328 25.243 24.7203 25.2938 24.7993 25.3502C24.9206 25.4377 25.0307 25.5365 25.1521 25.624C25.1859 25.6494 25.2367 25.655 25.2791 25.6691C25.2904 25.6578 25.3017 25.6465 25.3101 25.6381C25.2593 25.5393 25.2142 25.4405 25.1605 25.3446C25.0674 25.1837 24.946 25.0341 24.9489 24.8309C24.9489 24.7406 24.9856 24.6898 25.0702 24.7152C25.2283 24.7604 25.3835 24.8196 25.5387 24.8789C25.6121 24.9071 25.6798 24.9523 25.7532 24.9777C25.7955 24.9918 25.8435 24.9861 25.8915 24.9861C25.8802 24.9353 25.8802 24.8789 25.8548 24.8394C25.7843 24.7321 25.6911 24.639 25.6234 24.5317C25.5669 24.4414 25.5133 24.3427 25.4936 24.2411C25.4625 24.0717 25.5049 24.035 25.6798 24.0633C25.8012 24.083 25.9141 24.1338 26.0326 24.1733C26.1596 24.2157 26.2866 24.2636 26.4108 24.3088C26.4221 24.2919 26.4334 24.2777 26.4418 24.2608C26.3995 24.2044 26.36 24.1479 26.312 24.0943C26.202 23.9673 26.0834 23.8488 25.9762 23.7189C25.9451 23.6822 25.9282 23.6314 25.9169 23.5863C25.8802 23.4311 25.9056 23.3944 26.0637 23.4057C26.2161 23.417 26.3656 23.448 26.5152 23.4734C26.6394 23.4932 26.7636 23.5157 26.8878 23.5355C26.8991 23.5186 26.9075 23.5044 26.9188 23.4875C26.8793 23.4367 26.8483 23.3774 26.8003 23.3408C26.6846 23.2476 26.5604 23.1658 26.4447 23.0755C26.391 23.0331 26.3374 22.9851 26.3036 22.9259C26.2132 22.7707 26.264 22.686 26.439 22.686C26.6479 22.686 26.8567 22.686 27.0656 22.686C27.1135 22.686 27.1587 22.6803 27.2067 22.6775C27.2151 22.6634 27.2208 22.6493 27.2293 22.6352C27.1785 22.59 27.1305 22.5392 27.074 22.5025C26.964 22.4292 26.8454 22.3671 26.7325 22.2937C26.693 22.2683 26.6479 22.2316 26.6281 22.1921C26.6027 22.1385 26.5717 22.0594 26.5914 22.0171C26.6168 21.9691 26.693 21.9212 26.7523 21.9183C26.9357 21.9042 27.1192 21.9127 27.3026 21.9127C27.3506 21.9127 27.3958 21.907 27.4438 21.9042C27.4522 21.8901 27.4579 21.876 27.4663 21.8619C27.4099 21.8167 27.3619 21.7603 27.2998 21.7236C27.1897 21.6587 27.0684 21.6079 26.9583 21.543L26.1342 21.5458H25.3807H25.3214C25.265 21.7462 25.1888 21.9409 25.1041 22.1328C24.9856 22.3981 24.8529 22.6549 24.709 22.9061C24.5848 23.1178 24.4578 23.3379 24.2941 23.5157C23.8567 23.987 23.4079 24.4527 22.835 24.7716C22.3016 25.068 21.7541 25.3248 21.1501 25.432C20.7776 25.497 20.4022 25.5393 20.0268 25.5901C20.024 25.576 20.024 25.5647 20.0212 25.5506C19.5668 25.5675 19.1294 25.4998 18.7032 25.3869L18.3871 25.9401L18.3363 26.0021Z" fill="white"/>
<path d="M15.3898 23.0588C15.0399 22.5028 14.7633 21.9158 14.6448 21.2695C14.5657 20.8546 14.5347 20.4312 14.4811 20.0136C14.4952 20.0107 14.5121 20.0107 14.5262 20.0079C14.4895 19.356 14.6137 18.7294 14.8451 18.1226C15.0399 17.6146 15.2882 17.1292 15.6438 16.7143C15.7793 16.5563 15.9232 16.4039 16.07 16.2571L15.6551 15.5374L15.1556 14.6766C15.0596 14.6089 14.9665 14.5327 14.8705 14.465C14.8338 14.4396 14.7859 14.4311 14.7435 14.417C14.7322 14.4283 14.721 14.4396 14.7097 14.4509C14.7605 14.5525 14.8169 14.6512 14.8649 14.7557C14.9354 14.9165 15.0088 15.0746 15.0653 15.2411C15.0963 15.3371 15.0399 15.4048 14.9383 15.3737C14.783 15.3286 14.6335 15.2693 14.4839 15.2129C14.402 15.1818 14.3258 15.1338 14.244 15.1028C14.2129 15.0915 14.1706 15.1 14.1339 15.1C14.1396 15.1423 14.1311 15.1903 14.1509 15.2213C14.2299 15.3371 14.3287 15.4358 14.3964 15.5572C14.4585 15.6701 14.498 15.7971 14.5319 15.9213C14.5544 16.0031 14.5008 16.0511 14.4218 16.0285C14.2383 15.9777 14.0577 15.9156 13.8771 15.8592C13.7924 15.8309 13.7049 15.8055 13.6203 15.7801C13.609 15.7943 13.5977 15.8112 13.5864 15.8253C13.6259 15.8817 13.6654 15.9382 13.7106 15.989C13.8235 16.1188 13.9561 16.2374 14.0549 16.3756C14.1819 16.5563 14.1113 16.6946 13.894 16.6805C13.7134 16.6692 13.5356 16.6184 13.355 16.5873C13.2816 16.576 13.2054 16.5732 13.1292 16.5647C13.1235 16.5788 13.1151 16.5901 13.1094 16.6043C13.1461 16.6522 13.1772 16.7087 13.2252 16.7454C13.3352 16.8357 13.4566 16.9175 13.5695 17.005C13.6203 17.0445 13.6824 17.0812 13.7078 17.1348C13.7416 17.2026 13.7529 17.2844 13.7473 17.3578C13.7444 17.3776 13.64 17.3973 13.5808 17.4001C13.3296 17.4058 13.0784 17.403 12.8272 17.403C12.8187 17.4199 12.8131 17.4368 12.8046 17.4538C12.8639 17.5017 12.9203 17.5554 12.9824 17.5949C13.1123 17.6767 13.2534 17.7416 13.3719 17.8348C13.4227 17.8771 13.465 17.9872 13.4481 18.0464C13.4312 18.1029 13.3296 18.1621 13.2618 18.1706C13.084 18.1875 12.9062 18.1763 12.7256 18.1763C12.6776 18.1763 12.6325 18.1819 12.5845 18.1875C12.5789 18.2017 12.5704 18.2158 12.5647 18.2299C12.6212 18.275 12.672 18.3315 12.7369 18.3653C12.8611 18.4331 12.9937 18.4895 13.1207 18.5544C13.211 18.5996 13.2929 18.6589 13.2872 18.7774C13.2816 18.8959 13.1998 18.9439 13.1038 18.9608C12.9542 18.9862 12.8018 18.9947 12.6494 19.0088C12.6014 19.0145 12.545 18.9975 12.5027 19.0145C12.4575 19.0314 12.4208 19.0737 12.3785 19.1048C12.4067 19.1386 12.4264 19.1894 12.4631 19.2064C12.6522 19.291 12.8498 19.356 13.0361 19.4463C13.1094 19.483 13.1602 19.5705 13.2223 19.6354C13.1546 19.7003 13.0981 19.7934 13.0191 19.8216C12.8385 19.8865 12.6466 19.9148 12.4631 19.9684C12.418 19.9797 12.3841 20.0248 12.3446 20.0559C12.3869 20.0841 12.4236 20.1236 12.4688 20.1349C12.6635 20.1885 12.8639 20.2252 13.0558 20.2901C13.1235 20.3127 13.2082 20.3974 13.211 20.4595C13.2139 20.5187 13.1377 20.6147 13.0727 20.6401C12.8413 20.736 12.6014 20.8066 12.3531 20.8913C12.3728 20.9901 12.4462 21.0211 12.5506 21.0324C12.7256 21.0465 12.9034 21.0719 13.0784 21.0945C13.1772 21.1086 13.2872 21.1453 13.2788 21.2525C13.2731 21.3372 13.211 21.4388 13.1405 21.4896C12.9994 21.5884 12.8357 21.6476 12.6861 21.7323C12.6212 21.769 12.5704 21.8254 12.5139 21.8734C12.5196 21.8904 12.5252 21.9073 12.5309 21.9242C12.6268 21.9242 12.7228 21.9242 12.8187 21.9242C12.9937 21.9242 13.1659 21.9186 13.3409 21.927C13.3917 21.9299 13.4735 21.9666 13.4848 22.0032C13.4989 22.0512 13.4763 22.1387 13.4368 22.1726C13.2731 22.3081 13.0981 22.4266 12.9288 22.5564C12.8667 22.6044 12.8103 22.6608 12.7538 22.7145C12.7595 22.7286 12.7679 22.7399 12.7736 22.754C12.8554 22.754 12.9373 22.7596 13.0191 22.754C13.1856 22.7399 13.3522 22.7145 13.5187 22.7032C13.6203 22.6947 13.7275 22.7032 13.7557 22.8302C13.784 22.9515 13.7332 23.0362 13.6287 23.1039C13.5046 23.1858 13.3888 23.2761 13.2703 23.3692C13.2308 23.4003 13.1998 23.4483 13.1659 23.4878C13.1715 23.5019 13.1744 23.5188 13.18 23.5329C13.2618 23.5245 13.3437 23.5216 13.4255 23.5103C13.6203 23.4821 13.8122 23.4454 14.0069 23.4172C14.0859 23.4059 14.1396 23.4454 14.117 23.5273C14.0916 23.6232 14.0662 23.7277 14.0097 23.8067C13.9194 23.9252 13.8009 24.0183 13.6993 24.1256C13.657 24.1708 13.6259 24.2244 13.5892 24.2752C13.5977 24.2921 13.6062 24.3062 13.6146 24.3232C13.7021 24.2978 13.7924 24.2752 13.8799 24.247C14.0577 24.1905 14.2327 24.1256 14.4105 24.0776C14.5008 24.0522 14.5403 24.103 14.5403 24.2018C14.5431 24.4332 14.3823 24.5772 14.2694 24.7493C14.2158 24.8283 14.1678 24.9102 14.1142 24.992C14.1255 25.0061 14.1367 25.0231 14.148 25.0372C14.2158 25.0118 14.2891 24.9949 14.3541 24.961C14.498 24.8848 14.6363 24.7973 14.7774 24.7211C14.958 24.6251 15.0596 24.69 15.0737 24.8933C15.0907 25.1388 14.9072 25.2855 14.8084 25.4746C14.7774 25.5339 14.7492 25.5932 14.7181 25.6524C14.7294 25.6666 14.7379 25.6778 14.7492 25.692C14.8056 25.6637 14.8677 25.6468 14.9157 25.6101C14.9975 25.5508 15.0737 25.4831 15.1528 25.421L15.2233 25.2997L15.6241 24.6195L15.7003 24.4868L15.7144 24.4643L16.0361 23.9196L16.0615 23.8772C15.8075 23.6176 15.5761 23.3579 15.3898 23.0588Z" fill="white"/>
<path d="M31.6263 21.3144C31.4118 21.2269 31.1945 21.1451 30.9744 21.0717C30.7966 21.0124 30.6329 20.9475 30.5087 20.8008C30.393 20.6625 30.4043 20.558 30.5595 20.4593C30.6047 20.431 30.6527 20.4 30.7035 20.3887C31.0054 20.321 31.3103 20.2645 31.6122 20.1883C31.6884 20.1686 31.7477 20.0924 31.8126 20.0387C31.759 19.9823 31.711 19.923 31.6517 19.8751C31.6235 19.8525 31.5784 19.8525 31.5389 19.844C31.2453 19.7763 30.9518 19.7142 30.6611 19.6352C30.5482 19.6041 30.4212 19.5279 30.4353 19.3924C30.4438 19.2965 30.5031 19.1751 30.5793 19.1243C30.7063 19.0397 30.8643 18.9945 31.0139 18.9465C31.2284 18.876 31.4485 18.8252 31.663 18.7518C31.7025 18.7377 31.7449 18.6756 31.7477 18.6333C31.7477 18.6022 31.6884 18.5486 31.6489 18.5429C31.4739 18.5119 31.299 18.4978 31.1212 18.4752C30.9349 18.4498 30.7458 18.4385 30.568 18.3905C30.2829 18.3172 30.2293 18.0857 30.4353 17.8825C30.4918 17.8289 30.5539 17.7753 30.6216 17.7386C30.8587 17.606 31.1014 17.4874 31.3356 17.352C31.4203 17.304 31.4852 17.2193 31.5614 17.1516C31.5501 17.1318 31.5389 17.1121 31.5276 17.0895C31.3385 17.1064 31.1466 17.129 30.9575 17.1375C30.7148 17.1487 30.472 17.1713 30.2321 17.1403C29.9866 17.1092 29.9217 16.8835 30.1108 16.7198C30.3225 16.5363 30.5595 16.3839 30.791 16.2259C30.9292 16.1327 31.0562 16.034 31.1466 15.8533C31.0562 15.8533 31.0026 15.8505 30.949 15.8533C30.5708 15.8731 30.1898 15.8928 29.8116 15.9126C29.7016 15.9182 29.6056 15.8844 29.5548 15.7743C29.5012 15.6586 29.5689 15.5824 29.6451 15.5147C29.8568 15.3312 30.0769 15.1534 30.2914 14.97C30.4071 14.8712 30.5369 14.778 30.599 14.6059C30.5144 14.6059 30.4551 14.5946 30.3987 14.6087C30.2463 14.6454 30.0967 14.7047 29.9414 14.7357C29.71 14.7809 29.4758 14.8204 29.2415 14.8345C29.0609 14.8458 28.9537 14.6906 29.0214 14.5381C29.075 14.4196 29.1427 14.2983 29.2302 14.2023C29.3939 14.0189 29.583 13.8523 29.7495 13.6717C29.806 13.6096 29.8314 13.5165 29.8709 13.4375C29.7778 13.4488 29.679 13.4431 29.5943 13.477C29.3234 13.5814 29.0609 13.7112 28.7871 13.8015C28.6855 13.8354 28.4993 13.8241 28.4485 13.7592C28.3864 13.6774 28.4259 13.5193 28.4231 13.3951C28.4231 13.3782 28.44 13.3613 28.4513 13.3443C28.6093 13.1129 28.7759 12.8843 28.9254 12.6472C28.9791 12.5626 28.996 12.4553 29.027 12.3594C28.9254 12.3848 28.8154 12.3876 28.7279 12.4356C28.488 12.5597 28.265 12.7263 28.0195 12.8307C27.7598 12.9407 27.5143 12.9323 27.5623 12.54C27.5707 12.4722 27.5792 12.3989 27.6103 12.3396C27.6977 12.1674 27.7937 12.0009 27.8868 11.8344C27.9489 11.7215 28.0223 11.6171 28.0788 11.5014C28.0985 11.4591 28.0788 11.3998 28.0759 11.3462C28.0308 11.3546 27.9772 11.349 27.9405 11.3716C27.8332 11.4421 27.7344 11.524 27.6328 11.603C27.4607 11.7356 27.297 11.8852 27.1107 11.9896C27.0176 12.0433 26.868 12.0404 26.7579 12.0122C26.6338 11.9784 26.6676 11.8401 26.6704 11.7385C26.6733 11.6594 26.6902 11.5804 26.7156 11.507C26.7636 11.3575 26.82 11.2107 26.8793 11.0639C26.9386 10.9172 27.0091 10.7761 27.0599 10.6265C27.0797 10.5729 27.0599 10.508 27.0571 10.4487C27.0006 10.4684 26.9329 10.4769 26.8878 10.5108C26.8087 10.57 26.7466 10.6519 26.6733 10.7168C26.4785 10.8833 26.2866 11.0526 26.0806 11.2079C25.9733 11.2897 25.8379 11.2982 25.7137 11.2305C25.5895 11.1627 25.5895 11.0357 25.598 10.9144C25.6036 10.8551 25.6149 10.7958 25.6375 10.7422C25.7278 10.5023 25.8266 10.2652 25.9113 10.0253C25.9423 9.93785 25.9451 9.83907 25.9621 9.74594C25.9479 9.73747 25.931 9.729 25.9169 9.72054C25.8605 9.76287 25.8012 9.80238 25.7504 9.85318C25.5246 10.0761 25.3016 10.3019 25.0759 10.5249C24.963 10.6378 24.819 10.6434 24.6892 10.587C24.6215 10.5588 24.5453 10.4656 24.5368 10.3922C24.5171 10.2624 24.5283 10.1241 24.5594 9.9943C24.613 9.75441 24.692 9.52298 24.7513 9.28309C24.7626 9.23793 24.7428 9.18148 24.7372 9.13068C24.6864 9.1448 24.6243 9.1448 24.5904 9.17584C24.5114 9.24922 24.4465 9.33671 24.3788 9.4242C24.232 9.61047 24.0909 9.80238 23.9441 9.98583C23.8454 10.11 23.7183 10.1777 23.5659 10.1128C23.4164 10.0507 23.3966 9.90681 23.3966 9.76287C23.3966 9.4242 23.3966 9.08835 23.3966 8.74968C23.3966 8.69888 23.391 8.64808 23.3853 8.59728C23.3599 8.58034 23.3345 8.56059 23.3063 8.54365C23.2753 8.6001 23.2442 8.65654 23.216 8.71581C23.1539 8.8541 23.1003 9.00086 23.0269 9.13351C22.9196 9.32542 22.818 9.5258 22.6769 9.68949C22.533 9.85601 22.2846 9.7911 22.231 9.58789C22.1859 9.42138 22.1576 9.24922 22.1463 9.07988C22.1322 8.88232 22.1463 8.68194 22.1379 8.48439C22.1351 8.43923 22.0927 8.39689 22.0673 8.35174C22.0278 8.37432 21.9827 8.39407 21.9488 8.42512C21.9177 8.45616 21.898 8.4985 21.8839 8.53801C21.8246 8.7017 21.7795 8.86821 21.7117 9.02908C21.6468 9.18149 21.5706 9.33389 21.4746 9.46936C21.3533 9.63587 21.2094 9.63023 21.0852 9.46653C21.0344 9.3988 20.9949 9.31131 20.9751 9.22664C20.9158 8.97264 20.8735 8.71581 20.8114 8.46181C20.786 8.36585 20.7945 8.20498 20.6477 8.21627C20.5151 8.22474 20.5066 8.37149 20.4784 8.48156C20.4135 8.73274 20.3542 8.98675 20.2724 9.23511C20.2413 9.32824 20.1651 9.41291 20.0917 9.48065C19.9986 9.56249 19.8942 9.55685 19.8321 9.43549C19.7615 9.2972 19.6882 9.15326 19.643 9.0065C19.5781 8.79483 19.5442 8.5747 19.4849 8.36021C19.4652 8.29247 19.4087 8.23603 19.3664 8.17676C19.3213 8.24449 19.2761 8.3094 19.2338 8.37714C19.2253 8.39125 19.2338 8.41665 19.2281 8.43641C19.1604 8.74403 19.1124 9.05731 19.0165 9.35647C18.9402 9.59918 18.7596 9.69232 18.5705 9.46089C18.4859 9.35929 18.4125 9.2464 18.356 9.12786C18.2629 8.92748 18.198 8.71299 18.102 8.51261C18.0653 8.43923 17.975 8.39125 17.9101 8.33198C17.8734 8.41101 17.8311 8.48721 17.8001 8.56905C17.7888 8.59445 17.7972 8.62832 17.7972 8.65654C17.7972 8.91055 17.8001 9.16173 17.7944 9.41573C17.7916 9.48911 17.7831 9.56814 17.7521 9.63305C17.6505 9.84754 17.5178 9.87859 17.3767 9.69232C17.1848 9.43831 17.0352 9.15608 16.8602 8.88797C16.8038 8.80048 16.7276 8.72146 16.6627 8.63961C16.6401 8.6509 16.6203 8.65937 16.5978 8.67065C16.6091 8.87104 16.626 9.06859 16.6316 9.26898C16.6401 9.46936 16.674 9.6782 16.6373 9.87294C16.5837 10.1608 16.324 10.2257 16.1377 10.0056C15.9402 9.77416 15.7793 9.50887 15.5959 9.26615C15.5422 9.19277 15.4999 9.06013 15.3729 9.1194C15.2572 9.17302 15.2967 9.30002 15.3052 9.40162C15.308 9.42138 15.3221 9.43831 15.3249 9.45807C15.3729 9.67538 15.4322 9.88987 15.4689 10.1072C15.4858 10.2116 15.483 10.3273 15.4632 10.4317C15.4237 10.666 15.2685 10.7366 15.0822 10.5926C14.8988 10.4515 14.7407 10.2765 14.5714 10.1157C14.4613 10.0084 14.3569 9.8927 14.2412 9.79392C14.1988 9.75723 14.1283 9.75158 14.0718 9.73465C14.0634 9.7911 14.038 9.85036 14.0493 9.90399C14.0831 10.0592 14.117 10.2144 14.1763 10.3612C14.2666 10.587 14.2976 10.8184 14.2835 11.0583C14.2694 11.2925 14.1001 11.397 13.911 11.2615C13.6937 11.1006 13.4933 10.9144 13.2873 10.7394C13.1659 10.635 13.0474 10.5249 12.8526 10.491C12.8611 10.5672 12.8526 10.6293 12.8724 10.6801C12.9627 10.92 13.0671 11.1543 13.1574 11.3941C13.2054 11.524 13.2534 11.6566 13.2647 11.7921C13.2844 12.0179 13.1264 12.1166 12.9175 12.015C12.8244 11.9699 12.7426 11.905 12.6607 11.8401C12.4603 11.6877 12.2656 11.5296 12.0624 11.3772C12.0285 11.3518 11.9721 11.3546 11.9269 11.3433C11.9213 11.3941 11.8987 11.4534 11.9156 11.4957C11.9693 11.6284 12.0342 11.7554 12.1019 11.8796C12.2007 12.0658 12.3136 12.2465 12.4039 12.4384C12.5168 12.6811 12.4152 12.8391 12.1527 12.8137C11.989 12.7968 11.8253 12.7206 11.6701 12.6529C11.4641 12.5626 11.2637 12.4525 11.0577 12.3594C11.0153 12.3396 10.9561 12.3622 10.9024 12.365C10.9137 12.4158 10.9137 12.4751 10.9419 12.5118C11.0266 12.6331 11.131 12.7404 11.2157 12.8617C11.3568 13.0593 11.4979 13.254 11.6221 13.46C11.7294 13.635 11.6193 13.8185 11.4104 13.8269C11.3173 13.8298 11.2185 13.8185 11.1339 13.7874C10.8573 13.683 10.5863 13.5645 10.3098 13.46C10.2533 13.4403 10.1771 13.4685 10.1094 13.4742C10.1291 13.5391 10.1348 13.6181 10.1743 13.6632C10.3662 13.8693 10.5722 14.064 10.7698 14.2672C10.8375 14.3378 10.9053 14.414 10.9561 14.4958C11.0464 14.6454 10.973 14.8204 10.8037 14.8317C10.6343 14.843 10.4593 14.8232 10.29 14.7978C10.0812 14.7639 9.87795 14.7047 9.6691 14.668C9.58443 14.6539 9.49694 14.6652 9.41228 14.6652C9.40381 14.6849 9.39252 14.7047 9.38405 14.7244C9.51952 14.8486 9.65499 14.9756 9.79328 15.097C9.97109 15.2522 10.163 15.3933 10.3323 15.5598C10.4819 15.7094 10.4057 15.9549 10.2025 15.9634C9.93722 15.9747 9.6691 15.9465 9.40381 15.9352C9.22883 15.9267 9.05385 15.9182 8.8704 15.9098C8.92402 16.0678 9.01434 16.1553 9.15545 16.2315C9.38123 16.3529 9.60701 16.4742 9.82433 16.6069C9.93722 16.6774 10.0247 16.779 9.97955 16.9286C9.9344 17.081 9.81304 17.1064 9.67475 17.1064C9.32196 17.1036 8.96918 17.1064 8.6164 17.1064C8.5656 17.1064 8.51197 17.1121 8.46117 17.1149C8.45553 17.129 8.44706 17.1431 8.44142 17.16C8.50351 17.208 8.55995 17.2645 8.62769 17.304C8.91556 17.4648 9.20625 17.6201 9.49412 17.7809C9.61548 17.8487 9.71144 17.9446 9.68886 18.1027C9.6691 18.224 9.53081 18.3369 9.36994 18.3539C9.11029 18.3821 8.85065 18.3962 8.58817 18.4188C8.52608 18.4244 8.45553 18.4244 8.4019 18.4526C8.34264 18.4837 8.29466 18.5429 8.24386 18.5909C8.29466 18.6389 8.33417 18.7095 8.39344 18.7349C8.64462 18.8365 8.90427 18.9211 9.15545 19.0227C9.25423 19.0622 9.34736 19.1215 9.42921 19.1892C9.67192 19.3896 9.57032 19.5646 9.32479 19.6436C9.03974 19.7339 8.74058 19.7819 8.44706 19.8553C8.3765 19.8722 8.30312 19.8948 8.24386 19.9343C8.1479 19.9992 8.15637 20.0783 8.26079 20.1262C8.33981 20.1629 8.43013 20.1827 8.5148 20.2024C8.78291 20.2702 9.05385 20.3294 9.31914 20.4056C9.4405 20.4395 9.57032 20.5101 9.56186 20.6512C9.55621 20.7471 9.49412 20.8685 9.42074 20.9193C9.29374 21.004 9.13569 21.0491 8.98611 21.0971C8.77162 21.1677 8.55149 21.2213 8.33699 21.289C8.3003 21.3003 8.25232 21.3567 8.25232 21.3906C8.25232 21.4273 8.29748 21.4809 8.33699 21.495C8.43295 21.5289 8.53455 21.5543 8.63898 21.5656C8.88451 21.5938 9.13005 21.6023 9.37559 21.6333C9.51106 21.6503 9.63524 21.7124 9.68321 21.8563C9.73119 22.0002 9.6437 22.0905 9.54775 22.178C9.49694 22.2232 9.44332 22.2683 9.38123 22.3022C9.14416 22.432 8.90145 22.5534 8.6672 22.6889C8.58253 22.7397 8.5148 22.8187 8.43859 22.8864C8.44988 22.9062 8.45835 22.9288 8.46964 22.9485C8.65309 22.9344 8.83936 22.9118 9.0228 22.9062C9.26834 22.8949 9.51952 22.8695 9.76224 22.8977C10.0078 22.9259 10.0755 23.1545 9.88924 23.3154C9.67757 23.4988 9.43768 23.6484 9.2119 23.8149C9.10747 23.8911 8.9974 23.9561 8.90145 24.0407C8.85911 24.0802 8.81396 24.1705 8.92402 24.1818C9.07643 24.1959 9.23165 24.1818 9.38405 24.1762C9.67475 24.1621 9.96544 24.1367 10.2561 24.1395C10.321 24.1395 10.4114 24.2185 10.4396 24.2834C10.4622 24.3371 10.4311 24.4471 10.386 24.4895C10.194 24.6729 9.98802 24.8422 9.78199 25.0116C9.64088 25.1301 9.48848 25.2374 9.39534 25.4265C9.45743 25.4321 9.4913 25.4434 9.52235 25.4377C9.6945 25.3982 9.86948 25.3615 10.0388 25.3079C10.2731 25.2374 10.5073 25.1809 10.7529 25.2007C10.9617 25.2176 11.0577 25.3728 10.9561 25.5506C10.8827 25.6776 10.7952 25.799 10.6992 25.9091C10.5384 26.084 10.3606 26.2449 10.1997 26.4199C10.1574 26.4651 10.1489 26.5384 10.1235 26.6005C10.1884 26.6005 10.259 26.6203 10.3154 26.6005C10.4904 26.5356 10.6569 26.4453 10.8319 26.3832C11.021 26.3155 11.2129 26.2421 11.4076 26.2223C11.6108 26.2026 11.7152 26.3889 11.608 26.5667C11.433 26.8517 11.2383 27.1255 11.0605 27.4077C11.0097 27.4895 10.9956 27.5911 10.9645 27.6843C11.0661 27.6617 11.1762 27.6589 11.2637 27.6109C11.5036 27.4867 11.7237 27.3174 11.9721 27.2158C12.2712 27.0944 12.4744 27.1339 12.4321 27.5149C12.4236 27.577 12.4152 27.6448 12.3869 27.7012C12.2995 27.8734 12.2035 28.0399 12.1104 28.2064C12.0483 28.3136 11.9777 28.4152 11.9269 28.5253C11.9043 28.5733 11.9213 28.6382 11.9184 28.6946C11.9693 28.6862 12.0257 28.6918 12.0652 28.6664C12.1725 28.5959 12.2712 28.5112 12.3728 28.435C12.5422 28.3052 12.7002 28.1584 12.8837 28.0568C12.9824 28.0032 13.1348 28.0088 13.2477 28.0427C13.2957 28.0568 13.3155 28.2092 13.3239 28.3023C13.3296 28.3785 13.307 28.4604 13.2816 28.5338C13.228 28.6918 13.1687 28.8499 13.1066 29.0051C13.0474 29.1547 12.9768 29.3014 12.9204 29.4538C12.9062 29.4933 12.9288 29.547 12.9373 29.5921C12.9824 29.5808 13.0361 29.5837 13.0728 29.5583C13.1405 29.5103 13.1969 29.4425 13.259 29.3889C13.4792 29.1998 13.6908 28.9966 13.9279 28.8301C14.0097 28.7737 14.1678 28.7821 14.2779 28.8132C14.4049 28.8499 14.4077 28.9882 14.3992 29.1067C14.3936 29.1744 14.3795 29.245 14.3541 29.3071C14.2638 29.547 14.165 29.784 14.0803 30.0268C14.0493 30.1114 14.0521 30.2074 14.038 30.3005C14.0549 30.3062 14.0718 30.3118 14.086 30.3174C14.1424 30.2723 14.2017 30.23 14.2553 30.1792C14.4782 29.959 14.6984 29.7389 14.9185 29.5159C15.0314 29.403 15.1753 29.3946 15.3052 29.451C15.3757 29.4821 15.4519 29.5808 15.4604 29.657C15.4773 29.7897 15.4604 29.9336 15.4293 30.0663C15.3785 30.2977 15.3023 30.5235 15.2431 30.7521C15.2318 30.7972 15.2544 30.8537 15.26 30.9045C15.3108 30.8904 15.3729 30.8904 15.4068 30.8565C15.483 30.7859 15.5451 30.7041 15.61 30.6223C15.7596 30.4303 15.9035 30.2356 16.0531 30.0465C16.149 29.9223 16.2817 29.8574 16.4341 29.9195C16.5808 29.9816 16.6034 30.1255 16.6034 30.2723C16.6034 30.611 16.6034 30.9468 16.6034 31.2855C16.6034 31.3363 16.6091 31.3871 16.6147 31.4351C16.6401 31.452 16.6627 31.4689 16.6881 31.483C16.7191 31.4266 16.753 31.373 16.7812 31.3137C16.8461 31.1754 16.8969 31.0287 16.9703 30.896C17.0776 30.7041 17.1792 30.5037 17.3203 30.34C17.4755 30.165 17.7267 30.2469 17.7747 30.4727C17.8142 30.6646 17.8367 30.8621 17.8509 31.0569C17.8621 31.2206 17.848 31.3843 17.8565 31.548C17.8593 31.5931 17.9045 31.6354 17.9299 31.6778C17.9694 31.6524 18.0287 31.6383 18.0456 31.6044C18.1133 31.4633 18.1613 31.3109 18.2262 31.167C18.3109 30.9722 18.3871 30.7718 18.4943 30.594C18.6185 30.3908 18.802 30.3965 18.9346 30.5884C18.9572 30.6194 18.9741 30.6589 18.9826 30.6956C19.0644 31.0202 19.1406 31.3476 19.2253 31.6693C19.2394 31.7258 19.2987 31.7709 19.3354 31.8217C19.3833 31.7766 19.4539 31.7399 19.4737 31.6862C19.5188 31.5564 19.5329 31.4153 19.5753 31.2855C19.6543 31.0597 19.7164 30.8198 19.8377 30.6166C19.9506 30.4275 20.1228 30.4557 20.2046 30.6618C20.2921 30.8791 20.3486 31.1077 20.4163 31.3335C20.4558 31.4605 20.4812 31.5931 20.5264 31.7173C20.5433 31.7596 20.6026 31.8076 20.6449 31.8104C20.6759 31.8104 20.7296 31.7483 20.7409 31.7032C20.7775 31.5564 20.7888 31.4012 20.8283 31.2544C20.8904 31.0174 20.9525 30.7775 21.0457 30.5517C21.1078 30.4049 21.2489 30.3936 21.3646 30.5094C21.4492 30.5969 21.5311 30.6928 21.5847 30.8029C21.6948 31.0343 21.7766 31.277 21.8895 31.5084C21.9262 31.5846 22.0222 31.6354 22.0899 31.6975C22.1266 31.6157 22.1633 31.5367 22.1943 31.4548C22.2056 31.4294 22.1971 31.3956 22.1971 31.3673C22.1971 31.119 22.1915 30.8706 22.2 30.6223C22.2028 30.5404 22.2169 30.4529 22.2536 30.3795C22.358 30.1763 22.4766 30.1509 22.612 30.3316C22.8039 30.5912 22.962 30.8763 23.1341 31.15C23.1934 31.2432 23.2386 31.3504 23.4051 31.373C23.3881 31.1472 23.3656 30.9383 23.3571 30.7267C23.3486 30.5348 23.3261 30.3372 23.3599 30.1538C23.4051 29.911 23.628 29.8236 23.7917 29.9562C23.8792 30.0268 23.9582 30.1142 24.0232 30.2046C24.1756 30.4162 24.3167 30.6392 24.4691 30.8537C24.4973 30.8932 24.5791 30.9271 24.6158 30.9129C24.6553 30.8988 24.6977 30.8198 24.6949 30.7747C24.6779 30.6251 24.6356 30.4755 24.6102 30.3259C24.5763 30.103 24.5283 29.8772 24.5283 29.6514C24.5312 29.3776 24.709 29.2958 24.9347 29.4482C24.9799 29.4792 25.0194 29.5159 25.0589 29.5526C25.2734 29.7671 25.4851 29.9816 25.7024 30.1933C25.7617 30.2497 25.8379 30.2836 25.9084 30.3287C25.9282 30.3146 25.9479 30.3005 25.9677 30.2864C25.9367 30.1396 25.9225 29.9901 25.8746 29.849C25.7842 29.5667 25.677 29.2901 25.7052 28.9825C25.7278 28.7398 25.8859 28.6382 26.0862 28.7737C26.2415 28.8781 26.3826 29.0023 26.5293 29.1208C26.6704 29.2365 26.8059 29.3607 26.9498 29.4736C26.9922 29.5075 27.0571 29.5103 27.1107 29.5272C27.1135 29.4679 27.1361 29.4002 27.1164 29.3494C27.0289 29.1123 26.9216 28.8866 26.8426 28.6467C26.7862 28.4717 26.7608 28.2854 26.7269 28.102C26.7128 28.0229 26.7551 27.9947 26.837 27.9863C27.043 27.9609 27.1841 28.0794 27.3309 28.1895C27.5341 28.3447 27.7344 28.5084 27.9405 28.6608C27.9743 28.6862 28.0308 28.6805 28.0759 28.689C28.0816 28.641 28.1013 28.5874 28.0872 28.5479C28.0505 28.4519 28.0026 28.3616 27.9546 28.2685C27.8332 28.0314 27.6921 27.8056 27.5933 27.5601C27.5538 27.4613 27.5707 27.3033 27.6244 27.213C27.6949 27.0972 27.8332 27.1622 27.9348 27.2101C28.2283 27.3456 28.519 27.4895 28.8154 27.625C28.8972 27.6617 28.9903 27.6786 29.0807 27.704C29.0948 27.6871 29.1061 27.6673 29.1202 27.6504C29.0242 27.5093 28.9311 27.371 28.8351 27.2299C28.6827 27.0013 28.519 26.7783 28.3779 26.5441C28.2848 26.3917 28.3807 26.2252 28.5614 26.2139C28.663 26.2082 28.773 26.2195 28.8662 26.2534C29.1427 26.355 29.4137 26.4735 29.6903 26.5836C29.758 26.6118 29.8483 26.6485 29.8822 26.561C29.8991 26.5159 29.8652 26.4284 29.8286 26.386C29.7241 26.2675 29.6056 26.1602 29.4955 26.0445C29.346 25.8865 29.1851 25.7369 29.0553 25.5619C28.9283 25.3926 29.027 25.2007 29.2387 25.2007C29.4137 25.2007 29.5887 25.2345 29.7636 25.2628C29.9527 25.2938 30.139 25.3418 30.3281 25.37C30.4099 25.3841 30.4974 25.3728 30.5821 25.3728C30.5906 25.3531 30.599 25.3305 30.6075 25.3107C30.4692 25.1866 30.3366 25.0596 30.1955 24.9382C30.0205 24.7858 29.8342 24.6475 29.6705 24.481C29.6169 24.4274 29.5887 24.3032 29.6084 24.2298C29.6282 24.1621 29.727 24.0746 29.7947 24.0718C30.06 24.0661 30.3253 24.0915 30.5934 24.1C30.7684 24.1056 30.9405 24.1 31.1607 24.1C31.076 24.0069 31.0252 23.9307 30.9575 23.8827C30.853 23.8093 30.743 23.7416 30.6244 23.6964C30.3817 23.6005 30.2632 23.4509 30.2971 23.1771C30.3225 22.9796 30.3507 22.9288 30.5454 22.9288C30.8276 22.9288 31.1099 22.9288 31.3949 22.9288C31.4429 22.9288 31.4881 22.9231 31.5699 22.9175C31.5163 22.8554 31.4937 22.8074 31.4542 22.7848C31.3244 22.7058 31.1861 22.6381 31.0534 22.5647C30.8756 22.4687 30.7006 22.3728 30.5228 22.274C30.4212 22.2175 30.4156 22.1272 30.472 22.0454C30.6414 21.8055 30.8135 21.5684 31.172 21.6136C31.3187 21.6333 31.4768 21.6023 31.6263 21.5741C31.6743 21.5656 31.7421 21.4894 31.7421 21.4442C31.7421 21.3991 31.6771 21.3342 31.6263 21.3144ZM16.801 11.9614C16.9534 11.6792 17.1707 11.4986 17.436 11.3405C17.7154 11.1768 18.0258 11.1401 18.3335 11.0724C19.2309 10.8692 20.1397 10.9764 21.0428 10.9708C21.4069 10.968 21.771 11.0809 22.1322 11.1627C22.4399 11.2333 22.7475 11.3179 23.0438 11.428C23.5772 11.6284 24.105 11.8485 24.5961 12.1477C25.1267 12.4666 25.6403 12.8053 26.0834 13.2456C26.3092 13.4685 26.5293 13.6971 26.7579 13.9173C27.2038 14.3547 27.5369 14.8712 27.8614 15.3989C28.2001 15.9521 28.4428 16.5476 28.6658 17.1544C28.8267 17.589 28.8775 18.0349 28.8154 18.478C28.7589 18.8703 28.5021 19.1526 28.1324 19.336C28.0392 19.3812 27.9461 19.4037 27.853 19.415V19.4207H27.7768C27.7062 19.4235 27.6357 19.4235 27.5651 19.4207H27.4353H27.2942C27.2744 19.4235 27.2518 19.4235 27.2321 19.4263C27.2321 19.4235 27.2293 19.4235 27.2293 19.4207L26.2838 19.4235H25.5302H25.3073C25.2932 19.4235 25.2791 19.4263 25.2621 19.4263C25.2085 19.4263 25.1549 19.4263 25.1013 19.4263L23.9724 19.4291V19.4263C23.7409 19.4263 23.5123 19.4263 23.2837 19.4263C22.66 19.4263 22.0335 19.4517 21.4097 19.4207C20.6985 19.384 20.1397 19.0622 19.7898 18.4131C19.6176 18.0914 19.4285 17.7809 19.2451 17.4677C19.0475 17.1205 18.8499 16.7734 18.6524 16.4291C18.4548 16.0876 18.2544 15.7489 18.0569 15.4074C17.992 15.2973 17.9496 15.2155 17.9242 15.1534L16.7643 13.1524L16.7671 13.1496C16.7219 13.0677 16.6796 12.9831 16.674 12.8984C16.6486 12.5823 16.6345 12.2662 16.801 11.9614ZM20.4897 20.0387C20.4897 20.3069 20.2724 20.527 20.0014 20.527C19.7305 20.527 19.5132 20.3097 19.5132 20.0387C19.5132 19.7706 19.7305 19.5505 20.0014 19.5505C20.2724 19.5505 20.4897 19.7678 20.4897 20.0387ZM16.4905 24.8592L16.4595 24.91L16.3776 25.0511L16.2732 25.2289C16.1519 25.4293 16.0333 25.6297 15.9148 25.83C15.847 25.9429 15.7821 26.053 15.7172 26.1659C15.7144 26.18 15.7116 26.1941 15.7031 26.2026C15.4237 26.4989 15.1499 26.8009 14.7266 26.8997C14.3484 26.9872 14.0069 26.9025 13.7303 26.6513C13.0897 26.0671 12.5873 25.3728 12.1414 24.6306C11.7689 24.0097 11.4866 23.3464 11.2806 22.6578C11.1451 22.2119 11.0887 21.7434 11.004 21.2834C10.8714 20.5806 10.9617 19.8694 10.9532 19.161C10.9504 18.8844 11.0153 18.6022 11.0831 18.3313C11.227 17.7781 11.3653 17.2193 11.56 16.6803C11.7068 16.271 11.9128 15.8787 12.1301 15.5005C12.3559 15.1082 12.6156 14.7329 12.8837 14.3688C13.228 13.9003 13.6146 13.4629 14.165 13.2258C14.4331 13.1101 14.7266 13.1242 15.0032 13.223C15.4209 13.3697 15.6495 13.7056 15.8386 14.0781C15.8414 14.0866 15.8442 14.0951 15.8442 14.1035L16.42 15.1026L16.7953 15.7545C16.8094 15.7743 16.8236 15.7969 16.8405 15.8251C17.1114 16.2992 17.3908 16.7677 17.6618 17.2419C17.9242 17.6991 18.1895 18.1535 18.4379 18.6163C18.5959 18.9098 18.7512 19.209 18.8697 19.5195C18.9911 19.8412 18.9572 20.1855 18.8979 20.5157C18.8217 20.9475 18.5592 21.2975 18.3504 21.67C18.1246 22.068 17.8904 22.4603 17.6618 22.8554C17.6505 22.878 17.6392 22.9005 17.6279 22.9231L17.5207 23.1066C17.4727 23.1828 17.4247 23.259 17.3824 23.3408L17.3485 23.3972L17.2864 23.5017L17.1679 23.7021C17.0634 23.8799 16.9618 24.0577 16.8574 24.2383C16.8461 24.2609 16.832 24.2778 16.8179 24.2947L16.8066 24.3145L16.4905 24.8592ZM28.7871 22.4349C28.6771 22.7679 28.5811 23.1066 28.4456 23.4283C28.2763 23.8262 28.0929 24.2185 27.8755 24.5939C27.6526 24.9777 27.4014 25.3446 27.1361 25.703C26.789 26.1687 26.3939 26.5921 25.9395 26.9533C25.6177 27.2073 25.3016 27.4726 24.9573 27.6927C24.5679 27.9411 24.1671 28.181 23.7437 28.3616C23.2527 28.5733 22.7362 28.7398 22.2197 28.8866C21.8246 28.9994 21.4097 29.0503 21.0033 29.1236C20.9412 29.1349 20.8735 29.1321 20.8114 29.1321C20.3401 29.1321 19.8688 29.1462 19.3975 29.1264C19.0729 29.1152 18.7512 29.0615 18.4294 29.0164C18.2206 28.9853 18.0117 28.9486 17.8057 28.8922C17.2808 28.7454 16.8602 28.4689 16.6965 27.9129C16.6062 27.6024 16.6599 27.2948 16.7643 26.9956C16.7812 26.9505 16.7982 26.9025 16.8236 26.8602L17.0945 26.3889L17.4868 25.703L17.563 25.5704L17.5771 25.5478L17.8904 24.9975C17.896 24.9834 17.9017 24.9692 17.9101 24.9551C18.0682 24.6757 18.2262 24.3992 18.3871 24.1226C18.4859 23.9504 18.5875 23.7783 18.6862 23.6061L18.7512 23.4904C18.9064 23.2251 19.0616 22.957 19.2168 22.6889C19.3946 22.3784 19.5696 22.0623 19.7446 21.749C20.0409 21.2213 20.5123 20.9193 21.0739 20.75C21.2545 20.6963 21.4521 20.6653 21.6412 20.6653C22.8406 20.6568 24.0429 20.6625 25.2452 20.6596C25.2734 20.6596 25.296 20.6596 25.3186 20.6625H26.1257H26.8257H27.1164H27.4522C27.582 20.6568 27.7119 20.654 27.836 20.6681C28.155 20.7076 28.4005 20.8854 28.6037 21.131C28.9311 21.5289 28.9424 21.972 28.7871 22.4349Z" fill="white"/>
</svg>
