<svg width="40" height="40" viewBox="0 0 40 40" fill="none" xmlns="http://www.w3.org/2000/svg">
<path d="M24.0316 18.2236C23.9724 18.0204 23.8369 17.8906 23.724 17.8003C23.3994 17.5378 23.0749 17.2725 22.7503 17.0072L22.1774 16.5359C22.0193 16.4061 21.8613 16.2763 21.7033 16.1493C21.548 16.0279 21.3561 15.9827 21.1755 16.0279C21.0005 16.0702 20.8537 16.1944 20.7804 16.3666C20.6703 16.6206 20.7409 16.8915 20.9666 17.0778C21.2037 17.2725 21.4408 17.4673 21.6807 17.662L21.7061 17.6846H14.9242H14.9016C14.8705 17.6846 14.8367 17.6846 14.8056 17.6874C14.5347 17.7072 14.3089 17.9075 14.2581 18.1728C14.2073 18.4409 14.3569 18.7175 14.6052 18.8191C14.6899 18.853 14.7915 18.8699 14.9101 18.8699L21.675 18.8727L21.6694 18.8756C21.4295 19.0477 21.1896 19.2199 20.9497 19.3949C20.7719 19.5219 20.6731 19.7138 20.6788 19.917C20.6816 20.1089 20.7775 20.2811 20.9412 20.3883C21.04 20.456 21.1529 20.4871 21.2658 20.4871C21.3928 20.4871 21.5198 20.4448 21.6327 20.3629L22.4032 19.8097C22.8265 19.5049 23.247 19.203 23.6732 18.901C23.8256 18.7909 23.9752 18.6611 24.0344 18.4438L24.0401 18.266L24.0316 18.2236Z" fill="white"/>
<path d="M20.7719 3.76506C20.484 3.17238 20.0099 2.84782 19.3467 2.84782C16.0502 2.845 12.7538 2.845 9.45743 2.84782C9.24858 2.84782 9.04256 2.87322 8.85064 2.96353C8.23821 3.2514 7.91365 3.73401 7.91365 4.41418C7.91083 6.85262 7.91083 9.29388 7.91083 11.7323C7.91083 15.3505 7.91083 18.9686 7.91365 22.5868C7.91365 23.5943 7.91365 24.6019 7.91365 25.6066C7.91365 25.8465 7.95316 26.0779 8.06323 26.2924C8.36239 26.8766 8.85064 27.1645 9.49976 27.1645C11.7322 27.1673 13.9646 27.1673 16.1942 27.1673C16.1914 26.8879 16.2083 26.6085 16.2083 26.3263C16.2083 25.6517 16.2252 24.9772 16.2139 24.3027C16.2139 24.2434 16.2168 24.1898 16.2252 24.1362C13.8094 24.1362 11.3935 24.1362 8.98047 24.1362V4.99557H19.945V6.74537H20.2724V6.74819H20.4417C20.5941 6.74537 20.7465 6.74255 20.8961 6.74255C20.8961 5.97207 20.8961 5.20159 20.8961 4.43111C20.8961 4.19969 20.8735 3.97108 20.7719 3.76506ZM14.4077 24.5257C14.9891 24.5257 15.4773 25.0139 15.4773 25.6009C15.4773 26.1993 15.006 26.6762 14.4049 26.679C13.8094 26.6819 13.3268 26.1993 13.3268 25.6038C13.3324 25.0111 13.815 24.5257 14.4077 24.5257ZM15.7116 4.41136C15.2769 4.41136 14.8395 4.41136 14.4049 4.41136C13.9702 4.41136 13.5328 4.41136 13.0982 4.41136C13.0078 4.41136 12.9345 4.39724 12.9316 4.28435C12.9288 4.16864 13.0135 4.15453 13.0982 4.15453C13.9702 4.15453 14.8423 4.15453 15.7116 4.15453C15.7991 4.15453 15.8781 4.16864 15.8781 4.28435C15.8781 4.39724 15.8019 4.41136 15.7116 4.41136Z" fill="white"/>
<path d="M32.0892 29.0074C32.0892 28.7195 32.0864 28.4288 32.0835 28.141V28.0902C32.0807 27.8475 32.0779 27.6047 32.0779 27.362C32.0751 25.5671 32.0751 23.7749 32.0779 21.98C32.0779 21.2462 32.0807 20.5152 32.0835 19.7814C32.0864 19.0476 32.0864 18.3166 32.0892 17.5829C32.0892 17.2922 32.0864 17.0015 32.0864 16.7108V16.6487C32.0835 16.3778 32.0835 16.1068 32.0835 15.8359C32.0835 14.4671 32.0864 13.0955 32.0864 11.7238V10.863C32.0864 10.6034 32.0723 10.2986 31.9678 9.99378C31.8098 9.53375 31.5445 9.15839 31.1748 8.87898C30.7712 8.57136 30.3422 8.41331 29.9019 8.40767C28.9226 8.39638 27.9376 8.39355 27.0938 8.39355C26.6253 8.39355 26.1596 8.39638 25.6939 8.39638H25.5387C25.1182 8.3992 24.6977 8.3992 24.2772 8.40202C22.818 8.40484 21.3872 8.40484 19.9309 8.40202C19.5668 8.40202 19.2366 8.4754 18.9515 8.62216C18.0964 9.05679 17.6505 9.75671 17.6194 10.7022C17.6081 11.0267 17.611 11.3513 17.6138 11.6674C17.6138 11.8029 17.6166 11.9383 17.6166 12.0738V16.3524H18.7709V10.7106C18.7709 10.2083 19.1039 9.75671 19.5837 9.6156C19.7051 9.57891 19.8349 9.55915 19.9534 9.55633C20.2103 9.55068 20.4727 9.55068 20.7267 9.55068H21.0287C21.2206 9.55068 21.2602 9.58737 21.2743 9.77929C21.3025 10.2196 21.6694 10.5639 22.1097 10.5639H24.1812C25.3158 10.5639 26.4531 10.5639 27.5905 10.5667C27.805 10.5667 28.0223 10.4736 28.186 10.3071C28.344 10.149 28.4315 9.9458 28.4315 9.73695C28.4315 9.65229 28.4598 9.55351 28.5952 9.55351C29.0045 9.55068 29.4673 9.54504 29.916 9.56762C30.218 9.58173 30.4833 9.73978 30.7091 10.0305C30.8643 10.2337 30.9405 10.4792 30.9405 10.784C30.9377 11.8395 30.9377 12.8923 30.9377 13.9478C30.9377 14.7945 30.9377 15.6411 30.9377 16.4878C30.9377 16.7023 30.9349 16.914 30.9321 17.1285V17.1454C30.9292 17.3797 30.9236 17.6167 30.9236 17.851C30.9264 19.4371 30.9264 21.0232 30.9292 22.6065C30.9321 24.3676 30.9349 26.1315 30.9377 27.8926C30.9377 28.1127 30.9349 28.3357 30.9292 28.5502V28.5615C30.9236 28.7901 30.9208 29.0243 30.9208 29.2558C30.9208 29.9472 30.9236 30.6387 30.9264 31.3273V31.4656C30.9292 32.5014 30.9349 33.6726 30.9349 34.81C30.9349 35.3236 30.6978 35.6821 30.2152 35.9107C30.1023 35.9643 29.9951 35.9869 29.8822 35.9841C29.6112 35.9812 29.3403 35.9812 29.1004 35.9841C28.9621 35.9841 28.8267 35.9869 28.6884 35.9869L26.6676 35.9897C24.4239 35.9925 22.1774 35.9982 19.9309 36.001C19.4398 36.001 18.9995 35.6821 18.8358 35.2107C18.7963 35.0979 18.7766 34.9821 18.7766 34.8749C18.7737 31.9172 18.7737 28.9594 18.7737 26.0017V20.3487H17.611V22.5755H17.6081V25.2481C17.6081 28.4429 17.6081 31.6378 17.6053 34.8326C17.6053 35.2164 17.7013 35.5805 17.8904 35.9191C18.3476 36.732 19.0475 37.144 19.9704 37.1468C21.1586 37.1496 22.3467 37.1496 23.5349 37.1496L26.5886 37.1468C27.2518 37.1468 27.9151 37.144 28.5783 37.144C28.6799 37.144 28.7815 37.1468 28.8859 37.1468C28.9791 37.1468 29.0722 37.1468 29.1653 37.1496H29.1907C29.377 37.1525 29.5604 37.1525 29.7467 37.1525C30.139 37.1525 30.4946 37.0678 30.7994 36.9013C31.6292 36.4497 32.0581 35.7526 32.0751 34.8269C32.0807 34.5447 32.0779 34.2625 32.0779 33.9887V33.9548C32.0779 33.8109 32.0779 33.667 32.0779 33.5259L32.0835 31.9031C32.0864 30.9407 32.0892 29.9726 32.0892 29.0074Z" fill="white"/>
</svg>
