<svg width="40" height="40" viewBox="0 0 40 40" fill="none" xmlns="http://www.w3.org/2000/svg">
<path d="M30.4777 15.0539C30.4777 13.8488 30.4805 12.6465 30.4861 11.4414C30.4861 11.3736 30.4861 11.2156 30.3168 11.1281C30.1503 11.0434 29.9866 10.9559 29.8201 10.8713C29.4786 10.6906 29.1258 10.5044 28.7617 10.352C27.9969 10.0302 27.1756 9.71413 26.1822 9.3557C25.5048 9.11299 24.8077 8.88721 24.1332 8.66989L23.7071 8.5316C23.391 8.43 23.0692 8.34251 22.7672 8.26631C22.1661 8.11108 21.5678 7.96433 21.0033 7.82604C20.8001 7.77523 20.5941 7.73008 20.3881 7.6821L20.1115 7.62001L19.9167 7.61719L19.8829 7.62001C19.7756 7.64259 19.6712 7.66799 19.564 7.69057C19.3354 7.74137 19.1011 7.79217 18.8697 7.84861C18.6862 7.89659 18.5 7.94175 18.3165 7.9869C17.5263 8.18164 16.7078 8.38484 15.9176 8.66425C15.435 8.83641 14.9354 8.99728 14.4557 9.1525C14.0718 9.27668 13.6767 9.40368 13.2901 9.53633C12.1583 9.9258 11.3088 10.2786 10.5299 10.6793C10.4142 10.7386 10.3013 10.8007 10.1856 10.86C10.036 10.939 9.88359 11.0208 9.73401 11.097C9.57878 11.1761 9.5054 11.2946 9.5054 11.4696C9.50822 12.7057 9.50822 13.9419 9.50822 15.178V17.7435C9.50822 19.1941 9.50822 20.642 9.50822 22.0926C9.50822 22.1519 9.51105 22.2196 9.53362 22.2873L9.56749 22.3889C9.62394 22.5555 9.68038 22.7248 9.75094 22.8913C10.1602 23.8678 10.5863 24.8754 11.1677 25.7954C11.2637 25.9478 11.354 26.1087 11.4443 26.2611C11.5769 26.4953 11.7181 26.7352 11.8761 26.9638C12.3192 27.5932 12.8046 28.2508 13.3578 28.9648C13.8743 29.6337 14.4782 30.2348 15.0624 30.8162L15.1951 30.9461C15.339 31.09 15.5309 31.2763 15.7398 31.4484C16.0869 31.7391 16.4454 32.027 16.7925 32.3092L17.2723 32.6987C17.3852 32.7918 17.5009 32.8878 17.6222 32.9753C18.2911 33.4748 18.9939 33.8953 19.8434 34.3779C19.8857 34.4033 19.9421 34.4146 19.9929 34.4146C20.0437 34.4146 20.0917 34.4033 20.1312 34.3808C20.2131 34.3356 20.2949 34.2904 20.3796 34.2425C20.6449 34.0957 20.9187 33.9461 21.1783 33.7711L21.3617 33.647C21.9318 33.2631 22.5217 32.8624 23.0664 32.4249C23.6563 31.9508 24.2263 31.4315 24.7767 30.9291L25.0787 30.6554C25.3355 30.4211 25.5697 30.1615 25.7871 29.9131C25.8717 29.8171 25.9592 29.7184 26.0439 29.6224C26.3797 29.2414 26.7297 28.8463 27.043 28.4342C27.4466 27.9036 27.8219 27.342 28.186 26.8001L28.3243 26.5941C28.5839 26.2075 28.821 25.8067 28.996 25.4991C29.1032 25.3128 29.202 25.1152 29.2951 24.9262C29.3318 24.85 29.3685 24.7766 29.408 24.7032C29.8286 23.8763 30.1616 23.103 30.4269 22.3381C30.4579 22.2506 30.472 22.1519 30.4749 22.0531C30.4777 20.9242 30.4777 19.7981 30.4749 18.6692C30.4749 18.1471 30.472 17.6249 30.472 17.1028C30.4805 16.4255 30.4777 15.7397 30.4777 15.0539ZM10.8178 12.034C10.8178 11.9973 10.8234 11.9861 10.8234 11.9861C10.8234 11.9861 10.829 11.9804 10.8516 11.9691C11.1508 11.8449 11.4499 11.7179 11.7463 11.5938C12.2486 11.3821 12.7679 11.162 13.2816 10.9559L13.3888 10.9136C13.9335 10.6935 14.498 10.4677 15.0653 10.2955C16.2055 9.95403 17.3739 9.62946 18.5056 9.31902L18.9967 9.18355C19.3495 9.08759 19.6656 9.01985 19.9647 8.98034C20.0804 8.96623 20.2244 9.0001 20.3598 9.03397L20.8199 9.14686C21.548 9.32748 22.3044 9.51375 23.041 9.71413C23.5913 9.86371 24.1445 10.0443 24.6807 10.2221L24.8726 10.2842C25.4089 10.4592 25.9649 10.6427 26.5011 10.8487C27.0317 11.0519 27.5623 11.2777 28.0787 11.4978C28.2424 11.5655 28.4061 11.6361 28.5698 11.7038C28.6658 11.7433 28.7617 11.7885 28.8577 11.8337C28.9536 11.8788 29.0553 11.9268 29.1569 11.9691C29.1823 11.9804 29.1879 11.9861 29.1879 11.9861C29.1879 11.9861 29.1935 11.9973 29.1935 12.034C29.1907 12.6832 29.1907 13.3295 29.1907 13.9786V14.543V18.164C29.1907 19.3014 29.1879 20.4754 29.1964 21.6326C29.1992 21.9063 29.1569 22.1321 29.0637 22.341C29.0129 22.4567 28.9678 22.5724 28.9226 22.6853C28.8633 22.8349 28.8041 22.9873 28.7363 23.1312C28.6206 23.3739 28.4964 23.6166 28.3751 23.8509C28.2678 24.0569 28.1606 24.2714 28.0562 24.4831C27.6949 25.2197 27.2688 25.9309 26.789 26.5941C26.3628 27.1811 25.8774 27.8105 25.2565 28.5725C24.6751 29.2866 23.9836 29.9216 23.3176 30.5396L23.3006 30.5538C22.5273 31.265 21.6976 31.8605 20.9836 32.3487C20.7973 32.4757 20.6026 32.5999 20.4135 32.7184C20.2808 32.8031 20.1482 32.885 20.0183 32.9724C20.0155 32.9753 20.0127 32.9753 20.0099 32.9781C20.0071 32.9781 20.0042 32.9753 20.0014 32.9724L19.8434 32.8652C19.6345 32.7241 19.42 32.5773 19.2027 32.4447C18.4915 32.01 17.8113 31.4654 17.2666 31.0251C16.5582 30.455 15.9148 29.8059 15.3193 29.1878C14.6165 28.4596 13.9702 27.6638 13.3973 26.8227C12.9796 26.2075 12.5647 25.5471 12.1329 24.8104C11.9015 24.4153 11.7039 23.9892 11.512 23.5771L11.4471 23.4388C11.258 23.0296 11.0802 22.6063 10.9081 22.1942L10.8742 22.1152C10.846 22.0474 10.829 21.9628 10.829 21.8866C10.8262 20.2553 10.8262 18.624 10.8262 16.9928V15.2486C10.8206 14.1733 10.8206 13.1037 10.8178 12.034Z" fill="white"/>
<path d="M18.5931 23.687C18.8104 23.3539 19.0249 23.0237 19.2366 22.6963C19.4539 22.3633 19.6684 22.0303 19.8829 21.6973C20.4106 20.8844 20.9356 20.0688 21.4633 19.256C21.6665 18.9427 21.8726 18.6294 22.0758 18.3162C22.6515 17.43 23.2244 16.5466 23.7973 15.6604C24.0062 15.3359 24.3844 15.1693 24.7654 15.2427C25.1379 15.3161 25.4343 15.6209 25.4963 16.0019C25.5359 16.239 25.4907 16.4591 25.3609 16.6595C24.8472 17.4526 24.3307 18.2484 23.8171 19.0415C23.2498 19.9164 22.6797 20.7913 22.1124 21.669C21.8302 22.1037 21.548 22.5355 21.2686 22.9701C20.6957 23.8535 20.1227 24.7368 19.5527 25.6202C19.2563 26.0774 18.6128 26.1847 18.1951 25.8319C17.9383 25.6146 17.6956 25.3803 17.4501 25.1517C17.0465 24.7792 16.6457 24.4066 16.245 24.0369C15.8385 23.6616 15.4321 23.289 15.0286 22.9108C14.9044 22.7951 14.7717 22.6794 14.6673 22.5439C14.4048 22.2081 14.45 21.6831 14.7492 21.3755C14.9439 21.178 15.1781 21.0792 15.4547 21.0876C15.7031 21.0961 15.9091 21.1977 16.0897 21.3642C16.7163 21.9484 17.3456 22.527 17.975 23.1084C18.1754 23.3031 18.3814 23.4894 18.5931 23.687Z" fill="white"/>
</svg>
