<svg width="40" height="40" viewBox="0 0 40 40" fill="none" xmlns="http://www.w3.org/2000/svg">
<path d="M22.2479 16.273C25.0053 16.273 27.7626 16.2646 30.52 16.2787C31.313 16.2815 31.8888 16.6879 32.2275 17.3991C32.3291 17.6108 32.377 17.8676 32.377 18.1047C32.3855 21.3249 32.3883 24.5451 32.3799 27.7653C32.377 28.4426 32.0412 28.9563 31.4683 29.3147C31.1663 29.5038 30.8333 29.5772 30.4833 29.5772C24.9912 29.5772 19.499 29.5772 14.0069 29.5772C13.2816 29.5772 12.7228 29.2724 12.3389 28.6628C12.1611 28.3806 12.0736 28.0588 12.0736 27.7201C12.0736 24.5507 12.0736 21.3813 12.0736 18.2147C12.0736 17.5769 12.3418 17.0576 12.8357 16.671C13.1715 16.4085 13.5666 16.2758 14.0041 16.2758C16.753 16.273 19.5018 16.273 22.2479 16.273ZM22.2056 22.3381C19.3269 22.3381 16.4482 22.3381 13.5694 22.3381C13.3803 22.3381 13.3775 22.3409 13.3747 22.5356C13.3747 23.8057 13.3747 25.0757 13.3747 26.3457C13.3747 26.7747 13.3662 27.2065 13.3803 27.6355C13.386 27.7738 13.434 27.9205 13.5045 28.0391C13.6456 28.2733 13.8855 28.2987 14.1395 28.2987C17.6025 28.2959 21.0654 28.2959 24.5283 28.2959C26.4728 28.2959 28.4174 28.2987 30.3619 28.2902C30.4946 28.2902 30.6385 28.2507 30.7571 28.1886C30.9969 28.0616 31.0336 27.8274 31.0336 27.579C31.0308 25.8913 31.0308 24.2036 31.0308 22.5159C31.0308 22.3324 31.0308 22.3324 30.8417 22.3324C27.963 22.3409 25.0843 22.3409 22.2056 22.3381ZM31.0139 19.7501C31.0139 19.1574 31.0139 18.5873 31.0111 18.02C31.0111 17.9777 30.98 17.9325 30.9574 17.893C30.8107 17.639 30.5736 17.5797 30.3027 17.5797C25.8999 17.5797 21.4972 17.5797 17.0945 17.5797C16.0756 17.5797 15.0568 17.5797 14.0379 17.5797C13.8065 17.5797 13.5807 17.6221 13.4678 17.8591C13.4142 17.972 13.3803 18.1047 13.3775 18.2317C13.3662 18.672 13.3747 19.1094 13.3747 19.5497C13.3747 19.7501 13.3747 19.7501 13.5836 19.7501C16.2619 19.7501 18.9402 19.7472 21.6157 19.7472C24.6864 19.7472 27.757 19.7501 30.8276 19.7501C30.8869 19.7501 30.949 19.7501 31.0139 19.7501Z" fill="white"/>
<path d="M11.6052 27.9737C11.2072 27.827 10.9165 27.5871 10.6936 27.2569C10.4734 26.9295 10.4029 26.5456 10.2843 26.1787C10.1376 25.7131 9.99082 25.2446 9.84971 24.7789C9.64086 24.0874 9.43201 23.3988 9.22599 22.7074C9.06229 22.1627 8.8986 21.6208 8.73491 21.0761C8.53171 20.4044 8.32568 19.7299 8.12812 19.0582C7.96443 18.505 7.80921 17.949 7.65116 17.393C7.57496 17.1277 7.62576 16.8653 7.69349 16.6056C7.78381 16.2472 7.97008 15.948 8.23819 15.6997C8.44422 15.5078 8.68693 15.3751 8.95505 15.2933C9.48281 15.1296 10.0134 14.9687 10.544 14.8078C11.0435 14.6583 11.5431 14.5115 12.0426 14.3591C12.5055 14.218 12.9655 14.0656 13.4283 13.9273C13.9307 13.7749 14.4387 13.6366 14.9411 13.4842C15.3955 13.3459 15.847 13.1991 16.3014 13.0608C16.99 12.852 17.6815 12.646 18.373 12.44C19.0051 12.2509 19.6402 12.0618 20.2723 11.8727C20.9102 11.6836 21.548 11.4973 22.1858 11.3026C22.5386 11.1953 22.8858 11.0768 23.2357 10.9695C23.7974 10.8002 24.3533 10.6083 24.9263 10.4785C25.5302 10.343 26.089 10.4841 26.5688 10.9018C26.9018 11.1925 27.074 11.565 27.1869 11.9827C27.3167 12.4682 27.4832 12.9423 27.63 13.4249C27.7739 13.9019 27.9122 14.3788 28.0533 14.8558C28.138 15.138 28.2227 15.4174 28.3073 15.6997C28.313 15.7166 28.313 15.7364 28.3158 15.7646C25.3835 15.7646 22.454 15.7646 19.5273 15.7646C19.5244 15.7589 19.5244 15.7505 19.5216 15.7448C19.7361 15.6771 19.9506 15.6094 20.1651 15.5444C20.5292 15.4344 20.8961 15.3271 21.263 15.2171C21.6327 15.107 22.0024 14.9997 22.3721 14.8897C22.9591 14.7119 23.5462 14.5313 24.1332 14.3506C24.5819 14.2123 25.0279 14.0684 25.4766 13.9329C25.7221 13.8596 25.9677 13.789 26.2132 13.7213C26.3205 13.693 26.3572 13.6479 26.3205 13.5322C26.1991 13.1568 26.0919 12.7758 25.9761 12.3976C25.9366 12.2706 25.8999 12.138 25.8379 12.0194C25.6967 11.7541 25.423 11.6497 25.1379 11.7372C24.6723 11.8811 24.2038 12.0251 23.7381 12.169C23.1849 12.3383 22.6346 12.5049 22.0814 12.6714C21.4097 12.8746 20.738 13.075 20.0635 13.2782C19.42 13.4701 18.7794 13.662 18.1359 13.8567C17.6787 13.995 17.2215 14.1418 16.7643 14.2829C16.2224 14.4494 15.6777 14.6103 15.133 14.774C14.4415 14.9828 13.7501 15.1917 13.0614 15.3977C12.4462 15.5811 11.8309 15.7618 11.2157 15.948C10.7472 16.0891 10.2843 16.2387 9.81584 16.3827C9.65215 16.4335 9.48563 16.4786 9.31912 16.5266C9.01714 16.6141 8.83934 16.9838 8.92118 17.2463C9.06794 17.7232 9.20623 18.2002 9.34452 18.6772C9.36992 18.759 9.40661 18.7957 9.49692 18.7703C9.89204 18.6518 10.29 18.5332 10.6851 18.4147C10.9814 18.3272 11.2778 18.2369 11.5939 18.1409C11.5995 18.2058 11.6052 18.2595 11.6052 18.3103C11.6052 19.0949 11.6052 19.8823 11.608 20.6669C11.608 20.7826 11.5769 20.8334 11.4528 20.8672C11.0407 20.9801 10.6315 21.11 10.2251 21.2426C10.194 21.2539 10.1517 21.3244 10.1602 21.3527C10.2448 21.6434 10.338 21.9312 10.4283 22.2191C10.5214 22.5211 10.6089 22.8259 10.6992 23.1279C10.8121 23.5061 10.925 23.8871 11.0379 24.2653C11.1705 24.7112 11.2806 25.1656 11.4471 25.6002C11.6729 26.1816 11.5854 26.7799 11.6052 27.3726C11.6108 27.5617 11.6052 27.7564 11.6052 27.9737Z" fill="white"/>
</svg>
