<svg width="40" height="40" viewBox="0 0 40 40" fill="none" xmlns="http://www.w3.org/2000/svg">
<path d="M20.0014 8.10532H33.3423C33.9604 8.10532 34.2172 8.33674 34.2341 8.952C34.251 9.63781 34.2341 10.3208 34.2341 11.0066V26.7718C34.2341 27.4435 33.9773 27.7031 33.3084 27.7031H23.2781C22.8293 27.7031 22.7983 27.7031 22.8322 28.1688C22.8886 28.9083 22.9507 29.6449 23.0551 30.3758C23.104 30.6018 23.2189 30.8081 23.3853 30.9685C23.6149 31.1641 23.8552 31.3469 24.105 31.516C24.1682 31.5879 24.2188 31.67 24.2546 31.7587C24.1671 31.8011 24.0796 31.8801 23.9921 31.8829C23.5264 31.8829 23.0608 31.8829 22.581 31.8829H16.1801C16.1614 31.8857 16.1423 31.8857 16.1236 31.8829L15.7426 31.7587C15.8163 31.6391 15.9024 31.5274 15.9994 31.4257C16.2083 31.2507 16.4566 31.1181 16.6486 30.929C16.7927 30.7882 16.8911 30.6072 16.9308 30.4097C17.0324 29.6505 17.1029 28.8857 17.1679 28.1208C17.1989 27.7342 17.1453 27.6947 16.7615 27.6947C13.3973 27.6947 10.0332 27.6947 6.66902 27.6947C6.54531 27.7035 6.42114 27.6856 6.30496 27.6422C6.18879 27.5988 6.08333 27.5308 5.99576 27.443C5.90819 27.3552 5.84057 27.2495 5.7975 27.1332C5.75442 27.0169 5.73691 26.8927 5.74614 26.769C5.75931 20.8874 5.7659 15.0058 5.7659 9.12416C5.7602 8.88332 5.80142 8.64368 5.88725 8.41859C5.94332 8.30689 6.0325 8.21522 6.14262 8.15612C6.25275 8.09702 6.37843 8.07336 6.50251 8.08838H7.73019L20.0014 8.10532ZM20.0014 24.0483H32.7016C33.1278 24.0483 33.1278 24.0483 33.1278 23.6306V9.74223C33.1278 9.21447 33.1109 9.20036 32.5887 9.20036H19.9563H7.32661C6.95689 9.20036 6.90327 9.2568 6.90327 9.63499V23.6617C6.90327 24.054 6.90327 24.054 7.30121 24.054L20.0014 24.0483Z" fill="white"/>
</svg>
