<svg width="40" height="40" viewBox="0 0 40 40" fill="none" xmlns="http://www.w3.org/2000/svg">
<path d="M24.3646 17.5574C24.3646 16.9253 24.3646 16.2959 24.3646 15.6637C24.3673 15.5581 24.4096 15.4573 24.4832 15.3815C25.0068 14.8908 25.655 14.5531 26.3571 14.405C26.9224 14.2712 27.5085 14.2511 28.0816 14.3457C29.1935 14.5348 30.0233 15.1557 30.3196 16.3834C30.4567 16.8488 30.4828 17.3398 30.3958 17.8171C30.3109 18.2249 30.1396 18.6099 29.8934 18.946C29.4834 19.496 28.9283 19.9211 28.2904 20.1737C27.6034 20.4683 26.8481 20.566 26.1088 20.4559C25.6175 20.3935 25.1462 20.2229 24.7287 19.9564C24.6081 19.8957 24.5079 19.8011 24.4402 19.6843C24.3726 19.5676 24.3404 19.4336 24.3477 19.2988C24.3787 18.7202 24.3477 18.1388 24.3477 17.5603L24.3646 17.5574ZM26.6394 17.5998V17.5546C26.9047 17.5546 27.1728 17.5546 27.4381 17.5546C27.8078 17.5546 28.1775 17.5377 28.5444 17.5208C28.6226 17.5243 28.7006 17.5116 28.7736 17.4834C28.8466 17.4552 28.913 17.4122 28.9685 17.357C29.0239 17.3018 29.0673 17.2356 29.0958 17.1628C29.1244 17.0899 29.1375 17.0119 29.1343 16.9337C29.1393 16.8526 29.1258 16.7713 29.095 16.6961C29.0642 16.6208 29.0167 16.5535 28.9561 16.4992C28.8956 16.4449 28.8236 16.405 28.7454 16.3825C28.6673 16.36 28.585 16.3555 28.5049 16.3693C27.836 16.3947 27.1671 16.4201 26.4983 16.4624C26.3532 16.479 26.2135 16.5271 26.089 16.6035C25.9946 16.6595 25.9219 16.7456 25.8824 16.848C25.843 16.9504 25.8392 17.0632 25.8717 17.168C25.8852 17.2704 25.9316 17.3656 26.0038 17.4394C26.0761 17.5132 26.1704 17.5616 26.2725 17.5772C26.391 17.5941 26.5293 17.5913 26.6394 17.5998Z" fill="white"/>
<path d="M15.6438 17.5573C15.6438 18.1218 15.6241 18.706 15.6438 19.2789C15.6528 19.4105 15.6238 19.5419 15.5602 19.6574C15.4967 19.773 15.4013 19.8679 15.2854 19.9308C14.7605 20.2863 14.144 20.4824 13.5102 20.4953C12.5931 20.5487 11.6852 20.2879 10.9363 19.7559C10.3703 19.3778 9.93543 18.8335 9.69166 18.198C9.52647 17.7189 9.49332 17.2041 9.5957 16.7078C9.66951 16.1898 9.8745 15.6991 10.1912 15.2826C10.5474 14.8528 11.0372 14.5547 11.5826 14.4359C12.3737 14.2359 13.2052 14.2633 13.9815 14.5149C14.5721 14.6859 15.1099 15.0034 15.545 15.4378C15.598 15.4946 15.6281 15.569 15.6297 15.6466C15.6297 16.2873 15.6297 16.928 15.6297 17.5714L15.6438 17.5573ZM12.1668 16.3691C11.9354 16.3691 11.7011 16.3691 11.4697 16.3691C11.364 16.3653 11.2588 16.3856 11.1621 16.4284C11.0408 16.4893 10.9455 16.5919 10.8936 16.7173C10.8418 16.8427 10.8369 16.9826 10.8798 17.1114C10.918 17.2304 10.9936 17.3339 11.0953 17.4066C11.1969 17.4793 11.3193 17.5173 11.4443 17.515C12.163 17.5451 12.8827 17.5705 13.6033 17.5912C13.7013 17.5935 13.7984 17.5711 13.8855 17.5263C14.0005 17.4706 14.092 17.376 14.1437 17.2592C14.1954 17.1423 14.2039 17.011 14.1678 16.8884C14.1275 16.7731 14.0551 16.6718 13.959 16.5963C13.863 16.5208 13.7474 16.4743 13.6259 16.4623C13.1151 16.4256 12.6409 16.4002 12.1668 16.3691Z" fill="white"/>
<path d="M9.99929 19.5381C10.1856 19.6933 10.3662 19.857 10.5637 20.0066C11.201 20.4971 11.9584 20.807 12.7567 20.9041C12.7947 20.9123 12.8307 20.9284 12.8623 20.9512C12.8938 20.974 12.9203 21.0031 12.9401 21.0367C13.4481 22.1656 13.9533 23.3284 14.4528 24.4742C14.5211 24.6422 14.5213 24.8301 14.4534 24.9982C14.3854 25.1663 14.2546 25.3013 14.0888 25.3745C13.8602 25.479 13.6287 25.5749 13.3973 25.6568C13.2408 25.718 13.067 25.7184 12.9103 25.6577C12.7535 25.5971 12.6252 25.48 12.5506 25.3294C12.2345 24.6464 11.941 23.9521 11.6334 23.2663C11.4104 22.7639 11.179 22.2644 10.956 21.762C10.6287 21.0254 10.3069 20.2832 9.98236 19.5437L9.99929 19.5381Z" fill="white"/>
<path d="M30.0346 19.5359C29.8342 20.0016 29.6338 20.4673 29.4278 20.9301C28.9141 22.0891 28.3986 23.2482 27.8812 24.4072L27.5115 25.2538C27.4808 25.3445 27.4316 25.4278 27.367 25.4984C27.3023 25.5691 27.2237 25.6254 27.1361 25.6639C27.0484 25.7024 26.9537 25.7222 26.858 25.7221C26.7623 25.7219 26.6676 25.7018 26.5801 25.6631C26.3214 25.5644 26.0689 25.4503 25.8237 25.3216C25.6847 25.2321 25.5819 25.0962 25.5339 24.938C25.4858 24.7798 25.4955 24.6097 25.5613 24.458C25.7494 24.0553 25.9282 23.6517 26.0975 23.2472C26.3205 22.7448 26.5406 22.2397 26.7607 21.7373C26.868 21.4946 26.9752 21.249 27.0881 21.0092C27.0984 20.9853 27.1139 20.9641 27.1334 20.9471C27.153 20.93 27.176 20.9174 27.201 20.9104C27.9156 20.8441 28.6015 20.5964 29.1935 20.1907C29.4362 20.027 29.6536 19.821 29.8793 19.6262C29.9189 19.5896 29.9527 19.5444 29.9894 19.5049L30.0346 19.5359Z" fill="white"/>
<path d="M16.0869 17.5913C16.0869 16.8716 16.0869 16.1491 16.0869 15.4266C16.0869 15.2686 16.1067 15.1924 16.2986 15.167C16.6927 15.1049 17.0959 15.1386 17.4742 15.2654C17.8524 15.3921 18.1946 15.6081 18.4717 15.8951C18.5496 15.9759 18.5958 16.0822 18.6016 16.1943C18.6128 17.1256 18.6128 18.057 18.6016 18.9883C18.589 19.1112 18.5341 19.2259 18.4463 19.3129C18.178 19.5826 17.8507 19.7865 17.4903 19.9084C17.1299 20.0303 16.7461 20.067 16.3691 20.0156C16.0869 19.9846 16.0869 19.9818 16.0869 19.6883V17.5913Z" fill="white"/>
<path d="M23.9131 17.6027C23.9131 18.3167 23.9131 19.0336 23.9131 19.7504C23.9131 19.9254 23.8707 19.9959 23.6817 20.0157C23.3008 20.0686 22.9129 20.0344 22.5472 19.9156C22.1816 19.7968 21.8476 19.5965 21.5706 19.3299C21.5152 19.2817 21.4712 19.2217 21.4419 19.1543C21.4126 19.0869 21.3987 19.0138 21.4013 18.9404C21.4013 18.0288 21.4013 17.1201 21.4013 16.2113C21.4013 15.9488 21.5875 15.8218 21.7484 15.6976C22.0224 15.4762 22.3398 15.3148 22.6801 15.2239C23.0205 15.133 23.3761 15.1146 23.724 15.1699C23.8736 15.1953 23.9103 15.2461 23.9103 15.3844C23.9103 16.1238 23.9103 16.8632 23.9103 17.6027H23.9131Z" fill="white"/>
</svg>
