<svg width="40" height="40" viewBox="0 0 40 40" fill="none" xmlns="http://www.w3.org/2000/svg">
<path d="M19.9929 11.6055C21.5452 11.6055 23.0974 11.6055 24.6525 11.6055C24.9965 11.6265 25.3382 11.6756 25.6742 11.7523C26.1305 11.8487 26.5632 12.0348 26.947 12.2998C27.322 12.5375 27.6572 12.8328 27.9405 13.1747C28.1832 13.4739 28.4174 13.7815 28.6376 14.0976C28.7719 14.3031 28.8944 14.516 29.0044 14.7354C29.1681 15.0478 29.3262 15.3639 29.4786 15.6837C29.5717 15.8756 29.6451 16.0732 29.727 16.2707C29.8314 16.5247 29.9443 16.7788 30.0374 17.0412C30.1616 17.3799 30.266 17.727 30.3789 18.0685C30.5228 18.4975 30.6611 18.9152 30.8107 19.3555C30.9292 19.7054 31.0591 20.0526 31.1748 20.4025C31.2905 20.7525 31.4231 21.173 31.5417 21.5597C31.6602 21.9463 31.7787 22.2963 31.8662 22.6688C31.9517 23.0414 32.0176 23.4182 32.0638 23.7977C32.1065 24.1725 32.1282 24.5494 32.1287 24.9266C32.1275 25.3502 32.0531 25.7703 31.9086 26.1684C31.7753 26.5469 31.5787 26.9 31.3272 27.2127C30.9657 27.6577 30.4894 27.9953 29.9499 28.1892C29.6204 28.3154 29.2724 28.3869 28.9198 28.4009C28.7047 28.4036 28.4903 28.3779 28.2819 28.3246C28.0204 28.2685 27.7651 28.1862 27.5199 28.0791C27.2281 27.9449 26.9518 27.7792 26.6958 27.5852C26.4319 27.3782 26.1872 27.1477 25.9649 26.8966C25.8238 26.7201 25.6991 26.5312 25.5923 26.3321C25.4286 26.0668 25.2734 25.7987 25.1154 25.5306C25.0307 25.3838 24.9517 25.2484 24.8698 25.0903C24.7061 24.8081 24.5424 24.5259 24.3844 24.2437C24.2574 24.0235 24.1389 23.7977 24.0147 23.5776C23.8991 23.3198 23.7133 23.0997 23.4785 22.9426C23.3006 22.8382 23.0976 22.7845 22.8914 22.7874H19.9563C19.0306 22.7874 18.1049 22.7874 17.1791 22.7874C16.9557 22.7803 16.735 22.8385 16.5441 22.9548C16.3532 23.071 16.2002 23.2404 16.1039 23.4421C15.9515 23.7244 15.7878 23.9868 15.6297 24.2606C15.4717 24.5343 15.3306 24.7996 15.1782 25.0649C15.0258 25.3302 14.8536 25.6294 14.6899 25.9116C14.5798 26.1035 14.4811 26.3039 14.3541 26.4761C14.2175 26.6955 14.0616 26.9023 13.8884 27.0941C13.6756 27.305 13.4503 27.5029 13.2139 27.6868C12.9008 27.9318 12.5434 28.1139 12.1612 28.223C11.6274 28.3948 11.0575 28.4211 10.5101 28.2992C10.0759 28.2002 9.66415 28.0202 9.29656 27.7687C8.94377 27.5227 8.64347 27.209 8.41319 26.8458C8.169 26.4908 8.00703 26.0859 7.93904 25.6604C7.88889 25.1994 7.87662 24.735 7.90236 24.2719C7.92169 23.8923 7.97076 23.5149 8.04911 23.143C8.1112 22.8212 8.21563 22.5051 8.30594 22.189C8.37932 21.9407 8.46116 21.6951 8.54301 21.4468C8.64461 21.1335 8.75186 20.8231 8.85628 20.5098C8.97199 20.1514 9.08489 19.7901 9.20342 19.4345C9.32196 19.0789 9.46589 18.6697 9.59854 18.2858C9.70578 17.9669 9.80739 17.6424 9.9231 17.3263C10.0811 16.9058 10.242 16.4796 10.4198 16.0704C10.5976 15.6611 10.7782 15.2237 10.9843 14.8399C11.1903 14.456 11.4302 14.1117 11.6644 13.7392C11.9047 13.3803 12.1891 13.0532 12.5111 12.7655C12.9634 12.3432 13.5015 12.0235 14.0888 11.8285C14.5694 11.6746 15.0715 11.5984 15.5761 11.6027H19.9929V11.6055ZM30.9998 24.6416C30.9829 24.3876 30.9772 24.1054 30.9405 23.826C30.9038 23.5465 30.8446 23.3067 30.7909 23.0498C30.7373 22.793 30.7006 22.6011 30.6329 22.381C30.5652 22.1608 30.4523 21.8786 30.3676 21.6246C30.2829 21.3706 30.2039 21.0855 30.1136 20.8174C30.0233 20.5493 29.9302 20.3151 29.8314 20.061C29.7241 19.7534 29.6225 19.443 29.5209 19.1353C29.377 18.7092 29.2387 18.2887 29.0919 17.8625C28.9621 17.4984 28.8266 17.1344 28.6799 16.7759C28.5331 16.4175 28.3977 16.1437 28.2537 15.8305C28.1098 15.5172 27.9715 15.266 27.8276 15.0035C27.6237 14.6216 27.3776 14.2637 27.0938 13.9367C26.8554 13.6638 26.581 13.4246 26.2781 13.2255C25.7642 12.895 25.1647 12.7223 24.5537 12.7288C21.5433 12.7175 18.5244 12.7175 15.4971 12.7288C15.2192 12.731 14.9426 12.7661 14.673 12.8332C14.1587 12.9606 13.6849 13.216 13.2957 13.5755C12.8434 14.0108 12.4624 14.5146 12.1668 15.0685C11.9946 15.3507 11.8507 15.6781 11.704 15.9885C11.5346 16.3469 11.3681 16.711 11.2157 17.0779C11.1226 17.3009 11.052 17.5351 10.973 17.7637C10.8798 18.0459 10.7811 18.3028 10.6908 18.5737C10.6004 18.8447 10.5327 19.0817 10.448 19.3357C10.3634 19.5897 10.2561 19.8748 10.1658 20.1457C10.0755 20.4167 9.9993 20.6791 9.91181 20.9416C9.82432 21.2041 9.70861 21.4496 9.62394 21.7318C9.53927 22.0141 9.45178 22.2511 9.3784 22.5164C9.25952 22.8755 9.16522 23.2423 9.09617 23.6143C8.97366 24.1702 8.94977 24.7434 9.02562 25.3076C9.06382 25.5858 9.14275 25.8568 9.25987 26.112C9.40356 26.3852 9.60365 26.6247 9.8469 26.8147C10.1009 27.0186 10.3989 27.1607 10.7173 27.2298C11.0356 27.2988 11.3657 27.293 11.6814 27.2127C12.1268 27.0922 12.5327 26.8566 12.8583 26.5297C13.1262 26.2868 13.3514 26.0006 13.5243 25.683C13.7134 25.3218 13.9335 24.9746 14.1367 24.619C14.2525 24.4215 14.3597 24.2183 14.4754 24.0207C14.6419 23.7385 14.8084 23.4393 14.9778 23.1486C15.0779 22.9542 15.1891 22.7658 15.3108 22.5842C15.5307 22.2888 15.8188 22.0511 16.1506 21.8914C16.4823 21.7317 16.8478 21.6547 17.2158 21.6669C18.9854 21.6669 20.7578 21.6669 22.5302 21.6669C22.843 21.6593 23.1556 21.6887 23.4615 21.7544C23.9364 21.8607 24.359 22.1304 24.6553 22.5164C24.8852 22.8462 25.0953 23.1892 25.2847 23.5437C25.4061 23.7498 25.5189 23.9642 25.6403 24.1759C25.8379 24.5231 26.0411 24.8702 26.2386 25.2173C26.3572 25.4234 26.4616 25.6407 26.5914 25.8411C26.79 26.1427 27.0336 26.412 27.3139 26.6398C27.7699 27.0455 28.3632 27.2625 28.9734 27.2465C29.3181 27.232 29.6525 27.1247 29.9414 26.9361C30.1563 26.799 30.347 26.6274 30.5059 26.4281C30.7321 26.1254 30.883 25.7733 30.9462 25.4008C30.9799 25.1491 30.9969 24.8955 30.997 24.6416H30.9998Z" fill="white"/>
<path d="M18.8443 17.1991C18.8487 17.7582 18.687 18.3061 18.3797 18.7732C18.0723 19.2403 17.6331 19.6055 17.1178 19.8226C16.6025 20.0397 16.0343 20.0988 15.4854 19.9924C14.9364 19.8861 14.4314 19.6191 14.0345 19.2253C13.6375 18.8315 13.3665 18.3287 13.2557 17.7806C13.145 17.2326 13.1996 16.6639 13.4125 16.1469C13.6254 15.6299 13.9871 15.1878 14.4517 14.8767C14.9163 14.5655 15.4629 14.3994 16.022 14.3994C16.7666 14.3994 17.4811 14.6936 18.0097 15.218C18.5383 15.7424 18.8383 16.4545 18.8443 17.1991ZM14.3569 17.1991C14.3558 17.5309 14.453 17.8555 14.6362 18.1321C14.8194 18.4087 15.0804 18.6248 15.3864 18.7531C15.6923 18.8815 16.0294 18.9164 16.3551 18.8534C16.6808 18.7903 16.9806 18.6323 17.2165 18.399C17.4525 18.1658 17.6141 17.868 17.6809 17.543C17.7478 17.218 17.7169 16.8806 17.5921 16.5732C17.4673 16.2658 17.2543 16.0022 16.9799 15.8157C16.7055 15.6293 16.382 15.5283 16.0502 15.5255C15.6016 15.5255 15.1713 15.7035 14.8538 16.0205C14.5364 16.3374 14.3576 16.7674 14.3569 17.216V17.1991Z" fill="white"/>
<path d="M26.1314 16.0869C26.3555 16.0869 26.5745 16.1537 26.7606 16.2786C26.9466 16.4036 27.0913 16.5811 27.1761 16.7885C27.261 16.9959 27.2821 17.2239 27.237 17.4434C27.1918 17.6629 27.0823 17.864 26.9224 18.0211C26.7625 18.1782 26.5596 18.2841 26.3393 18.3254C26.119 18.3667 25.8914 18.3415 25.6855 18.253C25.4796 18.1645 25.3047 18.0168 25.1831 17.8285C25.0614 17.6403 24.9986 17.4201 25.0025 17.1961C25.0077 16.9001 25.1289 16.618 25.34 16.4105C25.5512 16.2031 25.8354 16.0869 26.1314 16.0869Z" fill="white"/>
<path d="M24.9968 19.4513C24.9968 19.6751 24.9302 19.894 24.8056 20.0799C24.6809 20.2658 24.5037 20.4105 24.2966 20.4955C24.0895 20.5805 23.8618 20.6021 23.6424 20.5573C23.4231 20.5126 23.222 20.4037 23.0647 20.2444C22.9074 20.0851 22.801 19.8826 22.759 19.6627C22.7171 19.4428 22.7414 19.2154 22.8291 19.0094C22.9167 18.8034 23.0636 18.628 23.251 18.5057C23.4385 18.3834 23.6582 18.3196 23.882 18.3224C24.03 18.3212 24.1766 18.3497 24.3133 18.4062C24.45 18.4627 24.574 18.546 24.6779 18.6513C24.7819 18.7565 24.8636 18.8816 24.9184 19.019C24.9732 19.1564 24.9999 19.3034 24.9968 19.4513Z" fill="white"/>
<path d="M20.5292 17.1964C20.5269 17.0475 20.5545 16.8997 20.6104 16.7617C20.6664 16.6237 20.7494 16.4984 20.8547 16.3931C20.96 16.2878 21.0854 16.2047 21.2234 16.1488C21.3614 16.0929 21.5092 16.0652 21.6581 16.0675C21.9563 16.0712 22.2414 16.1913 22.4523 16.4022C22.6632 16.6131 22.7833 16.8982 22.787 17.1964C22.787 17.3447 22.7578 17.4915 22.7011 17.6284C22.6443 17.7654 22.5612 17.8898 22.4563 17.9947C22.3515 18.0995 22.2271 18.1827 22.0901 18.2394C21.9531 18.2961 21.8063 18.3253 21.6581 18.3253C21.5087 18.3296 21.3599 18.3033 21.221 18.2481C21.0821 18.1929 20.956 18.1099 20.8503 18.0042C20.7446 17.8985 20.6616 17.7724 20.6064 17.6335C20.5511 17.4945 20.5249 17.3458 20.5292 17.1964Z" fill="white"/>
<path d="M24.9968 14.9574C24.9968 15.2568 24.8779 15.5439 24.6662 15.7557C24.4545 15.9674 24.1673 16.0863 23.8679 16.0863C23.5697 16.0826 23.2846 15.9625 23.0737 15.7516C22.8628 15.5407 22.7427 15.2557 22.739 14.9574C22.739 14.658 22.858 14.3709 23.0697 14.1591C23.2814 13.9474 23.5685 13.8285 23.8679 13.8285C24.0172 13.8246 24.1658 13.8512 24.3045 13.9065C24.4432 13.9619 24.5692 14.0449 24.6748 14.1505C24.7804 14.2561 24.8635 14.3821 24.9188 14.5208C24.9742 14.6596 25.0007 14.8081 24.9968 14.9574Z" fill="white"/>
</svg>
