<svg width="40" height="40" viewBox="0 0 40 40" fill="none" xmlns="http://www.w3.org/2000/svg">
<path d="M35.7948 12.4515C35.7948 14.4073 35.7948 16.3603 35.7948 18.3162C35.8042 18.4832 35.7783 18.6503 35.7186 18.8066C35.659 18.9629 35.567 19.1048 35.4487 19.2231C35.3304 19.3414 35.1885 19.4334 35.0322 19.493C34.8759 19.5527 34.7088 19.5787 34.5417 19.5693H29.933C29.6831 19.5884 29.4337 19.527 29.2213 19.3939C29.009 19.2608 28.8449 19.0631 28.7533 18.8298C28.6959 18.6869 28.6644 18.535 28.6601 18.3811C28.6601 14.4299 28.6601 10.4787 28.6601 6.52756C28.6572 6.36365 28.688 6.20089 28.7506 6.04937C28.8132 5.89786 28.9063 5.76082 29.0241 5.64676C29.1418 5.53271 29.2818 5.44407 29.4352 5.38634C29.5887 5.32861 29.7523 5.30302 29.9161 5.31117H34.1918C34.4281 5.30399 34.6645 5.32101 34.8974 5.36197C35.1595 5.41728 35.3935 5.56406 35.5574 5.77605C35.7213 5.98804 35.8045 6.25142 35.792 6.5191C35.792 8.14849 35.792 9.77693 35.792 11.4044L35.7948 12.4515ZM35.2106 12.4176V6.49087C35.2191 6.41071 35.2096 6.32966 35.1826 6.25369C35.1556 6.17772 35.112 6.10876 35.0548 6.05189C34.9977 5.99502 34.9285 5.9517 34.8524 5.9251C34.7763 5.8985 34.6952 5.88931 34.6151 5.8982C34.4204 5.8982 34.2285 5.8982 34.0366 5.8982C33.9898 5.89082 33.9421 5.90205 33.9036 5.92949C33.865 5.95693 33.8388 5.99839 33.8305 6.04496C33.8054 6.16065 33.7363 6.26207 33.6379 6.32787C33.5394 6.39367 33.4193 6.41872 33.3028 6.39774H31.1155C30.9992 6.41563 30.8805 6.3868 30.7853 6.31755C30.6902 6.24829 30.6263 6.14422 30.6075 6.02802C30.5986 5.98478 30.5734 5.94661 30.5372 5.9214C30.501 5.89618 30.4564 5.88586 30.4128 5.89255C30.2248 5.90395 30.0363 5.90395 29.8483 5.89255C29.7633 5.88623 29.6779 5.89832 29.598 5.92799C29.5181 5.95767 29.4455 6.00424 29.3853 6.06451C29.325 6.12479 29.2784 6.19736 29.2487 6.27727C29.2191 6.35718 29.207 6.44255 29.2133 6.52756C29.2133 7.72138 29.2133 8.91238 29.2133 10.1062V18.367C29.204 18.4509 29.2136 18.5359 29.2414 18.6156C29.2693 18.6953 29.3147 18.7678 29.3743 18.8277C29.4338 18.8875 29.5061 18.9332 29.5857 18.9614C29.6653 18.9897 29.7502 18.9997 29.8342 18.9907C31.4062 18.9907 32.981 18.9907 34.5559 18.9907C34.6417 18.9979 34.7281 18.9864 34.809 18.9569C34.8899 18.9275 34.9635 18.8808 35.0247 18.8202C35.0859 18.7596 35.1332 18.6864 35.1633 18.6057C35.1935 18.525 35.2058 18.4388 35.1993 18.3529C35.205 16.3829 35.2106 14.4073 35.2106 12.4176Z" fill="white"/>
<path d="M32.6621 20.8622V23.2696C32.6621 23.4164 32.6621 23.4248 32.504 23.4248H22.152C22.0927 23.4248 22.0814 23.4051 22.0758 23.3458C22.0701 23.2865 22.0758 23.2668 22.0758 23.1877V9.51386C22.0758 9.43484 22.0758 9.35299 22.0758 9.27397C22.0716 9.25634 22.0716 9.23797 22.0758 9.22034C22.0758 9.22034 22.0927 9.22034 22.1379 9.22034H27.376V8.4668H22.1322C22.0273 8.46657 21.9234 8.48716 21.8265 8.52737C21.7296 8.56758 21.6417 8.62661 21.5678 8.70105C21.4127 8.86036 21.3266 9.07425 21.3279 9.29655C21.3279 11.0275 21.3279 12.7585 21.3279 14.4895V16.1434V18.0964C21.3279 19.8255 21.3279 21.5555 21.3279 23.2865C21.3235 23.407 21.3435 23.527 21.3866 23.6395C21.4298 23.7521 21.4952 23.8547 21.579 23.9413C21.742 24.0926 21.9579 24.1737 22.1802 24.1671H22.2169C22.4314 24.1671 22.643 24.1671 22.8575 24.1671H32.5436C32.6582 24.1748 32.7732 24.1577 32.8806 24.1168C32.988 24.0759 33.0853 24.0123 33.1657 23.9302C33.2462 23.8481 33.3079 23.7496 33.3467 23.6414C33.3854 23.5332 33.4003 23.4179 33.3902 23.3035V20.8622H32.6621Z" fill="white"/>
<path d="M30.297 25.6822V26.8111C30.297 27.209 30.297 27.209 29.8906 27.209H5.66145C5.28327 27.209 5.28044 27.209 5.28044 26.8337C5.28044 22.3745 5.28044 17.9144 5.28044 13.4533C5.28044 13.0949 5.33124 13.0412 5.68403 13.0412H17.7323H19.5978C19.5978 12.6913 19.5978 12.3413 19.5978 11.9914H6.0989H4.93048C4.81162 11.9773 4.69131 12 4.58581 12.0566C4.48031 12.1131 4.39473 12.2007 4.34063 12.3075C4.2619 12.5233 4.22549 12.7523 4.23338 12.982C4.23338 18.5926 4.23338 24.2033 4.21363 29.814C4.20419 29.9312 4.21994 30.0491 4.25983 30.1597C4.29972 30.2703 4.36282 30.3711 4.4449 30.4553C4.52697 30.5395 4.62611 30.6052 4.73567 30.6479C4.84522 30.6906 4.96265 30.7094 5.08006 30.703C8.28898 30.6804 11.4979 30.703 14.7068 30.703C15.0737 30.703 15.1245 30.7425 15.0935 31.1094C15.0314 31.8376 14.9665 32.5685 14.8677 33.2938C14.8271 33.4837 14.7284 33.6563 14.5855 33.7877C14.4048 33.9712 14.1649 34.0954 13.9646 34.2619C13.8722 34.359 13.7908 34.4659 13.7218 34.5808L14.0859 34.6965C14.1037 34.6993 14.1218 34.6993 14.1395 34.6965H20.2667C20.7098 34.6965 21.1557 34.6965 21.5988 34.6965C21.6835 34.6965 21.7653 34.6175 21.85 34.578C21.8161 34.4935 21.7684 34.4153 21.7089 34.3465C21.4701 34.185 21.2402 34.0107 21.0202 33.8244C20.8613 33.6718 20.7512 33.4753 20.7041 33.26C20.6054 32.5601 20.5461 31.8488 20.4925 31.1546C20.4614 30.7228 20.4925 30.7086 20.9158 30.7086H30.4805C31.1183 30.7086 31.361 30.4631 31.361 29.8196V25.6822H30.297Z" fill="white"/>
</svg>
