<svg width="40" height="40" viewBox="0 0 40 40" fill="none" xmlns="http://www.w3.org/2000/svg">
<path d="M31.8126 19.9585C31.8126 21.0705 31.8154 22.1853 31.8126 23.2972C31.8098 24.5475 31.4231 25.6453 30.5087 26.5287C29.8793 27.1355 29.1484 27.573 28.2989 27.7931C28.0985 27.8439 27.8925 27.8721 27.6864 27.8975C27.5622 27.9116 27.5199 27.9709 27.5227 28.0894C27.5312 28.4648 27.5368 28.8402 27.5368 29.2155C27.5397 30.6351 27.5368 32.0547 27.5368 33.4743C27.5368 33.5279 27.5368 33.5844 27.534 33.638C27.5143 33.8835 27.4352 33.971 27.1897 33.9908C27.1361 33.9936 27.0599 33.9315 27.026 33.8807C26.6196 33.2796 26.2188 32.6728 25.8153 32.0688C24.9121 30.7141 24.0034 29.3595 23.1031 27.9991C23.0071 27.8552 22.8914 27.7846 22.7249 27.7903C22.66 27.7931 22.5951 27.7903 22.533 27.7903C19.262 27.7903 15.991 27.8157 12.7228 27.779C10.8826 27.7592 9.49974 26.89 8.62766 25.2559C8.32003 24.6801 8.19303 24.0508 8.1902 23.3988C8.18738 21.2313 8.18174 19.0638 8.18738 16.8991C8.18738 16.5097 8.19585 16.1146 8.26076 15.7335C8.39341 14.9461 8.74619 14.2575 9.28524 13.6676C9.83276 13.0665 10.4988 12.646 11.2721 12.3976C11.8733 12.2057 12.497 12.1323 13.1292 12.1323C15.6382 12.1267 18.1443 12.121 20.6533 12.1154C21.7766 12.1126 22.8999 12.1126 24.0231 12.1154C25.1661 12.1182 26.3092 12.1013 27.4494 12.1464C29.1568 12.2142 30.4438 13.0101 31.2876 14.5059C31.6574 15.1578 31.8267 15.8549 31.8182 16.6028C31.8041 17.7232 31.8126 18.8409 31.8126 19.9585ZM26.1031 29.6586C26.1201 29.5824 26.137 29.5485 26.137 29.5147C26.1342 28.6736 26.1398 27.8326 26.1229 26.9916C26.1144 26.588 26.2725 26.4045 26.6761 26.3932C27.0204 26.3848 27.3675 26.3679 27.7118 26.3396C28.3779 26.2832 28.9621 26.0292 29.4645 25.5917C30.0712 25.0611 30.4099 24.3894 30.4466 23.5879C30.472 23.0348 30.4579 22.4788 30.4579 21.9256C30.4579 20.046 30.4579 18.1663 30.4466 16.2839C30.4438 16.0271 30.393 15.7589 30.3083 15.5162C29.8793 14.2829 28.6883 13.487 27.3675 13.4503C26.6986 13.4334 26.0326 13.4419 25.3637 13.4419C21.1585 13.4447 16.9505 13.4475 12.7453 13.4475C12.3248 13.4475 11.9241 13.5265 11.5318 13.6733C10.3803 14.0995 9.50256 15.2284 9.53078 16.5605C9.54772 17.3309 9.55054 18.1042 9.55336 18.8747C9.55618 20.348 9.55054 21.824 9.54772 23.2972C9.54772 23.7657 9.6098 24.2286 9.82147 24.6519C10.3916 25.7808 11.3427 26.3763 12.5817 26.3848C16.1885 26.4158 19.7954 26.3961 23.4022 26.3961C23.7522 26.3961 24.0147 26.5315 24.2094 26.8279C24.7089 27.5927 25.2169 28.3519 25.725 29.1111C25.8378 29.2833 25.962 29.4554 26.1031 29.6586Z" fill="white"/>
<path d="M27.5482 20.1413C27.582 20.8836 26.9103 21.5581 26.1681 21.5524C25.3807 21.5468 24.7372 20.9174 24.74 20.147C24.7428 19.3652 25.3637 18.7528 26.1427 18.7471C26.9329 18.7415 27.5736 19.3652 27.5482 20.1413Z" fill="white"/>
<path d="M13.8545 18.7389C14.5714 18.7163 15.2515 19.3034 15.2515 20.1077C15.2515 21.0024 14.5968 21.564 13.8178 21.5612C13.0473 21.5584 12.4462 20.9262 12.4434 20.1162C12.4405 19.3767 13.0586 18.7163 13.8545 18.7389Z" fill="white"/>
<path d="M18.5338 20.1335C18.5338 19.3348 19.1406 18.7393 19.9591 18.7393C20.738 18.7393 21.3448 19.3573 21.342 20.1532C21.342 20.9293 20.7183 21.5615 19.9506 21.5559C19.1152 21.5531 18.5197 20.8983 18.5338 20.1335Z" fill="white"/>
</svg>
