<svg width="40" height="40" viewBox="0 0 40 40" fill="none" xmlns="http://www.w3.org/2000/svg">
<path d="M19.5301 9.33643C19.7181 9.34772 19.9066 9.34772 20.0946 9.33643C20.7917 9.26023 21.4521 9.46908 22.121 9.59044C22.269 9.61256 22.4072 9.67795 22.5181 9.77838C22.6291 9.87881 22.7079 10.0098 22.7447 10.1549C22.8114 10.4639 22.8585 10.7769 22.8858 11.0919C22.9366 11.5773 22.9479 12.0656 23.0269 12.5425C23.0926 12.7793 23.1955 13.0041 23.3317 13.2086C23.3764 13.2608 23.4386 13.2949 23.5067 13.3045C23.9589 13.4001 24.3756 13.6197 24.7101 13.9387C25.0446 14.2577 25.2836 14.6636 25.4004 15.1108C25.5161 15.4918 25.6431 15.8022 26.1314 15.7599C26.36 15.743 26.4729 15.9095 26.4814 16.124C26.5133 16.6772 26.5293 17.2294 26.5293 17.7807C26.5293 18.0911 26.2866 18.1109 26.0665 18.1193C25.6883 18.1363 25.6262 18.1955 25.6234 18.5652C25.6234 19.0112 25.6036 19.4571 25.5895 19.903C25.582 19.9547 25.5853 20.0073 25.5991 20.0577C25.613 20.108 25.6371 20.155 25.67 20.1955C25.7028 20.2361 25.7438 20.2694 25.7901 20.2934C25.8365 20.3174 25.8874 20.3315 25.9395 20.3348C26.2894 20.4025 26.3769 20.5352 26.3741 20.8993C26.3741 21.8617 26.3544 22.824 26.3741 23.7864C26.3741 24.0687 26.2753 24.2098 25.9931 24.2408C25.8586 24.2557 25.7336 24.3171 25.6398 24.4146C25.5459 24.512 25.4892 24.6393 25.4795 24.7742C25.4139 25.1751 25.2488 25.5531 24.9993 25.8736C24.7498 26.1941 24.4239 26.4468 24.0514 26.6087C23.8167 26.6836 23.5921 26.7869 23.3825 26.9163C23.2126 27.0615 23.0979 27.2609 23.0579 27.4808C22.9719 28.0999 22.9267 28.7241 22.9225 29.3491C22.9045 29.656 22.7832 29.9478 22.5782 30.1769C22.3732 30.406 22.0966 30.5589 21.7936 30.6107C20.197 30.7656 18.5884 30.7477 16.9957 30.5571C16.7858 30.5129 16.5928 30.4097 16.4393 30.2598C16.2859 30.1098 16.1783 29.9193 16.1293 29.7104C16.1067 29.4931 16.1293 29.2729 16.1095 29.0556C16.039 28.4573 15.9741 27.859 15.8583 27.2691C15.8267 27.1795 15.7775 27.0971 15.7135 27.0268C15.6495 26.9565 15.5721 26.8997 15.4858 26.8599C14.8282 26.5325 14.1988 26.1684 13.8404 25.508C13.6567 25.1802 13.5523 24.8138 13.5356 24.4384C13.5102 21.5907 13.513 18.7402 13.5356 15.8897C13.5354 15.5315 13.6084 15.177 13.7501 14.8479C13.8919 14.5189 14.0993 14.2223 14.3597 13.9762C14.6773 13.7137 15.0321 13.4997 15.4124 13.3412C15.5476 13.2753 15.6657 13.1792 15.7578 13.0602C15.8498 12.9413 15.9132 12.8028 15.943 12.6554C16.166 11.8962 16.0813 11.1201 16.1688 10.3581C16.1894 10.1845 16.2594 10.0204 16.3705 9.88535C16.4815 9.75029 16.629 9.6499 16.7953 9.59608C17.6985 9.43521 18.5959 9.20097 19.5301 9.33643ZM14.45 20.0187C14.45 21.3791 14.498 22.7422 14.4359 24.0997C14.3908 25.0621 15.3927 25.9822 16.2958 25.9652C18.4718 25.9285 20.6449 25.937 22.8181 25.9652C23.7494 25.9822 24.6723 24.9746 24.6638 24.1223C24.6469 21.5823 24.6638 19.0591 24.6638 16.5276C24.6954 16.0728 24.625 15.6167 24.4578 15.1926C24.2348 14.7016 23.4361 14.0863 22.8858 14.0863C20.8509 14.0863 18.8161 14.0863 16.7812 14.0863C16.226 14.0424 15.6731 14.1964 15.2205 14.5209C14.7774 14.8624 14.4726 15.2519 14.4698 15.8164C14.4331 17.2162 14.4387 18.6273 14.4387 20.0187H14.45Z" fill="white"/>
</svg>
