<svg width="40" height="40" viewBox="0 0 40 40" fill="none" xmlns="http://www.w3.org/2000/svg">
<path d="M30.9942 7.3383C30.9942 6.2856 30.4297 5.70703 29.3742 5.70703H10.465C10.2746 5.70706 10.086 5.74472 9.91022 5.81786C9.7344 5.891 9.57477 5.99816 9.44051 6.13319C9.30059 6.27583 9.19038 6.44483 9.11626 6.63038C9.04214 6.81593 9.00558 7.01434 9.0087 7.21412C9.0087 10.3694 9.0087 13.5238 9.0087 16.6772V19.6914V23.2502C9.0087 26.3999 9.0087 29.5505 9.0087 32.702C9.00048 32.9218 9.03702 33.141 9.11611 33.3462C9.19519 33.5514 9.31516 33.7384 9.46873 33.8958C9.61511 34.0333 9.78721 34.1404 9.97514 34.2111C10.1631 34.2818 10.3631 34.3147 10.5638 34.3079H10.6287C11.0182 34.3079 11.4048 34.3079 11.7971 34.3079H29.4363C30.3987 34.3079 30.997 33.7067 30.997 32.7387V7.3383H30.9942ZM29.6338 32.671C29.6338 32.9363 29.6141 32.9532 29.3516 32.9532H10.6428C10.5968 32.9574 10.5505 32.9574 10.5045 32.9532C10.3973 32.9532 10.3719 32.9165 10.3634 32.8093C10.3549 32.702 10.3634 32.6625 10.3634 32.527V7.62053C10.3634 7.47659 10.3634 7.3383 10.3634 7.18308C10.3618 7.15023 10.3676 7.11744 10.3803 7.08712C10.4168 7.07138 10.4564 7.06461 10.496 7.06736H29.3516C29.4364 7.05912 29.522 7.06873 29.6028 7.09559C29.6321 7.17292 29.6427 7.25608 29.6338 7.3383V32.671Z" fill="white"/>
</svg>
