<svg width="40" height="40" viewBox="0 0 40 40" fill="none" xmlns="http://www.w3.org/2000/svg">
<path d="M34.0155 15.0447C34.1285 14.9318 34.2414 14.7906 34.3825 14.6777C34.4108 14.6495 34.4954 14.6777 34.5237 14.7059C34.8342 15.1011 35.1729 15.4681 35.4552 15.8915C35.7093 16.315 35.9351 16.7666 36.1327 17.2183C36.3585 17.7546 36.5279 18.291 36.5844 18.8838C36.6408 19.4766 36.669 20.0412 36.6408 20.634C36.6126 21.0856 36.5279 21.509 36.415 21.9325C36.2738 22.4124 36.1045 22.8922 35.9069 23.3439C35.7375 23.7109 35.5117 24.0778 35.2858 24.4166C35.0882 24.7271 34.806 24.9812 34.5801 25.2635C34.4954 25.3764 34.439 25.3764 34.3543 25.2635C34.2978 25.207 34.2696 25.1788 34.2131 25.1223C34.0438 24.9529 34.0438 24.9529 34.2131 24.7553C34.6083 24.3601 34.9471 23.9085 35.2011 23.4004C35.3705 23.0616 35.5399 22.6946 35.681 22.3559C36.048 21.3397 36.1609 20.2952 36.048 19.1943C35.9916 18.6015 35.8504 18.0369 35.6246 17.4723C35.3141 16.7102 34.9189 16.0045 34.3543 15.3834C34.1849 15.2987 34.1002 15.1858 34.0155 15.0447Z" fill="white"/>
<path d="M32.6606 16.4557C32.8017 16.3145 32.9146 16.1734 33.0558 16.0322C35.1729 18.0082 35.3423 21.7909 33.0558 23.9927C32.9429 23.8516 32.8017 23.7104 32.6888 23.5693C33.6203 22.6095 34.1285 21.4239 34.1285 20.0125C34.1002 18.6293 33.5921 17.4437 32.6606 16.4557Z" fill="white"/>
<path d="M32.7735 19.9853C32.7452 20.9168 32.4347 21.7354 31.8419 22.4412C31.7008 22.6105 31.6726 22.6105 31.5314 22.4694C31.2774 22.2153 31.2774 22.2153 31.5032 21.9048C32.096 21.1144 32.3218 20.2111 32.0678 19.2231C31.9548 18.7714 31.729 18.348 31.4467 17.981C31.2774 17.7552 31.2774 17.7552 31.475 17.5576C31.7008 17.3318 31.7008 17.3318 31.8984 17.5858C32.463 18.3198 32.7452 19.1102 32.7735 19.9853Z" fill="white"/>
<path d="M5.98448 24.9539C5.87157 25.0668 5.75865 25.2079 5.61751 25.3208C5.58928 25.3491 5.5046 25.3208 5.47637 25.2926C5.16585 24.8974 4.82711 24.5304 4.54482 24.107C4.29076 23.6836 4.06494 23.2319 3.86733 22.7802C3.64151 22.2439 3.47213 21.7076 3.41568 21.1148C3.35922 20.522 3.33099 19.9574 3.35922 19.3646C3.38745 18.9129 3.47213 18.4895 3.58505 18.0661C3.72619 17.5862 3.89556 17.1063 4.09316 16.6546C4.26254 16.2877 4.48837 15.9207 4.71419 15.5819C4.91179 15.2714 5.19408 15.0174 5.41991 14.7351C5.5046 14.6222 5.56105 14.6222 5.64574 14.7351C5.7022 14.7915 5.73043 14.8198 5.78688 14.8762C5.95625 15.0456 5.95625 15.0456 5.78688 15.2432C5.39168 15.6384 5.05294 16.0901 4.79888 16.5982C4.62951 16.9369 4.46014 17.3039 4.31899 17.6426C3.95202 18.6589 3.83911 19.7033 3.95202 20.8042C4.00848 21.397 4.14962 21.9616 4.37545 22.5262C4.68597 23.2884 5.08117 23.9941 5.64574 24.6151C5.81511 24.6998 5.8998 24.8127 5.98448 24.9539Z" fill="white"/>
<path d="M7.33945 23.5419C7.19831 23.6831 7.0854 23.8242 6.94425 23.9654C4.8271 21.9894 4.65773 18.2067 6.94425 16.0049C7.05717 16.146 7.19831 16.2872 7.31122 16.4283C6.37968 17.3881 5.87156 18.5737 5.87156 19.9851C5.89979 21.3683 6.40791 22.5539 7.33945 23.5419Z" fill="white"/>
<path d="M7.22656 20.0134C7.25479 19.0819 7.56531 18.2633 8.15811 17.5576C8.29925 17.3882 8.32748 17.3882 8.46862 17.5293C8.72268 17.7834 8.72268 17.7834 8.49685 18.0939C7.90405 18.8843 7.67822 19.7876 7.93228 20.7756C8.04519 21.2273 8.27102 21.6507 8.55331 22.0177C8.72268 22.2435 8.72268 22.2435 8.52508 22.4411C8.29925 22.6669 8.29925 22.6669 8.10165 22.4129C7.53708 21.6789 7.25479 20.8885 7.22656 20.0134Z" fill="white"/>
<path d="M24.1637 30.1766C24.1637 30.5154 24.1637 30.8259 24.1637 31.1646C21.3973 31.1646 18.6309 31.1646 15.8645 31.1646C15.8645 30.8541 15.8645 30.5154 15.8645 30.2331C15.2999 30.0919 14.7636 30.0355 14.3119 29.8379C12.6464 29.1321 11.7149 27.8336 11.7149 26.027C11.6867 22.0185 11.6867 18.0101 11.7149 14.0016C11.7149 11.8562 13.2957 10.1343 15.4411 9.90843C15.5822 9.8802 15.6951 9.88021 15.8363 9.85198C15.8645 9.82375 15.8645 9.82375 15.8645 9.79552C15.921 9.2874 15.921 9.2874 16.4573 9.14626C17.9817 8.80752 19.5342 8.75106 21.0868 8.83574C21.9337 8.8922 22.7805 9.00512 23.6274 9.14626C24.1637 9.23095 24.1637 9.25917 24.2202 9.82375C24.446 9.85198 24.7001 9.8802 24.9541 9.90843C26.9584 10.3036 28.3698 11.9409 28.3698 14.0016C28.398 17.9818 28.398 21.9903 28.3698 25.9705C28.3698 28.2006 26.7325 29.8943 24.4742 30.1202C24.3613 30.1484 24.2766 30.1766 24.1637 30.1766ZM27.2971 20.0143C27.2971 18.0665 27.2971 16.0905 27.2971 14.1427C27.2971 12.2232 25.9421 10.8964 24.0226 10.8964C21.3409 10.8964 18.6591 10.8964 16.0057 10.8964C14.0861 10.8964 12.7311 12.2232 12.7311 14.1427C12.7311 18.0665 12.7311 21.9621 12.7311 25.8859C12.7311 27.8054 14.0861 29.1321 15.9774 29.1321C18.6591 29.1321 21.3409 29.1321 24.0226 29.1321C24.4178 29.1321 24.813 29.0757 25.18 28.9628C26.4785 28.5393 27.2689 27.3537 27.2971 25.8859C27.2971 23.9098 27.2971 21.9621 27.2971 20.0143Z" fill="white"/>
</svg>
