<svg width="40" height="40" viewBox="0 0 40 40" fill="none" xmlns="http://www.w3.org/2000/svg">
<path d="M29.0693 18.7176H27.3986V19.8634H27.0542V23.0752H27.0937L27.1276 23.1655C27.2029 23.3498 27.3409 23.5017 27.5171 23.5945C27.6064 23.6694 27.678 23.7632 27.7268 23.8691C27.7756 23.9749 27.8004 24.0903 27.7993 24.2069V24.4891C27.8162 25.4769 27.8332 26.4986 27.7993 27.5005C27.7846 27.8237 27.6961 28.1393 27.5405 28.4231C27.3849 28.7068 27.1665 28.9512 26.9018 29.1374C26.6287 29.3349 26.3141 29.4674 25.9819 29.5246C25.6498 29.5818 25.309 29.5623 24.9855 29.4676C23.8961 29.1515 23.3401 28.3387 23.3401 27.0122C23.3401 24.7187 23.3401 22.4242 23.3401 20.1287V14.693C23.3401 14.2189 23.3401 13.7306 23.3091 13.2565C23.2412 12.5192 22.9121 11.8305 22.3812 11.3146C21.8502 10.7986 21.1523 10.4894 20.4134 10.4427C19.97 10.4065 19.524 10.4647 19.1047 10.6134C18.6854 10.762 18.3023 10.9979 17.9808 11.3053C17.6592 11.6127 17.4064 11.9848 17.2391 12.397C17.0717 12.8092 16.9936 13.2522 17.0098 13.6968C17.0098 15.9546 17.0098 18.2124 17.0098 20.4702V24.8363C17.0098 25.889 16.4905 26.6961 15.5986 27.0461C15.2718 27.1796 14.9171 27.2309 14.5658 27.1954C14.2145 27.16 13.8772 27.039 13.5835 26.8429C13.2591 26.6124 12.996 26.3058 12.8174 25.9501C12.6388 25.5944 12.5501 25.2003 12.5591 24.8024C12.5591 23.7723 12.5591 22.7393 12.5591 21.6979C12.5591 20.5069 12.5591 19.2792 12.5591 18.0685C12.5591 17.6028 12.624 17.0778 13.1969 16.7251C13.5864 16.4823 13.736 16.1606 13.7162 15.5679V15.1926V11.1849H13.2082V10.2197H10.9504V11.0071L10.8516 11.041C10.833 11.0842 10.8039 11.122 10.7669 11.1511L10.7302 11.1821H10.448V11.3966C10.4438 11.4454 10.4438 11.4945 10.448 11.5434V15.2123V15.5877C10.4283 16.1521 10.5778 16.4993 10.9673 16.7448C11.1785 16.8832 11.3469 17.0778 11.4536 17.3066C11.5603 17.5354 11.601 17.7895 11.5713 18.0402C11.5487 19.9029 11.5543 21.7967 11.5713 23.6311V24.4976C11.5465 24.8405 11.5465 25.1848 11.5713 25.5277C11.7109 26.3334 12.1488 27.057 12.7977 27.5545C13.4467 28.052 14.2591 28.287 15.0734 28.2126C15.8878 28.1383 16.6442 27.76 17.1923 27.1532C17.7405 26.5464 18.04 25.7555 18.0314 24.9379C18.0314 22.966 18.0314 20.9904 18.0314 19.0111C18.0314 17.2472 18.0314 15.4833 18.0314 13.7193C18.0222 13.3997 18.0799 13.0816 18.2009 12.7856C18.322 12.4896 18.5036 12.2222 18.7342 12.0006C19.1329 11.6477 19.6496 11.4573 20.182 11.4672C20.2591 11.463 20.3364 11.463 20.4134 11.4672C21.5423 11.5688 22.2987 12.4945 22.3015 13.773C22.3015 16.2321 22.3015 18.6903 22.3015 21.1475C22.3015 23.0178 22.3015 24.888 22.3015 26.7582C22.2969 27.1035 22.3167 27.4487 22.3608 27.7912C22.4576 28.6131 22.8637 29.3672 23.4965 29.9006C24.1293 30.4339 24.9414 30.7063 25.7678 30.6624C26.5942 30.6186 27.373 30.2618 27.9458 29.6645C28.5187 29.0673 28.8427 28.2744 28.852 27.4468C28.8802 26.4957 28.8831 25.5446 28.852 24.6246C28.852 24.1533 28.9 23.6678 29.4447 23.3292C29.499 23.2811 29.5382 23.2184 29.5576 23.1485L29.5999 23.0554V19.8634H29.0355L29.0693 18.7176Z" fill="white"/>
</svg>
