<svg width="26" height="32" viewBox="0 0 26 32" fill="none" xmlns="http://www.w3.org/2000/svg">
<path d="M19.5494 0.646421L19.5157 0L18.8723 0.0692375C18.8092 0.0759775 12.5907 0.825336 12.1643 7.77789L12.1214 8.47394L12.8174 8.42676C12.8885 8.42186 19.9317 7.85999 19.5494 0.646421ZM18.3356 1.42274C18.2186 5.61253 14.9589 6.77793 13.4626 7.09225C14.0324 3.02072 16.9852 1.77996 18.3356 1.42274Z" fill="#9E9EFF"/>
<path d="M25.543 22.9875L25.1515 22.8606C22.7821 22.0947 21.1909 19.9245 21.1909 17.4601C21.1909 15.2678 22.4304 13.3071 24.4267 12.3427L25.0222 12.0553L24.6901 11.4836C24.548 11.2385 23.219 9.06767 20.4115 8.34895C18.1849 7.77911 15.6813 8.28338 12.9675 9.84827C11.8187 9.151 8.00265 7.14127 4.96661 9.1559C4.37227 9.48432 -1.92712 13.2581 1.35156 23.4403C1.44775 23.6682 3.73382 29.024 6.43898 31.0301C7.16874 31.7273 9.03508 32.5986 11.168 31.1446C11.5374 30.9921 14.0098 30.0405 15.5783 31.1551C16.1574 31.5515 17.1684 32.0006 18.2363 32.0006C19.0463 32.0006 19.8888 31.7427 20.6008 31.0074C20.9329 30.72 23.9665 28.0124 25.543 23.7234L25.589 23.5984L25.543 22.9875ZM19.7822 30.0938L19.735 30.1385C18.3913 31.5496 16.354 30.1998 16.2787 30.1496C15.4772 29.5797 14.549 29.3941 13.6783 29.3941C12.0981 29.3941 10.7084 30.0062 10.6196 30.046L10.5197 30.1024C8.6699 31.3934 7.40341 30.2574 7.26922 30.1281L7.19692 30.0662C4.75032 28.282 2.50163 23.0157 2.49857 23.0138C-0.569939 13.475 5.30851 10.355 5.5585 10.2282L5.6259 10.1883C8.47322 8.27664 12.5662 11.0437 12.6066 11.0713L12.9332 11.2955L13.2714 11.0915C15.8204 9.55049 18.1205 9.02662 20.1076 9.53579C21.7264 9.94999 22.7582 10.9616 23.2631 11.5835C21.2123 12.8402 19.966 15.0331 19.966 17.4601C19.966 20.2517 21.6418 22.732 24.195 23.811C22.6234 27.6472 19.8122 30.0687 19.7822 30.0938Z" fill="#9E9EFF"/>
</svg>
