<svg width="25" height="25" viewBox="0 0 25 25" fill="none" xmlns="http://www.w3.org/2000/svg">
<path d="M1.20987 21.7755C0.986793 21.7755 0.806641 21.5953 0.806641 21.3723C0.806641 19.3707 2.4349 17.7424 4.43646 17.7424C4.65953 17.7424 4.83969 17.9228 4.83969 18.1457C4.83969 18.3687 4.65953 18.5489 4.43646 18.5489C2.87967 18.5489 1.61309 19.8155 1.61309 21.3723C1.61309 21.5953 1.43294 21.7755 1.20987 21.7755Z" fill="black"/>
<path d="M7.25822 18.5493L4.43643 18.5489C4.21355 18.5489 4.0332 18.3683 4.0332 18.1457C4.0332 17.9228 4.21395 17.7424 4.43643 17.7424L7.25822 17.7428C7.4813 17.7428 7.66145 17.9236 7.66145 18.146C7.66145 18.3691 7.48071 18.5493 7.25822 18.5493Z" fill="black"/>
<path d="M14.5161 18.5493L12.9032 18.5489C12.6802 18.5489 12.5 18.3683 12.5 18.1457C12.5 17.9228 12.6807 17.7424 12.9032 17.7424L14.5161 17.7428C14.7392 17.7428 14.9194 17.9236 14.9194 18.146C14.9194 18.3691 14.7386 18.5493 14.5161 18.5493Z" fill="black"/>
<path d="M1.21026 24.5968C0.987777 24.5968 0.807034 24.4167 0.807034 24.1936L0.806641 21.3722C0.806641 21.1497 0.986793 20.969 1.20987 20.969C1.43235 20.969 1.61309 21.1493 1.61309 21.3722L1.61349 24.1936C1.61349 24.4161 1.43333 24.5968 1.21026 24.5968Z" fill="black"/>
<path d="M1.61309 25C1.16832 25 0.806641 24.6383 0.806641 24.1935C0.806641 23.9704 0.98699 23.7903 1.20987 23.7903C1.43294 23.7903 1.61309 23.9704 1.61309 24.1935V24.1943C1.83617 24.1943 2.01632 24.3743 2.01632 24.5971C2.01632 24.8198 1.83617 25 1.61309 25Z" fill="black"/>
<path d="M17.3386 25.0001H1.61319C1.39031 25.0001 1.20996 24.8199 1.20996 24.5968C1.20996 24.3738 1.39031 24.1936 1.61319 24.1936H17.3386C17.5617 24.1936 17.7418 24.3738 17.7418 24.5968C17.7418 24.8199 17.5617 25.0001 17.3386 25.0001Z" fill="black"/>
<path d="M7.25772 18.5492C7.03464 18.5492 6.85449 18.3691 6.85449 18.146V15.8351C6.85449 15.612 7.03464 15.4319 7.25772 15.4319C7.48079 15.4319 7.66094 15.612 7.66094 15.8351V18.146C7.66094 18.3691 7.48079 18.5492 7.25772 18.5492Z" fill="black"/>
<path d="M12.9032 18.5488C12.6802 18.5488 12.5 18.3687 12.5 18.1456V15.8351C12.5 15.612 12.6802 15.4319 12.9032 15.4319C13.1263 15.4319 13.3065 15.612 13.3065 15.8351V18.1456C13.3065 18.3687 13.1263 18.5488 12.9032 18.5488Z" fill="black"/>
<path d="M10.0805 16.9359C6.52335 16.9359 3.62891 14.0416 3.62891 10.4843C3.62891 10.2614 3.80906 10.0811 4.03213 10.0811C4.25521 10.0811 4.43536 10.2614 4.43536 10.4843C4.43536 13.5973 6.96753 16.1294 10.0805 16.1294C13.1935 16.1294 15.7257 13.5973 15.7257 10.4843C15.7257 10.2614 15.9058 10.0811 16.1289 10.0811C16.352 10.0811 16.5321 10.2614 16.5321 10.4843C16.5321 14.0416 13.6377 16.9359 10.0805 16.9359Z" fill="black"/>
<path d="M16.1289 7.25816C15.9058 7.25816 15.7257 7.07801 15.7257 6.85493C15.7257 3.74194 13.1935 1.20977 10.0805 1.20977C6.96753 1.20977 4.43536 3.74194 4.43536 6.85493C4.43536 7.07801 4.25521 7.25816 4.03213 7.25816C3.80906 7.25816 3.62891 7.07801 3.62891 6.85493C3.62891 3.29776 6.52335 0.40332 10.0805 0.40332C13.6377 0.40332 16.5321 3.29776 16.5321 6.85493C16.5321 7.07801 16.352 7.25816 16.1289 7.25816Z" fill="black"/>
<path d="M4.03213 10.8874C3.80906 10.8874 3.62891 10.7073 3.62891 10.4842V8.46768C3.62891 8.24461 3.80906 8.06445 4.03213 8.06445C4.25521 8.06445 4.43536 8.24461 4.43536 8.46768V10.4842C4.43536 10.7073 4.25521 10.8874 4.03213 10.8874Z" fill="black"/>
<path d="M16.1288 10.8874C15.9057 10.8874 15.7256 10.7073 15.7256 10.4842V8.46768C15.7256 8.24461 15.9057 8.06445 16.1288 8.06445C16.3519 8.06445 16.532 8.24461 16.532 8.46768V10.4842C16.532 10.7073 16.3519 10.8874 16.1288 10.8874Z" fill="black"/>
<path d="M16.9352 8.8709H3.22549C3.00242 8.8709 2.82227 8.69075 2.82227 8.46768C2.82227 8.24461 3.00242 8.06445 3.22549 8.06445H16.9352C17.1582 8.06445 17.3384 8.24461 17.3384 8.46768C17.3384 8.69075 17.1582 8.8709 16.9352 8.8709Z" fill="black"/>
<path d="M16.9354 8.87087C16.8257 8.87087 16.7161 8.82657 16.6365 8.73856C16.6261 8.72773 15.1632 7.25796 10.0806 7.25796C4.9979 7.25796 3.53542 8.72773 3.52085 8.74269C3.36807 8.90237 3.11408 8.91123 2.95283 8.7612C2.79138 8.61078 2.77859 8.36073 2.92684 8.19712C2.99142 8.12565 4.57203 6.4519 10.0806 6.4519C15.5891 6.4519 17.1697 8.12565 17.2343 8.19712C17.3837 8.36191 17.3713 8.61727 17.2063 8.76691C17.1289 8.83621 17.0323 8.87087 16.9354 8.87087Z" fill="black"/>
<path d="M16.1288 8.33036C15.9057 8.33036 15.7256 8.15001 15.7256 7.92714V6.85489C15.7256 6.63181 15.9057 6.45166 16.1288 6.45166C16.3519 6.45166 16.532 6.63181 16.532 6.85489V7.92714C16.532 8.15001 16.3519 8.33036 16.1288 8.33036Z" fill="black"/>
<path d="M4.03213 8.33036C3.80906 8.33036 3.62891 8.15001 3.62891 7.92714V6.85489C3.62891 6.63181 3.80906 6.45166 4.03213 6.45166C4.25521 6.45166 4.43536 6.63181 4.43536 6.85489V7.92714C4.43536 8.15001 4.25521 8.33036 4.03213 8.33036Z" fill="black"/>
<path d="M10.0807 5.64524C9.19114 5.64524 8.46777 4.92188 8.46777 4.03234C8.46777 3.1428 9.19114 2.41943 10.0807 2.41943C10.9702 2.41943 11.6936 3.1428 11.6936 4.03234C11.6936 4.92188 10.9702 5.64524 10.0807 5.64524ZM10.0807 3.22589C9.63591 3.22589 9.27422 3.58757 9.27422 4.03234C9.27422 4.47711 9.63591 4.83879 10.0807 4.83879C10.5254 4.83879 10.8871 4.47711 10.8871 4.03234C10.8871 3.58757 10.5254 3.22589 10.0807 3.22589Z" fill="black"/>
<path d="M10.081 1.20968C9.85789 1.20968 9.67773 1.02953 9.67773 0.806452V0.403226C9.67773 0.180152 9.85789 0 10.081 0C10.304 0 10.4842 0.180152 10.4842 0.403226V0.806452C10.4842 1.02953 10.304 1.20968 10.081 1.20968Z" fill="black"/>
<path d="M8.8701 19.3544C8.80965 19.3544 8.74783 19.3406 8.69073 19.312L7.07783 18.5068C6.87858 18.4075 6.79747 18.1652 6.89709 17.9661C6.99672 17.7661 7.24027 17.6869 7.43774 17.7854L9.05064 18.5907C9.24989 18.6899 9.33101 18.9323 9.23138 19.1313C9.1609 19.2729 9.01816 19.3544 8.8701 19.3544Z" fill="black"/>
<path d="M8.87116 19.3543C8.70223 19.3543 8.54452 19.247 8.48841 19.0781C8.41832 18.8668 8.53251 18.6386 8.74417 18.5679L9.95384 18.1659C10.1651 18.097 10.3933 18.2104 10.464 18.4217C10.5341 18.6329 10.4199 18.8611 10.2082 18.9318L8.99854 19.3338C8.95621 19.3474 8.9131 19.3543 8.87116 19.3543Z" fill="black"/>
<path d="M11.2906 19.3546C11.1425 19.3546 10.9998 19.2731 10.9293 19.1311C10.8297 18.932 10.9108 18.6897 11.1101 18.5904L12.7229 17.7852C12.922 17.6863 13.1648 17.7667 13.2636 17.9659C13.3632 18.165 13.2821 18.4073 13.0829 18.5066L11.47 19.3118C11.4129 19.3408 11.3507 19.3546 11.2906 19.3546Z" fill="black"/>
<path d="M11.2898 19.3545C11.2478 19.3545 11.2047 19.3476 11.1628 19.334L9.95311 18.932C9.74185 18.8613 9.62726 18.6335 9.69736 18.4219C9.76804 18.211 9.99663 18.0972 10.2075 18.1661L11.4172 18.5681C11.6284 18.6388 11.743 18.8666 11.6729 19.0783C11.6164 19.2472 11.4587 19.3545 11.2898 19.3545Z" fill="black"/>
<path d="M10.0927 20.9673C9.86982 20.9673 9.6875 20.787 9.6875 20.5641C9.6875 20.341 9.86568 20.1609 10.0884 20.1609H10.0927C10.3154 20.1609 10.4959 20.341 10.4959 20.5641C10.4959 20.787 10.3154 20.9673 10.0927 20.9673Z" fill="black"/>
<path d="M23.7907 25H14.5165C14.2934 25 14.1133 24.8198 14.1133 24.5967V18.1459C14.1133 17.923 14.2934 17.7427 14.5165 17.7427H23.7907C24.0138 17.7427 24.1939 17.923 24.1939 18.1459V24.5967C24.1939 24.8198 24.0138 25 23.7907 25ZM14.9197 24.1935H23.3875V18.5491H14.9197V24.1935Z" fill="black"/>
<path d="M14.516 18.4811C14.4294 18.4811 14.3414 18.4533 14.268 18.3953C14.0927 18.258 14.0616 18.0044 14.1991 17.8294L15.4087 16.2834C15.545 16.1082 15.7992 16.0763 15.9746 16.2145C16.1498 16.3516 16.1809 16.6054 16.0435 16.7804L14.8338 18.3263C14.7547 18.4279 14.6358 18.4811 14.516 18.4811Z" fill="black"/>
<path d="M23.7902 18.5493C23.6671 18.5493 23.5466 18.4936 23.4673 18.3881L22.2576 16.774C22.1237 16.5962 22.1599 16.3432 22.3381 16.2099C22.5163 16.0756 22.7693 16.1123 22.9022 16.2904L24.1119 17.9045C24.2458 18.0825 24.2095 18.3353 24.0314 18.4686C23.9591 18.5231 23.874 18.5493 23.7902 18.5493Z" fill="black"/>
<path d="M22.5803 16.9351H15.7255C15.5024 16.9351 15.3223 16.7548 15.3223 16.5319C15.3223 16.3088 15.5024 16.1287 15.7255 16.1287H22.5803C22.8034 16.1287 22.9836 16.3088 22.9836 16.5319C22.9836 16.7548 22.8034 16.9351 22.5803 16.9351Z" fill="black"/>
<path d="M18.1459 18.5229C18.1128 18.5229 18.0793 18.5187 18.0462 18.5103C17.8306 18.4555 17.6999 18.2362 17.7546 18.0204L18.1579 16.4333C18.2128 16.2167 18.4337 16.085 18.6479 16.1419C18.8635 16.1967 18.9942 16.416 18.9395 16.6318L18.5363 18.2189C18.4898 18.4016 18.3256 18.5229 18.1459 18.5229Z" fill="black"/>
<path d="M20.1608 18.5491C19.9801 18.5491 19.816 18.427 19.77 18.2435L19.3667 16.6294C19.3124 16.4136 19.4439 16.1947 19.6603 16.1406C19.8761 16.0858 20.095 16.2177 20.1492 16.4341L20.5524 18.0482C20.6068 18.264 20.4752 18.4829 20.2588 18.5371C20.2262 18.5451 20.1931 18.5491 20.1608 18.5491Z" fill="black"/>
<path d="M18.1454 20.564C17.9223 20.564 17.7422 20.3837 17.7422 20.1608V18.1193C17.7422 17.8962 17.9223 17.7161 18.1454 17.7161C18.3685 17.7161 18.5486 17.8962 18.5486 18.1193V20.1608C18.5486 20.3837 18.3685 20.564 18.1454 20.564Z" fill="black"/>
<path d="M20.161 20.5641C19.938 20.5641 19.7578 20.3837 19.7578 20.1608V18.1459C19.7578 17.923 19.938 17.7427 20.161 17.7427C20.3841 17.7427 20.5643 17.923 20.5643 18.1459V20.1608C20.5643 20.3837 20.3841 20.5641 20.161 20.5641Z" fill="black"/>
<path d="M20.1615 20.564H18.1454C17.9223 20.564 17.7422 20.3837 17.7422 20.1608C17.7422 19.9377 17.9223 19.7576 18.1454 19.7576H20.1615C20.3846 19.7576 20.5648 19.9377 20.5648 20.1608C20.5648 20.3837 20.3846 20.564 20.1615 20.564Z" fill="black"/>
</svg>
