<svg width="44" height="22" viewBox="0 0 44 22" fill="none" xmlns="http://www.w3.org/2000/svg">
<path d="M1.37496 2.74993H42.6249C43.3839 2.74993 43.9999 2.13388 43.9999 1.37497C43.9999 0.615935 43.3838 0 42.6249 0H1.37496C0.615934 0 0 0.616049 0 1.37497C0 2.13388 0.616048 2.74993 1.37496 2.74993Z" fill="white"/>
<path d="M42.6249 9.625H1.37496C0.615934 9.625 0 10.241 0 11C0 11.7589 0.616048 12.3749 1.37496 12.3749H42.6249C43.3839 12.3749 43.9999 11.7589 43.9999 11C43.9999 10.241 43.3839 9.625 42.6249 9.625Z" fill="white"/>
<path d="M42.6249 19.25H15.125C14.3659 19.25 13.75 19.866 13.75 20.625C13.75 21.384 14.366 21.9999 15.125 21.9999H42.6249C43.384 21.9999 43.9999 21.3839 43.9999 20.625C44 19.8659 43.384 19.25 42.6249 19.25Z" fill="white"/>
</svg>
