<svg width="25" height="25" viewBox="0 0 25 25" fill="none" xmlns="http://www.w3.org/2000/svg">
<path d="M17.875 0H7.125C3.20835 0 0 3.20835 0 7.125V17.875C0 21.7916 3.20835 25 7.125 25H17.875C21.7916 25 25 21.7916 25 17.875V7.125C25 3.20835 21.7916 0 17.875 0ZM24.1667 17.875C24.1667 21.3333 21.3333 24.1667 17.875 24.1667H7.125C3.66665 24.1667 0.83335 21.3333 0.83335 17.875V7.125C0.83335 3.66665 3.6667 0.83335 7.125 0.83335H17.875C21.3333 0.83335 24.1667 3.6667 24.1667 7.125V17.875Z" fill="white"/>
<path d="M12.4999 5.8335C8.83325 5.8335 5.83325 8.8335 5.83325 12.5001C5.83325 16.1668 8.83325 19.1668 12.4999 19.1668C16.1666 19.1668 19.1666 16.1668 19.1666 12.5001C19.1666 8.8335 16.1666 5.8335 12.4999 5.8335ZM12.4999 18.3335C9.29155 18.3335 6.66655 15.7085 6.66655 12.5001C6.66655 9.2918 9.29155 6.6668 12.4999 6.6668C15.7083 6.6668 18.3333 9.2918 18.3333 12.5001C18.3333 15.7085 15.7083 18.3335 12.4999 18.3335Z" fill="white"/>
<path d="M19.1667 4.58301C18.4584 4.58301 17.9167 5.12466 17.9167 5.833C17.9167 6.54135 18.4584 7.083 19.1667 7.083C19.8751 7.083 20.4167 6.54135 20.4167 5.833C20.4167 5.12466 19.8751 4.58301 19.1667 4.58301Z" fill="white"/>
</svg>
