<svg width="30" height="30" viewBox="0 0 30 30" fill="none" xmlns="http://www.w3.org/2000/svg">
<g clip-path="url(#clip0)">
<path d="M14.8087 12.645C18.3005 12.645 21.1313 9.81418 21.1313 6.32236C21.1313 2.83054 18.3005 -7.62939e-06 14.8087 -7.62939e-06C11.3169 -7.62939e-06 8.48633 2.8308 8.48633 6.32262C8.49025 9.81261 11.3187 12.6411 14.8087 12.645ZM14.8087 1.33928C17.561 1.33928 19.792 3.57029 19.792 6.32262C19.792 9.0747 17.561 11.3057 14.8087 11.3057C12.0566 11.3057 9.82561 9.0747 9.82561 6.32262C9.82875 3.5716 12.0579 1.34242 14.8087 1.33928Z" fill="white"/>
<path d="M14.9737 14.8721C8.47787 14.8694 3.2115 20.1361 3.21411 26.6316V29.3303C3.21411 29.7002 3.51388 30 3.88376 30H26.0636C26.4335 30 26.7332 29.7002 26.7332 29.3303V26.6316C26.7361 20.1361 21.4695 14.8694 14.9737 14.8721ZM25.3939 28.6607H4.5534V26.6316C4.54398 22.9025 6.52806 19.4528 9.75595 17.5854C12.9838 15.7183 16.9635 15.7183 20.1917 17.5854C23.4195 19.4528 25.4036 22.9025 25.3939 26.6316V28.6607Z" fill="white"/>
</g>
</svg>
