<svg width="26" height="26" viewBox="0 0 26 26" fill="none" xmlns="http://www.w3.org/2000/svg">
<path d="M13 26C5.83158 26 0 20.1684 0 13C0 5.83158 5.83158 0 13 0C20.1684 0 26 5.83158 26 13C26 20.1684 20.1684 26 13 26ZM13 1.08333C6.42958 1.08333 1.08333 6.42958 1.08333 13C1.08333 19.5704 6.42958 24.9167 13 24.9167C19.5704 24.9167 24.9167 19.5704 24.9167 13C24.9167 6.42958 19.5704 1.08333 13 1.08333Z" fill="#FE8732"/>
<path d="M18.957 19.5C18.8184 19.5 18.6797 19.447 18.5735 19.3419L12.6152 13.3835C12.5144 13.2817 12.457 13.1441 12.457 13V4.87504C12.457 4.57604 12.6997 4.33337 12.9987 4.33337C13.2977 4.33337 13.5404 4.57604 13.5404 4.87504V12.7758L19.3405 18.576C19.5518 18.7872 19.5518 19.1306 19.3405 19.3419C19.2344 19.447 19.0957 19.5 18.957 19.5Z" fill="#FE8732"/>
</svg>
