<svg width="74" height="74" viewBox="0 0 74 74" fill="none" xmlns="http://www.w3.org/2000/svg">
<path d="M37 74C57.4019 74 74 57.4019 74 37C74 16.5981 57.4019 0 37 0C16.5981 0 0 16.5981 0 37C0 57.4019 16.5981 74 37 74ZM37 3.29936C55.5829 3.29936 70.7006 18.4171 70.7006 37C70.7006 55.5829 55.5829 70.7006 37 70.7006C18.4171 70.7006 3.29936 55.5829 3.29936 37C3.29936 18.4171 18.4171 3.29936 37 3.29936Z" fill="white"/>
<path d="M27.8805 33.6749C31.6539 33.6749 34.7121 30.6158 34.7121 26.8433C34.713 23.0698 31.6539 20.0107 27.8805 20.0107C24.107 20.0107 21.0488 23.0698 21.0488 26.8424C21.0525 30.614 24.1088 33.6703 27.8805 33.6749ZM27.8805 23.3101C29.8312 23.3101 31.4127 24.8917 31.4127 26.8424C31.4137 28.794 29.8321 30.3756 27.8805 30.3756C25.9297 30.3756 24.3482 28.794 24.3482 26.8424C24.35 24.8926 25.9307 23.3129 27.8805 23.3101Z" fill="white"/>
<path d="M38.875 47.5718C38.875 51.3453 41.9341 54.4034 45.7066 54.4034C49.4801 54.4034 52.5392 51.3453 52.5392 47.5718C52.5392 43.7983 49.4801 40.7393 45.7066 40.7393C41.935 40.7439 38.8796 43.8002 38.875 47.5718ZM49.2398 47.5718C49.2398 49.5225 47.6583 51.1041 45.7066 51.1041C43.7559 51.1041 42.1744 49.5225 42.1744 47.5718C42.1744 45.6211 43.7559 44.0395 45.7066 44.0386C47.6573 44.0414 49.2371 45.6211 49.2398 47.5718Z" fill="white"/>
<path d="M24.4383 56.2607C25.2014 56.7587 26.2242 56.5433 26.7213 55.7801L50.0415 20.0229C50.3646 19.5286 50.3996 18.8998 50.1335 18.3733C49.8666 17.8467 49.3391 17.5024 48.7499 17.4711C48.1607 17.4398 47.5992 17.7252 47.2779 18.2204L23.9577 53.9776C23.4597 54.7417 23.6751 55.7636 24.4383 56.2607Z" fill="white"/>
</svg>
