<svg width="26" height="26" viewBox="0 0 26 26" fill="none" xmlns="http://www.w3.org/2000/svg">
<path d="M13 0C5.82038 0 0 5.82038 0 13C0 20.1796 5.82038 26 13 26C20.1796 26 26 20.1796 26 13C25.992 5.82376 20.1762 0.00804039 13 0ZM13 25.1333C6.29899 25.1333 0.866667 19.701 0.866667 13C0.866667 6.29899 6.29899 0.866667 13 0.866667C19.701 0.866667 25.1333 6.29899 25.1333 13C25.1257 19.6978 19.6978 25.1257 13 25.1333Z" fill="#FE8732"/>
<path d="M19.0667 7.79999H6.93333C6.69403 7.79999 6.5 7.99401 6.5 8.23332V17.7667C6.5 18.006 6.69403 18.2 6.93333 18.2H19.0667C19.306 18.2 19.5 18.006 19.5 17.7667V8.23332C19.5 7.99401 19.306 7.79999 19.0667 7.79999ZM17.8966 8.66665L13 12.8627L8.10342 8.66665H17.8966ZM7.36667 17.3333V9.17531L12.718 13.7621C12.88 13.9009 13.1191 13.9009 13.2812 13.7621L18.6333 9.17531V17.3333H7.36667Z" fill="#FE8732"/>
</svg>
