<svg width="56" height="74" viewBox="0 0 56 74" fill="none" xmlns="http://www.w3.org/2000/svg">
<path d="M52.1867 29.608C51.6898 28.4481 49.9676 28.8105 49.9676 30.0534C49.9653 30.1841 49.877 32.8627 46.7958 34.1973C47.0887 31.8318 47.2771 27.5217 45.878 22.5252C43.4278 13.7745 36.8166 5.50621 23.8193 0.0906058C22.9663 -0.264499 22.0595 0.477796 22.2408 1.38471C23.3148 6.75464 23.7862 14.9971 21.472 16.5091C20.3772 17.2245 18.4903 16.2146 17.1002 15.2416C16.6217 14.9066 15.9686 14.9812 15.5778 15.4153C15.4665 15.5388 12.8326 18.4903 10.9017 22.7977C8.48794 28.1822 8.27419 33.2903 10.2633 37.6525C7.73958 38.5402 5.94483 36.5551 4.75291 34.1713C4.28276 33.231 2.89616 33.3589 2.60696 34.3707C2.51071 34.7076 0.25 42.7008 0.25 49.7193C0.25 64.0137 9.78118 74 27.9993 74C46.222 74 55.7487 64.012 55.7487 49.7193C55.7488 38.0539 52.3321 29.9475 52.1867 29.608ZM27.9995 71.6876C12.0717 71.6876 2.56259 63.4752 2.56259 49.7193C2.56259 45.368 3.51272 40.4851 4.18304 37.5819C5.24532 38.8933 6.4608 39.7154 7.81603 40.0354C10.3875 40.6425 12.4208 39.1461 12.5061 39.0821C12.9685 38.7355 13.1037 38.1007 12.8231 37.5956C10.6203 33.6305 10.6757 28.9885 12.9875 23.7984C14.2219 21.0274 15.808 18.8216 16.6704 17.723C19.1368 19.2223 21.1742 19.4659 22.7369 18.4451C26.3987 16.0526 25.5119 7.40068 24.8712 3.07771C34.8628 7.69986 41.1663 14.4086 43.6214 23.0425C45.5736 29.9086 44.2344 35.5103 44.2212 35.5643C44.0156 36.3863 44.7373 37.1448 45.5696 36.9785C48.4012 36.4122 50.1214 35.0305 51.1102 33.5724C52.1011 36.8873 53.4364 42.6632 53.4364 49.7195C53.4364 63.4752 43.9273 71.6876 27.9995 71.6876Z" fill="white"/>
<path d="M22.2186 49.7195C24.7688 49.7195 26.8435 47.6448 26.8435 45.0946C26.8435 42.5444 24.7688 40.4697 22.2186 40.4697C19.6684 40.4697 17.5938 42.5444 17.5938 45.0946C17.5938 47.6448 19.6684 49.7195 22.2186 49.7195ZM22.2186 42.7822C23.4937 42.7822 24.5311 43.8196 24.5311 45.0946C24.5311 46.3696 23.4937 47.4071 22.2186 47.4071C20.9436 47.4071 19.9062 46.3696 19.9062 45.0946C19.9062 43.8196 20.9436 42.7822 22.2186 42.7822Z" fill="white"/>
<path d="M33.7811 52.0322C31.2309 52.0322 29.1562 54.1069 29.1562 56.6571C29.1562 59.2073 31.2309 61.282 33.7811 61.282C36.3313 61.282 38.406 59.2073 38.406 56.6571C38.406 54.1069 36.3312 52.0322 33.7811 52.0322ZM33.7811 58.9696C32.5061 58.9696 31.4687 57.9321 31.4687 56.6571C31.4687 55.3821 32.5061 54.3447 33.7811 54.3447C35.0562 54.3447 36.0936 55.3821 36.0936 56.6571C36.0936 57.9321 35.0562 58.9696 33.7811 58.9696Z" fill="white"/>
<path d="M36.4319 40.8084L17.9325 59.3079C17.4808 59.7594 17.4808 60.4915 17.9325 60.943C18.3841 61.3946 19.116 61.3945 19.5675 60.943L38.0671 42.4434C38.5186 41.9919 38.5186 41.2599 38.0671 40.8084C37.6154 40.3569 36.8836 40.3569 36.4319 40.8084Z" fill="white"/>
</svg>
