<svg width="158" height="23" viewBox="0 0 158 23" fill="none" xmlns="http://www.w3.org/2000/svg">
<g clip-path="url(#clip0)">
<path d="M13.429 19.7756L12.3278 16.3645H5.00978L3.90782 19.7756H0L6.42625 0.812469H10.9081L17.3575 19.7756H13.429ZM6.1635 12.868H11.1996L8.67874 5.11988L6.1635 12.868Z" fill="white"/>
<path d="M21.3505 23V18.1737C22.3465 19.5009 23.763 20.1514 25.5991 20.1514C27.3563 20.1514 28.8779 19.4738 30.1104 18.0956C31.3692 16.714 31.999 15.0077 31.999 13.0028C31.999 10.9979 31.3692 9.31873 30.1104 7.9372C28.8779 6.55567 27.3563 5.85093 25.5991 5.85093C23.763 5.85093 22.3465 6.5014 21.3505 7.82454V6.23085H17.9666V23H21.3505ZM22.3736 10.2669C23.056 9.53583 23.9214 9.18305 24.9709 9.18305C26.0203 9.18305 26.8818 9.53583 27.5673 10.2669C28.2751 10.9708 28.6167 11.8918 28.6167 13.0028C28.6167 14.1138 28.2751 15.0348 27.5673 15.7659C26.8847 16.4703 26.0192 16.8226 24.9709 16.8226C23.9225 16.8226 23.0568 16.4703 22.3736 15.7659C21.692 15.0351 21.3513 14.1141 21.3513 13.0028C21.3505 11.8918 21.6912 10.9708 22.3736 10.2669Z" fill="white"/>
<path d="M36.746 23V18.1737C37.7429 19.5009 39.1594 20.1514 40.9954 20.1514C42.7527 20.1514 44.2742 19.4738 45.5068 18.0956C46.7656 16.714 47.3954 15.0077 47.3954 13.0028C47.3954 10.9979 46.7656 9.31873 45.5068 7.9372C44.2742 6.55567 42.7567 5.85093 40.9954 5.85093C39.1594 5.85093 37.7429 6.5014 36.746 7.82454V6.23085H33.3613V23H36.746ZM37.7692 10.2669C38.4507 9.53583 39.317 9.18305 40.3656 9.18305C41.4142 9.18305 42.2765 9.53583 42.9629 10.2669C43.6707 10.9708 44.0115 11.8918 44.0115 13.0028C44.0115 14.1138 43.6707 15.0348 42.9629 15.7659C42.2803 16.4709 41.4153 16.8231 40.368 16.8226C39.3207 16.822 38.4552 16.4698 37.7716 15.7659C37.0889 15.0351 36.7479 14.1141 36.7484 13.0028C36.746 11.8918 37.0868 10.9708 37.7692 10.2669Z" fill="white"/>
<path d="M48.7585 19.7756V0H52.1425V19.7756H48.7585Z" fill="white"/>
<path d="M57.0734 14.4386C57.5192 16.145 58.7518 16.9879 60.771 16.9879C62.0569 16.9879 63.0529 16.5274 63.709 15.6335L66.4368 17.2584C65.1517 19.1819 63.2369 20.1572 60.7192 20.1572C58.5416 20.1572 56.8106 19.4796 55.4992 18.1252C54.1879 16.7708 53.5326 15.0644 53.5326 13.0053C53.5326 10.9733 54.1879 9.26695 55.473 7.91256C56.7581 6.53103 58.4373 5.85671 60.4565 5.85671C62.3714 5.85671 63.971 6.53432 65.2043 7.91256C66.4631 9.29409 67.0921 10.9733 67.0921 13.0053C67.0852 13.4859 67.0415 13.9652 66.9615 14.4386H57.0734ZM63.709 11.7299C63.3157 9.88782 62.0043 8.99394 60.4565 8.99394C58.6467 8.99394 57.4141 9.99637 57.0208 11.7299H63.709Z" fill="white"/>
<path d="M70.4498 8.47915C71.2628 6.82625 72.6267 6.01213 74.5941 6.01213V7.74727C72.2055 7.74727 70.4498 9.1288 70.4498 12.2446V19.7756H68.7189V6.23087H70.4498V8.47915Z" fill="white"/>
<path d="M81.2561 20.1004C79.3452 20.1004 77.689 19.4228 76.3514 18.0684C75.0137 16.6869 74.3608 15.0077 74.3608 13.0028C74.3608 10.998 75.0169 9.31876 76.3514 7.96436C77.689 6.58283 79.3412 5.90852 81.2561 5.90852C83.171 5.90852 84.7968 6.58612 86.1345 7.96436C87.4721 9.31876 88.1537 10.998 88.1537 13.0028C88.1537 15.0077 87.4721 16.6869 86.1345 18.0684C84.7968 19.4231 83.1707 20.1004 81.2561 20.1004ZM81.2561 18.367C82.6988 18.367 83.9314 17.8522 84.9282 16.8226C85.924 15.7662 86.4222 14.4929 86.4227 13.0028C86.4227 11.5128 85.9243 10.2398 84.9282 9.21021C83.9314 8.15432 82.6988 7.63954 81.2561 7.63954C79.8133 7.63954 78.5808 8.15432 77.5839 9.21021C76.5871 10.2398 76.0886 11.5128 76.0886 13.0028C76.0886 14.4929 76.5871 15.7659 77.5839 16.8226C78.5808 17.8522 79.8133 18.367 81.2561 18.367Z" fill="white"/>
<path d="M96.1269 20.1004C94.216 20.1004 92.5599 19.4228 91.2222 18.0684C89.8846 16.6869 89.2317 15.0077 89.2317 13.0028C89.2317 10.998 89.887 9.31876 91.2222 7.96436C92.5599 6.58283 94.2128 5.90852 96.1269 5.90852C98.041 5.90852 99.6677 6.58612 101.006 7.96436C102.344 9.31876 103.025 10.998 103.025 13.0028C103.025 15.0077 102.344 16.6869 101.006 18.0684C99.6679 19.4231 98.0415 20.1004 96.1269 20.1004ZM96.1269 18.367C97.5697 18.367 98.8022 17.8522 99.7991 16.8226C100.796 15.7662 101.294 14.4929 101.294 13.0028C101.294 11.5128 100.796 10.2398 99.7991 9.21021C98.8022 8.15432 97.5697 7.63954 96.1269 7.63954C94.6842 7.63954 93.4516 8.15432 92.4548 9.21021C91.4587 10.2398 90.9603 11.5128 90.9603 13.0028C90.9603 14.4929 91.4587 15.7659 92.4548 16.8226C93.4516 17.8522 94.685 18.367 96.1269 18.367Z" fill="white"/>
<path d="M123.772 11.3236V19.7756H122.041V11.3236C122.041 8.96677 120.756 7.63952 118.841 7.63952C116.664 7.63952 115.196 9.10164 115.196 12.2718V19.7756H113.461V11.3236C113.461 8.93881 112.281 7.63952 110.392 7.63952C108.294 7.63952 106.616 9.12877 106.616 12.2718V19.7756H104.884V6.23085H106.616V8.20447C107.56 6.66094 108.898 5.90192 110.628 5.90192C112.517 5.90192 113.855 6.71521 114.615 8.36893C115.559 6.71685 116.976 5.90192 118.865 5.90192C121.805 5.90521 123.772 7.99148 123.772 11.3236Z" fill="white"/>
<path d="M126.403 19.7452C126.199 19.5344 126.06 19.2658 126.003 18.9734C125.947 18.681 125.976 18.3779 126.086 18.1025C126.197 17.827 126.384 17.5916 126.624 17.4259C126.864 17.2603 127.146 17.1719 127.435 17.1719C127.723 17.1719 128.006 17.2603 128.246 17.4259C128.486 17.5916 128.673 17.827 128.783 18.1025C128.894 18.3779 128.923 18.681 128.866 18.9734C128.81 19.2658 128.671 19.5344 128.467 19.7452C128.19 20.0211 127.82 20.1754 127.435 20.1754C127.05 20.1754 126.68 20.0211 126.403 19.7452Z" fill="white"/>
<path d="M140.532 6.2432H142.284V19.9088H140.532V17.7773C139.553 19.4171 138.071 20.2369 136.086 20.2369C132.884 20.2369 130.899 18.0503 130.899 14.6335V6.24567H132.649V14.6376C132.649 17.0709 133.946 18.4919 136.249 18.4919C138.79 18.4919 140.536 16.8793 140.536 13.4082L140.532 6.2432Z" fill="white"/>
<path d="M156.253 6.24321H158V19.9088H156.253V17.2305C155.036 19.2255 153.263 20.2369 150.907 20.2369C149.028 20.2369 147.414 19.5536 146.065 18.1597C144.741 16.7656 144.08 15.071 144.08 13.076C144.08 11.081 144.741 9.38646 146.065 7.99232C147.418 6.59434 149.028 5.91509 150.907 5.91509C153.263 5.91509 155.036 6.92657 156.253 8.92156V6.24321ZM151.042 18.4878C152.497 18.4878 153.741 17.9681 154.747 16.9295C155.755 15.8637 156.26 14.5793 156.26 13.076C156.26 11.5728 155.757 10.2883 154.747 9.24968C153.741 8.18064 152.497 7.66421 151.042 7.66421C149.586 7.66421 148.343 8.1831 147.337 9.24968C146.332 10.2883 145.829 11.5728 145.829 13.076C145.829 14.5793 146.332 15.8637 147.337 16.9295C148.34 17.9681 149.584 18.4878 151.042 18.4878Z" fill="white"/>
</g>
<defs>
<clipPath id="clip0">
<rect width="158" height="23" fill="white"/>
</clipPath>
</defs>
</svg>
