<svg width="79" height="79" viewBox="0 0 79 79" fill="none" xmlns="http://www.w3.org/2000/svg">
<path d="M27.1562 73.5996H51.8438C53.7255 73.5975 55.5296 72.849 56.8602 71.5184C58.1908 70.1878 58.9393 68.3837 58.9414 66.502V12.498C58.9393 10.6163 58.1908 8.8122 56.8602 7.48159C55.5296 6.15098 53.7255 5.40251 51.8438 5.40039H27.1562C25.2745 5.40251 23.4704 6.15098 22.1398 7.48159C20.8092 8.8122 20.0607 10.6163 20.0586 12.498V66.502C20.0607 68.3837 20.8092 70.1878 22.1398 71.5184C23.4704 72.849 25.2745 73.5975 27.1562 73.5996ZM27.1562 7.25195H51.8438C53.2346 7.2535 54.5681 7.80672 55.5516 8.79021C56.5351 9.77371 57.0883 11.1072 57.0898 12.498V14.6582H54.9297C54.6842 14.6582 54.4487 14.7557 54.2751 14.9294C54.1014 15.103 54.0039 15.3385 54.0039 15.584C54.0039 15.8295 54.1014 16.065 54.2751 16.2386C54.4487 16.4122 54.6842 16.5098 54.9297 16.5098H57.0898V60.6387H21.9102V16.5098H47.0605C47.3061 16.5098 47.5416 16.4122 47.7152 16.2386C47.8888 16.065 47.9863 15.8295 47.9863 15.584C47.9863 15.3385 47.8888 15.103 47.7152 14.9294C47.5416 14.7557 47.3061 14.6582 47.0605 14.6582H21.9102V12.498C21.9117 11.1072 22.4649 9.77371 23.4484 8.79021C24.4319 7.80672 25.7654 7.2535 27.1562 7.25195ZM21.9102 62.4902H57.0898V66.502C57.0883 67.8928 56.5351 69.2263 55.5516 70.2098C54.5681 71.1933 53.2346 71.7465 51.8438 71.748H27.1562C25.7654 71.7465 24.4319 71.1933 23.4484 70.2098C22.4649 69.2263 21.9117 67.8928 21.9102 66.502V62.4902Z" fill="white"/>
<path d="M50.1016 16.5098H51.8158C52.0613 16.5098 52.2968 16.4122 52.4704 16.2386C52.644 16.065 52.7416 15.8295 52.7416 15.584C52.7416 15.3385 52.644 15.103 52.4704 14.9294C52.2968 14.7557 52.0613 14.6582 51.8158 14.6582H50.1016C49.856 14.6582 49.6206 14.7557 49.4469 14.9294C49.2733 15.103 49.1758 15.3385 49.1758 15.584C49.1758 15.8295 49.2733 16.065 49.4469 16.2386C49.6206 16.4122 49.856 16.5098 50.1016 16.5098Z" fill="white"/>
<path d="M39.5 70.3594C40.1409 70.3594 40.7673 70.1693 41.3002 69.8133C41.833 69.4573 42.2483 68.9512 42.4936 68.3591C42.7388 67.7671 42.803 67.1156 42.678 66.487C42.553 65.8585 42.2444 65.2811 41.7912 64.828C41.338 64.3748 40.7607 64.0662 40.1321 63.9412C39.5036 63.8161 38.8521 63.8803 38.26 64.1256C37.6679 64.3708 37.1619 64.7861 36.8058 65.319C36.4498 65.8518 36.2598 66.4783 36.2598 67.1191C36.2607 67.9782 36.6024 68.8018 37.2099 69.4093C37.8173 70.0167 38.6409 70.3584 39.5 70.3594ZM39.5 65.7305C39.7747 65.7305 40.0431 65.8119 40.2715 65.9645C40.4999 66.1171 40.6779 66.334 40.783 66.5877C40.8881 66.8415 40.9156 67.1207 40.862 67.3901C40.8084 67.6594 40.6762 67.9069 40.4819 68.1011C40.2877 68.2953 40.0403 68.4276 39.7709 68.4811C39.5015 68.5347 39.2223 68.5072 38.9686 68.4021C38.7148 68.297 38.498 68.119 38.3454 67.8906C38.1928 67.6623 38.1113 67.3938 38.1113 67.1191C38.1117 66.751 38.2582 66.398 38.5185 66.1377C38.7789 65.8773 39.1318 65.7309 39.5 65.7305Z" fill="white"/>
</svg>
