<svg width="26" height="26" viewBox="0 0 26 26" fill="none" xmlns="http://www.w3.org/2000/svg">
<path d="M13 0C5.82038 0 0 5.82038 0 13C0 20.1796 5.82038 26 13 26C20.1796 26 26 20.1796 26 13C25.992 5.82376 20.1762 0.00804039 13 0ZM13 25.1333C6.29899 25.1333 0.866667 19.701 0.866667 13C0.866667 6.29899 6.29899 0.866667 13 0.866667C19.701 0.866667 25.1333 6.29899 25.1333 13C25.1257 19.6978 19.6978 25.1257 13 25.1333Z" fill="#FE8732"/>
<path d="M18.697 14.5852L15.019 13.9352C14.8328 13.9024 14.647 13.9938 14.5596 14.1614L13.6678 15.8704C12.0897 15.1715 10.8287 13.9098 10.1304 12.3314L11.8377 11.4395C12.0053 11.3521 12.0967 11.1664 12.0639 10.9802L11.4139 7.30255C11.3936 7.18681 11.3272 7.0844 11.2299 7.01859C10.2999 6.39145 9.09979 6.32839 8.10934 6.85483C7.1189 7.38147 6.5 8.41169 6.5 9.53333C6.50614 15.0353 10.9647 19.4939 16.4667 19.5C17.5885 19.4998 18.6187 18.8805 19.1452 17.8898C19.6714 16.8989 19.6079 15.6986 18.9799 14.7689C18.9143 14.672 18.8123 14.6055 18.697 14.5852ZM16.4667 18.6333C11.4433 18.6276 7.37238 14.5567 7.36667 9.53333C7.36646 8.76357 7.77482 8.05157 8.43921 7.66267C9.1036 7.27398 9.92456 7.267 10.5955 7.64447L11.1558 10.8189L9.37909 11.7463C9.18442 11.8479 9.0964 12.0787 9.17406 12.2842C9.96624 14.3798 11.62 16.0346 13.7154 16.8276C13.9208 16.9053 14.1517 16.8173 14.2532 16.6226L15.1811 14.8459L18.3555 15.4064C18.7321 16.0771 18.7245 16.8972 18.3361 17.5612C17.9474 18.225 17.236 18.6331 16.4667 18.6333Z" fill="#FE8732"/>
</svg>
