<svg width="26" height="26" viewBox="0 0 26 26" fill="none" xmlns="http://www.w3.org/2000/svg">
<path d="M13.0855 5.69788C11.2531 5.69788 9.76172 7.1893 9.76172 9.02165C9.76172 10.854 11.2531 12.3454 13.0855 12.3454C14.9178 12.3454 16.4093 10.854 16.4093 9.02165C16.4093 7.1893 14.9178 5.69788 13.0855 5.69788ZM13.0855 11.3958C11.7764 11.3958 10.7114 10.3307 10.7114 9.02165C10.7114 7.71256 11.7764 6.64753 13.0855 6.64753C14.3946 6.64753 15.4596 7.71256 15.4596 9.02165C15.4596 10.3307 14.3946 11.3958 13.0855 11.3958Z" fill="#FE8732"/>
<path d="M19.4391 2.66709C17.7193 0.947276 15.4325 0 13.0005 0C10.5679 0 8.28165 0.947276 6.56184 2.66709C3.37908 5.84937 2.98355 11.8369 5.70525 15.4646L13.0005 26L20.2848 15.4793C23.0174 11.8369 22.6218 5.84937 19.4391 2.66709ZM19.5146 14.9242L13.0005 24.3315L6.47589 14.9095C4.00728 11.618 4.36102 6.21071 7.23371 3.3385C8.77405 1.79816 10.822 0.94965 13.0005 0.94965C15.179 0.94965 17.2269 1.79816 18.7677 3.3385C21.6404 6.21071 21.9941 11.618 19.5146 14.9242Z" fill="#FE8732"/>
</svg>
