<svg width="32" height="32" viewBox="0 0 32 32" fill="none" xmlns="http://www.w3.org/2000/svg">
<path d="M23.2256 0H8.774C7.34936 0.00176412 6.19512 1.156 6.19336 2.58065V29.4194C6.19512 30.844 7.34936 31.9982 8.774 32H23.2256C24.6503 31.9982 25.8045 30.844 25.8063 29.4194V2.58065C25.8045 1.156 24.6503 0.00176412 23.2256 0ZM7.22562 5.16129H24.774V25.8064H7.22562V5.16129ZM7.22562 2.58065C7.22562 1.72555 7.91891 1.03226 8.774 1.03226H23.2256C24.0807 1.03226 24.774 1.72555 24.774 2.58065V4.12903H7.22562V2.58065ZM24.774 29.4194C24.774 30.2744 24.0807 30.9677 23.2256 30.9677H8.774C7.91891 30.9677 7.22562 30.2744 7.22562 29.4194V26.8387H24.774V29.4194Z" fill="#0C0C0D"/>
<path d="M15.9996 30.4516C16.8547 30.4516 17.5479 29.7583 17.5479 28.9032C17.5479 28.0482 16.8547 27.3549 15.9996 27.3549C15.1445 27.3549 14.4512 28.0482 14.4512 28.9032C14.4512 29.7583 15.1445 30.4516 15.9996 30.4516ZM15.9996 28.3871C16.2846 28.3871 16.5157 28.6182 16.5157 28.9032C16.5157 29.1883 16.2846 29.4194 15.9996 29.4194C15.7145 29.4194 15.4834 29.1883 15.4834 28.9032C15.4834 28.6182 15.7145 28.3871 15.9996 28.3871Z" fill="#0C0C0D"/>
</svg>
