<svg width="32" height="32" viewBox="0 0 32 32" fill="none" xmlns="http://www.w3.org/2000/svg">
<path d="M30.2018 1.48922C29.2574 0.544835 27.9861 0 26.5695 0H21.666V1.96141H26.5332C27.4049 1.96141 28.204 2.32463 28.7852 2.90579C29.3664 3.48694 29.7296 4.28604 29.7296 5.15777V10.3519H31.691V5.12145C31.691 3.70488 31.1098 2.4336 30.2018 1.48922Z" fill="#0C0C0D"/>
<path d="M3.21438 29.0578C2.63322 28.4767 2.27 27.6776 2.27 26.8059V21.6481H0.308594V26.8422C0.308594 28.2588 0.889751 29.53 1.79781 30.4744C2.77851 31.3825 4.04979 31.9636 5.46637 31.9636H10.3336V30.0022H5.46637C4.59463 30.0022 3.79554 29.639 3.21438 29.0578Z" fill="#0C0C0D"/>
<path d="M29.6933 26.8422C29.6933 27.7139 29.33 28.513 28.7489 29.0942C28.1677 29.6753 27.3686 30.0385 26.4969 30.0385H21.666V32H26.5332C27.9498 32 29.2211 31.4188 30.1654 30.5107C31.1098 29.5664 31.6547 28.2951 31.6547 26.8785V21.6481H29.6933V26.8422Z" fill="#0C0C0D"/>
<path d="M1.83394 1.48922C0.889562 2.4336 0.344727 3.70488 0.344727 5.12145V10.3156H2.30613V5.12145C2.30613 4.24972 2.66936 3.45062 3.25052 2.86947C3.83167 2.28831 4.63076 1.92509 5.5025 1.92509H10.3697V0H5.46618C4.04961 0 2.77832 0.581158 1.83394 1.48922Z" fill="#0C0C0D"/>
</svg>
